<?xml version="1.0" encoding="UTF-8" standalone="no"?>
<!DOCTYPE svg PUBLIC "-//W3C//DTD SVG 1.1//EN"
 "http://www.w3.org/Graphics/SVG/1.1/DTD/svg11.dtd">
<!-- Generated by graphviz version 2.40.1 (20161225.0304)
 -->
<!-- Title: benchmark/src/benchmark_csv_write.cpp Pages: 1 -->
<svg width="879pt" height="151pt"
 viewBox="0.00 0.00 879.00 151.00" xmlns="http://www.w3.org/2000/svg" xmlns:xlink="http://www.w3.org/1999/xlink">
<g id="graph0" class="graph" transform="scale(1 1) rotate(0) translate(4 147)">
<title>benchmark/src/benchmark_csv_write.cpp</title>
<polygon fill="#ffffff" stroke="transparent" points="-4,4 -4,-147 875,-147 875,4 -4,4"/>
<!-- Node1 -->
<g id="node1" class="node">
<title>Node1</title>
<g id="a_node1"><a xlink:title=" ">
<polygon fill="#bfbfbf" stroke="#000000" points="112,-112.5 112,-142.5 244,-142.5 244,-112.5 112,-112.5"/>
<text text-anchor="start" x="120" y="-130.5" font-family="Helvetica,sans-Serif" font-size="10.00" fill="#000000">benchmark/src/benchmark</text>
<text text-anchor="middle" x="178" y="-119.5" font-family="Helvetica,sans-Serif" font-size="10.00" fill="#000000">_csv_write.cpp</text>
</a>
</g>
</g>
<!-- Node2 -->
<g id="node2" class="node">
<title>Node2</title>
<g id="a_node2"><a xlink:title=" ">
<polygon fill="#ffffff" stroke="#bfbfbf" points="26,-56.5 26,-75.5 150,-75.5 150,-56.5 26,-56.5"/>
<text text-anchor="middle" x="88" y="-63.5" font-family="Helvetica,sans-Serif" font-size="10.00" fill="#000000">benchmark/benchmark.h</text>
</a>
</g>
</g>
<!-- Node1&#45;&gt;Node2 -->
<g id="edge1" class="edge">
<title>Node1&#45;&gt;Node2</title>
<path fill="none" stroke="#191970" d="M155.7528,-112.2977C142.0033,-102.9022 124.4079,-90.8787 110.5943,-81.4395"/>
<polygon fill="#191970" stroke="#191970" points="112.3725,-78.4155 102.1414,-75.6633 108.4232,-84.195 112.3725,-78.4155"/>
</g>
<!-- Node3 -->
<g id="node3" class="node">
<title>Node3</title>
<g id="a_node3"><a xlink:title=" ">
<polygon fill="#ffffff" stroke="#bfbfbf" points="0,-.5 0,-19.5 50,-19.5 50,-.5 0,-.5"/>
<text text-anchor="middle" x="25" y="-7.5" font-family="Helvetica,sans-Serif" font-size="10.00" fill="#000000">fstream</text>
</a>
</g>
</g>
<!-- Node1&#45;&gt;Node3 -->
<g id="edge2" class="edge">
<title>Node1&#45;&gt;Node3</title>
<path fill="none" stroke="#191970" d="M177.9648,-112.4063C177.1167,-96.4221 173.357,-71.4135 159,-56 155.4701,-52.2103 98.5688,-33.4917 60.061,-21.1313"/>
<polygon fill="#191970" stroke="#191970" points="60.8204,-17.6995 50.2294,-17.9851 58.6869,-24.3665 60.8204,-17.6995"/>
</g>
<!-- Node4 -->
<g id="node4" class="node">
<title>Node4</title>
<g id="a_node4"><a xlink:href="csv__io_8hpp.html" target="_top" xlink:title=" ">
<polygon fill="#ffffff" stroke="#000000" points="394,-56.5 394,-75.5 458,-75.5 458,-56.5 394,-56.5"/>
<text text-anchor="middle" x="426" y="-63.5" font-family="Helvetica,sans-Serif" font-size="10.00" fill="#000000">csv_io.hpp</text>
</a>
</g>
</g>
<!-- Node1&#45;&gt;Node4 -->
<g id="edge3" class="edge">
<title>Node1&#45;&gt;Node4</title>
<path fill="none" stroke="#191970" d="M238.6676,-112.4554C283.7827,-101.2676 344.187,-86.2883 384.056,-76.4014"/>
<polygon fill="#191970" stroke="#191970" points="385.1137,-79.7452 393.9772,-73.9411 383.4288,-72.951 385.1137,-79.7452"/>
</g>
<!-- Node4&#45;&gt;Node3 -->
<g id="edge7" class="edge">
<title>Node4&#45;&gt;Node3</title>
<path fill="none" stroke="#191970" d="M393.8048,-63.721C331.2263,-58.916 188.7491,-46.1411 60.1566,-19.9581"/>
<polygon fill="#191970" stroke="#191970" points="60.6381,-16.4837 50.1362,-17.8844 59.2194,-23.3384 60.6381,-16.4837"/>
</g>
<!-- Node5 -->
<g id="node5" class="node">
<title>Node5</title>
<g id="a_node5"><a xlink:title=" ">
<polygon fill="#ffffff" stroke="#bfbfbf" points="68,-.5 68,-19.5 124,-19.5 124,-.5 68,-.5"/>
<text text-anchor="middle" x="96" y="-7.5" font-family="Helvetica,sans-Serif" font-size="10.00" fill="#000000">algorithm</text>
</a>
</g>
</g>
<!-- Node4&#45;&gt;Node5 -->
<g id="edge4" class="edge">
<title>Node4&#45;&gt;Node5</title>
<path fill="none" stroke="#191970" d="M393.7076,-62.0929C341.2502,-55.4951 234.1198,-40.9795 134.1645,-20.0706"/>
<polygon fill="#191970" stroke="#191970" points="134.7135,-16.6093 124.2052,-17.9606 133.2627,-23.4573 134.7135,-16.6093"/>
</g>
<!-- Node6 -->
<g id="node6" class="node">
<title>Node6</title>
<g id="a_node6"><a xlink:title=" ">
<polygon fill="#ffffff" stroke="#bfbfbf" points="142.5,-.5 142.5,-19.5 191.5,-19.5 191.5,-.5 142.5,-.5"/>
<text text-anchor="middle" x="167" y="-7.5" font-family="Helvetica,sans-Serif" font-size="10.00" fill="#000000">cassert</text>
</a>
</g>
</g>
<!-- Node4&#45;&gt;Node6 -->
<g id="edge5" class="edge">
<title>Node4&#45;&gt;Node6</title>
<path fill="none" stroke="#191970" d="M393.9745,-60.456C351.8744,-52.9564 275.4497,-38.6158 201.7095,-20.2792"/>
<polygon fill="#191970" stroke="#191970" points="202.3485,-16.8309 191.7967,-17.7854 200.6407,-23.6194 202.3485,-16.8309"/>
</g>
<!-- Node7 -->
<g id="node7" class="node">
<title>Node7</title>
<g id="a_node7"><a xlink:title=" ">
<polygon fill="#ffffff" stroke="#bfbfbf" points="209.5,-.5 209.5,-19.5 268.5,-19.5 268.5,-.5 209.5,-.5"/>
<text text-anchor="middle" x="239" y="-7.5" font-family="Helvetica,sans-Serif" font-size="10.00" fill="#000000">exception</text>
</a>
</g>
</g>
<!-- Node4&#45;&gt;Node7 -->
<g id="edge6" class="edge">
<title>Node4&#45;&gt;Node7</title>
<path fill="none" stroke="#191970" d="M393.8536,-56.3733C361.8238,-46.7814 312.5958,-32.0394 278.2704,-21.7601"/>
<polygon fill="#191970" stroke="#191970" points="279.1556,-18.3717 268.5718,-18.8557 277.1474,-25.0775 279.1556,-18.3717"/>
</g>
<!-- Node8 -->
<g id="node8" class="node">
<title>Node8</title>
<g id="a_node8"><a xlink:title=" ">
<polygon fill="#ffffff" stroke="#bfbfbf" points="286.5,-.5 286.5,-19.5 345.5,-19.5 345.5,-.5 286.5,-.5"/>
<text text-anchor="middle" x="316" y="-7.5" font-family="Helvetica,sans-Serif" font-size="10.00" fill="#000000">functional</text>
</a>
</g>
</g>
<!-- Node4&#45;&gt;Node8 -->
<g id="edge8" class="edge">
<title>Node4&#45;&gt;Node8</title>
<path fill="none" stroke="#191970" d="M406.8395,-56.2455C389.4889,-47.4125 363.7099,-34.2887 344.0417,-24.2758"/>
<polygon fill="#191970" stroke="#191970" points="345.4405,-21.0605 334.941,-19.6427 342.2647,-27.2986 345.4405,-21.0605"/>
</g>
<!-- Node9 -->
<g id="node9" class="node">
<title>Node9</title>
<g id="a_node9"><a xlink:title=" ">
<polygon fill="#ffffff" stroke="#bfbfbf" points="364,-.5 364,-19.5 418,-19.5 418,-.5 364,-.5"/>
<text text-anchor="middle" x="391" y="-7.5" font-family="Helvetica,sans-Serif" font-size="10.00" fill="#000000">iostream</text>
</a>
</g>
</g>
<!-- Node4&#45;&gt;Node9 -->
<g id="edge9" class="edge">
<title>Node4&#45;&gt;Node9</title>
<path fill="none" stroke="#191970" d="M419.9035,-56.2455C415.0855,-48.5367 408.2249,-37.5598 402.3968,-28.2348"/>
<polygon fill="#191970" stroke="#191970" points="405.2947,-26.2677 397.0267,-19.6427 399.3587,-29.9777 405.2947,-26.2677"/>
</g>
<!-- Node10 -->
<g id="node10" class="node">
<title>Node10</title>
<g id="a_node10"><a xlink:title=" ">
<polygon fill="#ffffff" stroke="#bfbfbf" points="436.5,-.5 436.5,-19.5 485.5,-19.5 485.5,-.5 436.5,-.5"/>
<text text-anchor="middle" x="461" y="-7.5" font-family="Helvetica,sans-Serif" font-size="10.00" fill="#000000">istream</text>
</a>
</g>
</g>
<!-- Node4&#45;&gt;Node10 -->
<g id="edge10" class="edge">
<title>Node4&#45;&gt;Node10</title>
<path fill="none" stroke="#191970" d="M432.0965,-56.2455C436.9145,-48.5367 443.7751,-37.5598 449.6032,-28.2348"/>
<polygon fill="#191970" stroke="#191970" points="452.6413,-29.9777 454.9733,-19.6427 446.7053,-26.2677 452.6413,-29.9777"/>
</g>
<!-- Node11 -->
<g id="node11" class="node">
<title>Node11</title>
<g id="a_node11"><a xlink:title=" ">
<polygon fill="#ffffff" stroke="#bfbfbf" points="503.5,-.5 503.5,-19.5 532.5,-19.5 532.5,-.5 503.5,-.5"/>
<text text-anchor="middle" x="518" y="-7.5" font-family="Helvetica,sans-Serif" font-size="10.00" fill="#000000">list</text>
</a>
</g>
</g>
<!-- Node4&#45;&gt;Node11 -->
<g id="edge11" class="edge">
<title>Node4&#45;&gt;Node11</title>
<path fill="none" stroke="#191970" d="M442.0252,-56.2455C456.4851,-47.4439 477.9442,-34.3818 494.3717,-24.3825"/>
<polygon fill="#191970" stroke="#191970" points="496.6493,-27.0935 503.3715,-18.9043 493.0097,-21.1141 496.6493,-27.0935"/>
</g>
<!-- Node12 -->
<g id="node12" class="node">
<title>Node12</title>
<g id="a_node12"><a xlink:title=" ">
<polygon fill="#ffffff" stroke="#bfbfbf" points="551,-.5 551,-19.5 603,-19.5 603,-.5 551,-.5"/>
<text text-anchor="middle" x="577" y="-7.5" font-family="Helvetica,sans-Serif" font-size="10.00" fill="#000000">memory</text>
</a>
</g>
</g>
<!-- Node4&#45;&gt;Node12 -->
<g id="edge12" class="edge">
<title>Node4&#45;&gt;Node12</title>
<path fill="none" stroke="#191970" d="M451.9578,-56.3733C476.7407,-47.1822 514.2746,-33.2624 541.754,-23.0713"/>
<polygon fill="#191970" stroke="#191970" points="543.2219,-26.26 551.3809,-19.5011 540.7879,-19.6968 543.2219,-26.26"/>
</g>
<!-- Node13 -->
<g id="node13" class="node">
<title>Node13</title>
<g id="a_node13"><a xlink:title=" ">
<polygon fill="#ffffff" stroke="#bfbfbf" points="621.5,-.5 621.5,-19.5 662.5,-19.5 662.5,-.5 621.5,-.5"/>
<text text-anchor="middle" x="642" y="-7.5" font-family="Helvetica,sans-Serif" font-size="10.00" fill="#000000">string</text>
</a>
</g>
</g>
<!-- Node4&#45;&gt;Node13 -->
<g id="edge13" class="edge">
<title>Node4&#45;&gt;Node13</title>
<path fill="none" stroke="#191970" d="M458.1306,-58.8695C493.4076,-50.8625 551.8998,-37.0646 611.4577,-19.9845"/>
<polygon fill="#191970" stroke="#191970" points="612.779,-23.2458 621.4106,-17.1019 610.8316,-16.5221 612.779,-23.2458"/>
</g>
<!-- Node14 -->
<g id="node14" class="node">
<title>Node14</title>
<g id="a_node14"><a xlink:title=" ">
<polygon fill="#ffffff" stroke="#bfbfbf" points="681,-.5 681,-19.5 747,-19.5 747,-.5 681,-.5"/>
<text text-anchor="middle" x="714" y="-7.5" font-family="Helvetica,sans-Serif" font-size="10.00" fill="#000000">string_view</text>
</a>
</g>
</g>
<!-- Node4&#45;&gt;Node14 -->
<g id="edge14" class="edge">
<title>Node4&#45;&gt;Node14</title>
<path fill="none" stroke="#191970" d="M458.336,-60.4729C503.6211,-52.6195 588.7268,-37.4498 670.5974,-20.2271"/>
<polygon fill="#191970" stroke="#191970" points="671.5047,-23.6127 680.5627,-18.1169 670.0545,-16.7645 671.5047,-23.6127"/>
</g>
<!-- Node15 -->
<g id="node15" class="node">
<title>Node15</title>
<g id="a_node15"><a xlink:title=" ">
<polygon fill="#ffffff" stroke="#bfbfbf" points="765,-.5 765,-19.5 809,-19.5 809,-.5 765,-.5"/>
<text text-anchor="middle" x="787" y="-7.5" font-family="Helvetica,sans-Serif" font-size="10.00" fill="#000000">thread</text>
</a>
</g>
</g>
<!-- Node4&#45;&gt;Node15 -->
<g id="edge15" class="edge">
<title>Node4&#45;&gt;Node15</title>
<path fill="none" stroke="#191970" d="M458.1917,-63.3824C515.9325,-58.2871 640.9612,-45.435 754.8502,-19.9401"/>
<polygon fill="#191970" stroke="#191970" points="755.8052,-23.3123 764.778,-17.6785 754.2503,-16.4871 755.8052,-23.3123"/>
</g>
<!-- Node16 -->
<g id="node16" class="node">
<title>Node16</title>
<g id="a_node16"><a xlink:title=" ">
<polygon fill="#ffffff" stroke="#bfbfbf" points="827,-.5 827,-19.5 871,-19.5 871,-.5 827,-.5"/>
<text text-anchor="middle" x="849" y="-7.5" font-family="Helvetica,sans-Serif" font-size="10.00" fill="#000000">vector</text>
</a>
</g>
</g>
<!-- Node4&#45;&gt;Node16 -->
<g id="edge16" class="edge">
<title>Node4&#45;&gt;Node16</title>
<path fill="none" stroke="#191970" d="M458.1056,-64.3585C523.899,-60.542 678.7837,-49.2347 816.8788,-19.8825"/>
<polygon fill="#191970" stroke="#191970" points="817.7575,-23.2734 826.7912,-17.7378 816.2772,-16.4317 817.7575,-23.2734"/>
</g>
</g>
</svg>
