<?xml version="1.0" encoding="UTF-8" standalone="no"?>
<!DOCTYPE svg PUBLIC "-//W3C//DTD SVG 1.1//EN"
 "http://www.w3.org/Graphics/SVG/1.1/DTD/svg11.dtd">
<!-- Generated by graphviz version 2.40.1 (20161225.0304)
 -->
<!-- Title: csvio::CSVReader&lt; RowContainer, LineReader, Parser &gt; Pages: 1 -->
<svg width="184pt" height="497pt"
 viewBox="0.00 0.00 183.50 497.00" xmlns="http://www.w3.org/2000/svg" xmlns:xlink="http://www.w3.org/1999/xlink">
<g id="graph0" class="graph" transform="scale(1 1) rotate(0) translate(4 493)">
<title>csvio::CSVReader&lt; RowContainer, LineReader, Parser &gt;</title>
<polygon fill="#ffffff" stroke="transparent" points="-4,4 -4,-493 179.5,-493 179.5,4 -4,4"/>
<!-- Node1 -->
<g id="node1" class="node">
<title>Node1</title>
<g id="a_node1"><a xlink:title="Reader to read a stream as CSV.">
<polygon fill="#bfbfbf" stroke="#000000" points="0,-.5 0,-277.5 173,-277.5 173,-.5 0,-.5"/>
<text text-anchor="start" x="8" y="-265.5" font-family="Helvetica,sans-Serif" font-size="10.00" fill="#000000">csvio::CSVReader&lt; RowContainer,</text>
<text text-anchor="middle" x="86.5" y="-254.5" font-family="Helvetica,sans-Serif" font-size="10.00" fill="#000000"> LineReader, Parser &gt;</text>
<polyline fill="none" stroke="#000000" points="0,-247.5 173,-247.5 "/>
<text text-anchor="start" x="8" y="-235.5" font-family="Helvetica,sans-Serif" font-size="10.00" fill="#000000"># m_csv_line_reader</text>
<text text-anchor="start" x="8" y="-224.5" font-family="Helvetica,sans-Serif" font-size="10.00" fill="#000000"># m_current</text>
<text text-anchor="start" x="8" y="-213.5" font-family="Helvetica,sans-Serif" font-size="10.00" fill="#000000"># m_delim</text>
<text text-anchor="start" x="8" y="-202.5" font-family="Helvetica,sans-Serif" font-size="10.00" fill="#000000"># m_has_header</text>
<text text-anchor="start" x="8" y="-191.5" font-family="Helvetica,sans-Serif" font-size="10.00" fill="#000000"># m_header_names</text>
<text text-anchor="start" x="8" y="-180.5" font-family="Helvetica,sans-Serif" font-size="10.00" fill="#000000"># m_num_columns</text>
<text text-anchor="start" x="8" y="-169.5" font-family="Helvetica,sans-Serif" font-size="10.00" fill="#000000"># m_parse_func</text>
<text text-anchor="start" x="8" y="-158.5" font-family="Helvetica,sans-Serif" font-size="10.00" fill="#000000"># m_warn_columns</text>
<polyline fill="none" stroke="#000000" points="0,-151.5 173,-151.5 "/>
<text text-anchor="start" x="8" y="-139.5" font-family="Helvetica,sans-Serif" font-size="10.00" fill="#000000">+ CSVReader()</text>
<text text-anchor="start" x="8" y="-128.5" font-family="Helvetica,sans-Serif" font-size="10.00" fill="#000000">+ begin()</text>
<text text-anchor="start" x="8" y="-117.5" font-family="Helvetica,sans-Serif" font-size="10.00" fill="#000000">+ current()</text>
<text text-anchor="start" x="8" y="-106.5" font-family="Helvetica,sans-Serif" font-size="10.00" fill="#000000">+ end()</text>
<text text-anchor="start" x="8" y="-95.5" font-family="Helvetica,sans-Serif" font-size="10.00" fill="#000000">+ get_delimiter()</text>
<text text-anchor="start" x="8" y="-84.5" font-family="Helvetica,sans-Serif" font-size="10.00" fill="#000000">+ get_header_names()</text>
<text text-anchor="start" x="8" y="-73.5" font-family="Helvetica,sans-Serif" font-size="10.00" fill="#000000">+ good()</text>
<text text-anchor="start" x="8" y="-62.5" font-family="Helvetica,sans-Serif" font-size="10.00" fill="#000000">+ lcount()</text>
<text text-anchor="start" x="8" y="-51.5" font-family="Helvetica,sans-Serif" font-size="10.00" fill="#000000">+ read()</text>
<text text-anchor="start" x="8" y="-40.5" font-family="Helvetica,sans-Serif" font-size="10.00" fill="#000000">+ set_delimiter()</text>
<text text-anchor="start" x="8" y="-29.5" font-family="Helvetica,sans-Serif" font-size="10.00" fill="#000000"># advance()</text>
<text text-anchor="start" x="8" y="-18.5" font-family="Helvetica,sans-Serif" font-size="10.00" fill="#000000"># handle_header()</text>
<text text-anchor="start" x="8" y="-7.5" font-family="Helvetica,sans-Serif" font-size="10.00" fill="#000000"># parse_current_str()</text>
</a>
</g>
</g>
<!-- Node2 -->
<g id="node2" class="node">
<title>Node2</title>
<g id="a_node2"><a xlink:title="STL class.">
<polygon fill="#ffffff" stroke="#bfbfbf" points="56.5,-325.5 56.5,-382.5 116.5,-382.5 116.5,-325.5 56.5,-325.5"/>
<text text-anchor="middle" x="86.5" y="-370.5" font-family="Helvetica,sans-Serif" font-size="10.00" fill="#000000">std::string</text>
<polyline fill="none" stroke="#bfbfbf" points="56.5,-363.5 116.5,-363.5 "/>
<text text-anchor="middle" x="86.5" y="-351.5" font-family="Helvetica,sans-Serif" font-size="10.00" fill="#000000"> </text>
<polyline fill="none" stroke="#bfbfbf" points="56.5,-344.5 116.5,-344.5 "/>
<text text-anchor="middle" x="86.5" y="-332.5" font-family="Helvetica,sans-Serif" font-size="10.00" fill="#000000"> </text>
</a>
</g>
</g>
<!-- Node2&#45;&gt;Node1 -->
<g id="edge1" class="edge">
<title>Node2&#45;&gt;Node1</title>
<path fill="none" stroke="#404040" d="M86.5,-325.4497C86.5,-315.3923 86.5,-303.2803 86.5,-290.1176"/>
<polygon fill="none" stroke="#404040" points="86.5001,-289.7628 82.5,-283.7629 86.5,-277.7628 90.5,-283.7628 86.5001,-289.7628"/>
<text text-anchor="middle" x="131" y="-299" font-family="Helvetica,sans-Serif" font-size="10.00" fill="#000000"> #m_current_str_line</text>
</g>
<!-- Node3 -->
<g id="node3" class="node">
<title>Node3</title>
<g id="a_node3"><a xlink:title="STL class.">
<polygon fill="#ffffff" stroke="#bfbfbf" points="39,-420.5 39,-488.5 134,-488.5 134,-420.5 39,-420.5"/>
<text text-anchor="start" x="47" y="-476.5" font-family="Helvetica,sans-Serif" font-size="10.00" fill="#000000">std::basic_string&lt;</text>
<text text-anchor="middle" x="86.5" y="-465.5" font-family="Helvetica,sans-Serif" font-size="10.00" fill="#000000"> char &gt;</text>
<polyline fill="none" stroke="#bfbfbf" points="39,-458.5 134,-458.5 "/>
<text text-anchor="middle" x="86.5" y="-446.5" font-family="Helvetica,sans-Serif" font-size="10.00" fill="#000000"> </text>
<polyline fill="none" stroke="#bfbfbf" points="39,-439.5 134,-439.5 "/>
<text text-anchor="middle" x="86.5" y="-427.5" font-family="Helvetica,sans-Serif" font-size="10.00" fill="#000000"> </text>
</a>
</g>
</g>
<!-- Node3&#45;&gt;Node2 -->
<g id="edge2" class="edge">
<title>Node3&#45;&gt;Node2</title>
<path fill="none" stroke="#191970" d="M86.5,-410.4301C86.5,-401.0073 86.5,-391.2901 86.5,-382.6312"/>
<polygon fill="none" stroke="#191970" points="83.0001,-410.4752 86.5,-420.4753 90.0001,-410.4753 83.0001,-410.4752"/>
</g>
</g>
</svg>
