<?xml version="1.0" encoding="UTF-8" standalone="no"?>
<!DOCTYPE svg PUBLIC "-//W3C//DTD SVG 1.1//EN"
 "http://www.w3.org/Graphics/SVG/1.1/DTD/svg11.dtd">
<!-- Generated by graphviz version 2.40.1 (20161225.0304)
 -->
<!-- Title: csvio::CSVMapReader&lt; RowMapContainer, LineReader, Parser, HeaderParser &gt; Pages: 1 -->
<svg width="282pt" height="579pt"
 viewBox="0.00 0.00 281.50 579.00" xmlns="http://www.w3.org/2000/svg" xmlns:xlink="http://www.w3.org/1999/xlink">
<g id="graph0" class="graph" transform="scale(1 1) rotate(0) translate(4 575)">
<title>csvio::CSVMapReader&lt; RowMapContainer, LineReader, Parser, HeaderParser &gt;</title>
<polygon fill="#ffffff" stroke="transparent" points="-4,4 -4,-575 277.5,-575 277.5,4 -4,4"/>
<!-- Node1 -->
<g id="node1" class="node">
<title>Node1</title>
<g id="a_node1"><a xlink:title="Reader to read a stream as CSV into a map like container.">
<polygon fill="#bfbfbf" stroke="#000000" points="48,-.5 48,-233.5 213,-233.5 213,-.5 48,-.5"/>
<text text-anchor="start" x="56" y="-221.5" font-family="Helvetica,sans-Serif" font-size="10.00" fill="#000000">csvio::CSVMapReader</text>
<text text-anchor="start" x="56" y="-210.5" font-family="Helvetica,sans-Serif" font-size="10.00" fill="#000000">&lt; RowMapContainer, LineReader,</text>
<text text-anchor="middle" x="130.5" y="-199.5" font-family="Helvetica,sans-Serif" font-size="10.00" fill="#000000"> Parser, HeaderParser &gt;</text>
<polyline fill="none" stroke="#000000" points="48,-192.5 213,-192.5 "/>
<text text-anchor="start" x="56" y="-180.5" font-family="Helvetica,sans-Serif" font-size="10.00" fill="#000000"># m_csv_line_reader</text>
<text text-anchor="start" x="56" y="-169.5" font-family="Helvetica,sans-Serif" font-size="10.00" fill="#000000"># m_current</text>
<text text-anchor="start" x="56" y="-158.5" font-family="Helvetica,sans-Serif" font-size="10.00" fill="#000000"># m_delim</text>
<text text-anchor="start" x="56" y="-147.5" font-family="Helvetica,sans-Serif" font-size="10.00" fill="#000000"># m_header_parse_func</text>
<text text-anchor="start" x="56" y="-136.5" font-family="Helvetica,sans-Serif" font-size="10.00" fill="#000000"># m_parse_func</text>
<polyline fill="none" stroke="#000000" points="48,-129.5 213,-129.5 "/>
<text text-anchor="start" x="56" y="-117.5" font-family="Helvetica,sans-Serif" font-size="10.00" fill="#000000">+ CSVMapReader()</text>
<text text-anchor="start" x="56" y="-106.5" font-family="Helvetica,sans-Serif" font-size="10.00" fill="#000000">+ current()</text>
<text text-anchor="start" x="56" y="-95.5" font-family="Helvetica,sans-Serif" font-size="10.00" fill="#000000">+ get_delimiter()</text>
<text text-anchor="start" x="56" y="-84.5" font-family="Helvetica,sans-Serif" font-size="10.00" fill="#000000">+ get_header_names()</text>
<text text-anchor="start" x="56" y="-73.5" font-family="Helvetica,sans-Serif" font-size="10.00" fill="#000000">+ good()</text>
<text text-anchor="start" x="56" y="-62.5" font-family="Helvetica,sans-Serif" font-size="10.00" fill="#000000">+ lcount()</text>
<text text-anchor="start" x="56" y="-51.5" font-family="Helvetica,sans-Serif" font-size="10.00" fill="#000000">+ read()</text>
<text text-anchor="start" x="56" y="-40.5" font-family="Helvetica,sans-Serif" font-size="10.00" fill="#000000">+ set_delimiter()</text>
<text text-anchor="start" x="56" y="-29.5" font-family="Helvetica,sans-Serif" font-size="10.00" fill="#000000"># advance()</text>
<text text-anchor="start" x="56" y="-18.5" font-family="Helvetica,sans-Serif" font-size="10.00" fill="#000000"># handle_header()</text>
<text text-anchor="start" x="56" y="-7.5" font-family="Helvetica,sans-Serif" font-size="10.00" fill="#000000"># parse_current_str()</text>
</a>
</g>
</g>
<!-- Node2 -->
<g id="node2" class="node">
<title>Node2</title>
<g id="a_node2"><a xlink:title="STL class.">
<polygon fill="#ffffff" stroke="#bfbfbf" points="135.5,-397.5 135.5,-454.5 195.5,-454.5 195.5,-397.5 135.5,-397.5"/>
<text text-anchor="middle" x="165.5" y="-442.5" font-family="Helvetica,sans-Serif" font-size="10.00" fill="#000000">std::string</text>
<polyline fill="none" stroke="#bfbfbf" points="135.5,-435.5 195.5,-435.5 "/>
<text text-anchor="middle" x="165.5" y="-423.5" font-family="Helvetica,sans-Serif" font-size="10.00" fill="#000000"> </text>
<polyline fill="none" stroke="#bfbfbf" points="135.5,-416.5 195.5,-416.5 "/>
<text text-anchor="middle" x="165.5" y="-404.5" font-family="Helvetica,sans-Serif" font-size="10.00" fill="#000000"> </text>
</a>
</g>
</g>
<!-- Node2&#45;&gt;Node1 -->
<g id="edge1" class="edge">
<title>Node2&#45;&gt;Node1</title>
<path fill="none" stroke="#404040" d="M172.84,-397.4595C180.6681,-362.816 190.7632,-302.7321 181.5,-252 181.1038,-249.8299 180.6745,-247.6494 180.2148,-245.4618"/>
<polygon fill="none" stroke="#404040" points="180.2009,-245.4016 174.946,-240.4634 177.4832,-233.7134 182.7381,-238.6516 180.2009,-245.4016"/>
<text text-anchor="middle" x="229" y="-318.5" font-family="Helvetica,sans-Serif" font-size="10.00" fill="#000000"> #m_current_str_line</text>
</g>
<!-- Node4 -->
<g id="node4" class="node">
<title>Node4</title>
<g id="a_node4"><a xlink:title=" ">
<polygon fill="#ffffff" stroke="#bfbfbf" points="4,-292.5 4,-349.5 129,-349.5 129,-292.5 4,-292.5"/>
<text text-anchor="middle" x="66.5" y="-337.5" font-family="Helvetica,sans-Serif" font-size="10.00" fill="#000000">std::vector&lt; std::string &gt;</text>
<polyline fill="none" stroke="#bfbfbf" points="4,-330.5 129,-330.5 "/>
<text text-anchor="middle" x="66.5" y="-318.5" font-family="Helvetica,sans-Serif" font-size="10.00" fill="#000000"> </text>
<polyline fill="none" stroke="#bfbfbf" points="4,-311.5 129,-311.5 "/>
<text text-anchor="middle" x="66.5" y="-299.5" font-family="Helvetica,sans-Serif" font-size="10.00" fill="#000000"> </text>
</a>
</g>
</g>
<!-- Node2&#45;&gt;Node4 -->
<g id="edge4" class="edge">
<title>Node2&#45;&gt;Node4</title>
<path fill="none" stroke="#404040" d="M138.4478,-397.3083C127.2071,-385.3863 114.007,-371.3862 102.0034,-358.6551"/>
<polygon fill="none" stroke="#404040" points="101.7517,-358.3881 94.7252,-356.7666 93.5195,-349.657 100.5459,-351.2785 101.7517,-358.3881"/>
<text text-anchor="middle" x="144" y="-371" font-family="Helvetica,sans-Serif" font-size="10.00" fill="#000000"> +elements</text>
</g>
<!-- Node3 -->
<g id="node3" class="node">
<title>Node3</title>
<g id="a_node3"><a xlink:title="STL class.">
<polygon fill="#ffffff" stroke="#bfbfbf" points="118,-502.5 118,-570.5 213,-570.5 213,-502.5 118,-502.5"/>
<text text-anchor="start" x="126" y="-558.5" font-family="Helvetica,sans-Serif" font-size="10.00" fill="#000000">std::basic_string&lt;</text>
<text text-anchor="middle" x="165.5" y="-547.5" font-family="Helvetica,sans-Serif" font-size="10.00" fill="#000000"> char &gt;</text>
<polyline fill="none" stroke="#bfbfbf" points="118,-540.5 213,-540.5 "/>
<text text-anchor="middle" x="165.5" y="-528.5" font-family="Helvetica,sans-Serif" font-size="10.00" fill="#000000"> </text>
<polyline fill="none" stroke="#bfbfbf" points="118,-521.5 213,-521.5 "/>
<text text-anchor="middle" x="165.5" y="-509.5" font-family="Helvetica,sans-Serif" font-size="10.00" fill="#000000"> </text>
</a>
</g>
</g>
<!-- Node3&#45;&gt;Node2 -->
<g id="edge2" class="edge">
<title>Node3&#45;&gt;Node2</title>
<path fill="none" stroke="#191970" d="M165.5,-492.0661C165.5,-479.4172 165.5,-465.9812 165.5,-454.5519"/>
<polygon fill="none" stroke="#191970" points="162.0001,-492.4447 165.5,-502.4447 169.0001,-492.4447 162.0001,-492.4447"/>
</g>
<!-- Node4&#45;&gt;Node1 -->
<g id="edge3" class="edge">
<title>Node4&#45;&gt;Node1</title>
<path fill="none" stroke="#404040" d="M64.2447,-292.479C63.9325,-279.92 64.499,-265.0782 67.5,-252 67.9989,-249.8257 68.5357,-247.6447 69.1073,-245.4599"/>
<polygon fill="none" stroke="#404040" points="69.1569,-245.2876 66.9736,-238.4149 72.4779,-233.7562 74.6612,-240.6289 69.1569,-245.2876"/>
<text text-anchor="start" x="67.5" y="-266" font-family="Helvetica,sans-Serif" font-size="10.00" fill="#000000"> #m_stream_order_header</text>
<text text-anchor="middle" x="124.5" y="-255" font-family="Helvetica,sans-Serif" font-size="10.00" fill="#000000">_names</text>
</g>
<!-- Node5 -->
<g id="node5" class="node">
<title>Node5</title>
<g id="a_node5"><a xlink:title="STL class.">
<polygon fill="#ffffff" stroke="#bfbfbf" points="0,-397.5 0,-454.5 87,-454.5 87,-397.5 0,-397.5"/>
<text text-anchor="middle" x="43.5" y="-442.5" font-family="Helvetica,sans-Serif" font-size="10.00" fill="#000000">std::vector&lt; T &gt;</text>
<polyline fill="none" stroke="#bfbfbf" points="0,-435.5 87,-435.5 "/>
<text text-anchor="middle" x="43.5" y="-423.5" font-family="Helvetica,sans-Serif" font-size="10.00" fill="#000000"> </text>
<polyline fill="none" stroke="#bfbfbf" points="0,-416.5 87,-416.5 "/>
<text text-anchor="middle" x="43.5" y="-404.5" font-family="Helvetica,sans-Serif" font-size="10.00" fill="#000000"> </text>
</a>
</g>
</g>
<!-- Node5&#45;&gt;Node4 -->
<g id="edge5" class="edge">
<title>Node5&#45;&gt;Node4</title>
<path fill="none" stroke="#ffa500" d="M41.9079,-387.3486C42.2816,-380.8327 43.0689,-374.1812 44.5,-368 45.9225,-361.8559 48.212,-355.5578 50.7879,-349.6493"/>
<polygon fill="#ffa500" stroke="#ffa500" points="38.4081,-387.2957 41.6281,-397.3894 45.4054,-387.4908 38.4081,-387.2957"/>
<text text-anchor="middle" x="77" y="-371" font-family="Helvetica,sans-Serif" font-size="10.00" fill="#000000"> &lt; std::string &gt;</text>
</g>
<!-- Node6 -->
<g id="node6" class="node">
<title>Node6</title>
<g id="a_node6"><a xlink:title=" ">
<polygon fill="#ffffff" stroke="#bfbfbf" points="29,-508 29,-565 58,-565 58,-508 29,-508"/>
<text text-anchor="middle" x="43.5" y="-553" font-family="Helvetica,sans-Serif" font-size="10.00" fill="#000000">T</text>
<polyline fill="none" stroke="#bfbfbf" points="29,-546 58,-546 "/>
<text text-anchor="middle" x="43.5" y="-534" font-family="Helvetica,sans-Serif" font-size="10.00" fill="#000000"> </text>
<polyline fill="none" stroke="#bfbfbf" points="29,-527 58,-527 "/>
<text text-anchor="middle" x="43.5" y="-515" font-family="Helvetica,sans-Serif" font-size="10.00" fill="#000000"> </text>
</a>
</g>
</g>
<!-- Node6&#45;&gt;Node5 -->
<g id="edge6" class="edge">
<title>Node6&#45;&gt;Node5</title>
<path fill="none" stroke="#404040" d="M43.5,-507.7559C43.5,-495.2224 43.5,-480.3039 43.5,-466.6631"/>
<polygon fill="none" stroke="#404040" points="43.5001,-466.6002 39.5,-460.6002 43.5,-454.6002 47.5,-460.6002 43.5001,-466.6002"/>
<text text-anchor="middle" x="68" y="-476" font-family="Helvetica,sans-Serif" font-size="10.00" fill="#000000"> +elements</text>
</g>
</g>
</svg>
