<?xml version="1.0" encoding="UTF-8" standalone="no"?>
<!DOCTYPE svg PUBLIC "-//W3C//DTD SVG 1.1//EN"
 "http://www.w3.org/Graphics/SVG/1.1/DTD/svg11.dtd">
<!-- Generated by graphviz version 2.40.1 (20161225.0304)
 -->
<!-- Title: csvio::CSVWriter::write Pages: 1 -->
<svg width="268pt" height="66pt"
 viewBox="0.00 0.00 268.00 66.00" xmlns="http://www.w3.org/2000/svg" xmlns:xlink="http://www.w3.org/1999/xlink">
<g id="graph0" class="graph" transform="scale(1 1) rotate(0) translate(4 62)">
<title>csvio::CSVWriter::write</title>
<polygon fill="#ffffff" stroke="transparent" points="-4,4 -4,-62 264,-62 264,4 -4,4"/>
<!-- Node1 -->
<g id="node1" class="node">
<title>Node1</title>
<g id="a_node1"><a xlink:title="write a csv row, may set initial number of columns">
<polygon fill="#bfbfbf" stroke="#000000" points="140,-19.5 140,-38.5 260,-38.5 260,-19.5 140,-19.5"/>
<text text-anchor="middle" x="200" y="-26.5" font-family="Helvetica,sans-Serif" font-size="10.00" fill="#000000">csvio::CSVWriter::write</text>
</a>
</g>
</g>
<!-- Node2 -->
<g id="node2" class="node">
<title>Node2</title>
<g id="a_node2"><a xlink:href="benchmark__csv__write__lines_8cpp.html#a8fd433443660170fe3bc361bdf768fc8" target="_top" xlink:title=" ">
<polygon fill="#ffffff" stroke="#000000" points="0,-38.5 0,-57.5 104,-57.5 104,-38.5 0,-38.5"/>
<text text-anchor="middle" x="52" y="-45.5" font-family="Helvetica,sans-Serif" font-size="10.00" fill="#000000">BM_CSVWriteLines</text>
</a>
</g>
</g>
<!-- Node1&#45;&gt;Node2 -->
<g id="edge1" class="edge">
<title>Node1&#45;&gt;Node2</title>
<path fill="none" stroke="#191970" d="M129.7214,-38.0223C121.083,-39.1312 112.3767,-40.2489 104.0752,-41.3147"/>
<polygon fill="#191970" stroke="#191970" points="130.3298,-41.473 139.8027,-36.728 129.4384,-34.5299 130.3298,-41.473"/>
</g>
<!-- Node3 -->
<g id="node3" class="node">
<title>Node3</title>
<g id="a_node3"><a xlink:href="line__write__throughput_8cpp.html#ae66f6b31b5ad750f1fe042a706a4e3d4" target="_top" xlink:title=" ">
<polygon fill="#ffffff" stroke="#000000" points="33,-.5 33,-19.5 71,-19.5 71,-.5 33,-.5"/>
<text text-anchor="middle" x="52" y="-7.5" font-family="Helvetica,sans-Serif" font-size="10.00" fill="#000000">main</text>
</a>
</g>
</g>
<!-- Node1&#45;&gt;Node3 -->
<g id="edge2" class="edge">
<title>Node1&#45;&gt;Node3</title>
<path fill="none" stroke="#191970" d="M129.67,-19.9712C108.2173,-17.2171 86.3522,-14.4101 71.3104,-12.479"/>
<polygon fill="#191970" stroke="#191970" points="129.4384,-23.4701 139.8027,-21.272 130.3298,-16.527 129.4384,-23.4701"/>
</g>
</g>
</svg>
