<?xml version="1.0" encoding="UTF-8" standalone="no"?>
<!DOCTYPE svg PUBLIC "-//W3C//DTD SVG 1.1//EN"
 "http://www.w3.org/Graphics/SVG/1.1/DTD/svg11.dtd">
<!-- Generated by graphviz version 2.40.1 (20161225.0304)
 -->
<!-- Title: csvio::CSVReader&lt; RowContainer, LineReader &gt; Pages: 1 -->
<svg width="184pt" height="464pt"
 viewBox="0.00 0.00 183.50 464.00" xmlns="http://www.w3.org/2000/svg" xmlns:xlink="http://www.w3.org/1999/xlink">
<g id="graph0" class="graph" transform="scale(1 1) rotate(0) translate(4 460)">
<title>csvio::CSVReader&lt; RowContainer, LineReader &gt;</title>
<polygon fill="#ffffff" stroke="transparent" points="-4,4 -4,-460 179.5,-460 179.5,4 -4,4"/>
<!-- Node1 -->
<g id="node1" class="node">
<title>Node1</title>
<g id="a_node1"><a xlink:title="Reader to read a stream as CSV.">
<polygon fill="#bfbfbf" stroke="#000000" points="0,-.5 0,-244.5 173,-244.5 173,-.5 0,-.5"/>
<text text-anchor="start" x="8" y="-232.5" font-family="Helvetica,sans-Serif" font-size="10.00" fill="#000000">csvio::CSVReader&lt; RowContainer,</text>
<text text-anchor="middle" x="86.5" y="-221.5" font-family="Helvetica,sans-Serif" font-size="10.00" fill="#000000"> LineReader &gt;</text>
<polyline fill="none" stroke="#000000" points="0,-214.5 173,-214.5 "/>
<text text-anchor="start" x="8" y="-202.5" font-family="Helvetica,sans-Serif" font-size="10.00" fill="#000000"># m_csv_line_reader</text>
<text text-anchor="start" x="8" y="-191.5" font-family="Helvetica,sans-Serif" font-size="10.00" fill="#000000"># m_current</text>
<text text-anchor="start" x="8" y="-180.5" font-family="Helvetica,sans-Serif" font-size="10.00" fill="#000000"># m_delim</text>
<text text-anchor="start" x="8" y="-169.5" font-family="Helvetica,sans-Serif" font-size="10.00" fill="#000000"># m_has_header</text>
<text text-anchor="start" x="8" y="-158.5" font-family="Helvetica,sans-Serif" font-size="10.00" fill="#000000"># m_header_names</text>
<text text-anchor="start" x="8" y="-147.5" font-family="Helvetica,sans-Serif" font-size="10.00" fill="#000000"># m_num_columns</text>
<text text-anchor="start" x="8" y="-136.5" font-family="Helvetica,sans-Serif" font-size="10.00" fill="#000000"># m_parse_func</text>
<text text-anchor="start" x="8" y="-125.5" font-family="Helvetica,sans-Serif" font-size="10.00" fill="#000000"># m_strict_columns</text>
<polyline fill="none" stroke="#000000" points="0,-118.5 173,-118.5 "/>
<text text-anchor="start" x="8" y="-106.5" font-family="Helvetica,sans-Serif" font-size="10.00" fill="#000000">+ CSVReader()</text>
<text text-anchor="start" x="8" y="-95.5" font-family="Helvetica,sans-Serif" font-size="10.00" fill="#000000">+ current()</text>
<text text-anchor="start" x="8" y="-84.5" font-family="Helvetica,sans-Serif" font-size="10.00" fill="#000000">+ get_delimiter()</text>
<text text-anchor="start" x="8" y="-73.5" font-family="Helvetica,sans-Serif" font-size="10.00" fill="#000000">+ get_header_names()</text>
<text text-anchor="start" x="8" y="-62.5" font-family="Helvetica,sans-Serif" font-size="10.00" fill="#000000">+ good()</text>
<text text-anchor="start" x="8" y="-51.5" font-family="Helvetica,sans-Serif" font-size="10.00" fill="#000000">+ read()</text>
<text text-anchor="start" x="8" y="-40.5" font-family="Helvetica,sans-Serif" font-size="10.00" fill="#000000">+ set_delimiter()</text>
<text text-anchor="start" x="8" y="-29.5" font-family="Helvetica,sans-Serif" font-size="10.00" fill="#000000"># advance()</text>
<text text-anchor="start" x="8" y="-18.5" font-family="Helvetica,sans-Serif" font-size="10.00" fill="#000000"># handle_header()</text>
<text text-anchor="start" x="8" y="-7.5" font-family="Helvetica,sans-Serif" font-size="10.00" fill="#000000"># parse_current_str()</text>
</a>
</g>
</g>
<!-- Node2 -->
<g id="node2" class="node">
<title>Node2</title>
<g id="a_node2"><a xlink:title="STL class.">
<polygon fill="#ffffff" stroke="#bfbfbf" points="56.5,-292.5 56.5,-349.5 116.5,-349.5 116.5,-292.5 56.5,-292.5"/>
<text text-anchor="middle" x="86.5" y="-337.5" font-family="Helvetica,sans-Serif" font-size="10.00" fill="#000000">std::string</text>
<polyline fill="none" stroke="#bfbfbf" points="56.5,-330.5 116.5,-330.5 "/>
<text text-anchor="middle" x="86.5" y="-318.5" font-family="Helvetica,sans-Serif" font-size="10.00" fill="#000000"> </text>
<polyline fill="none" stroke="#bfbfbf" points="56.5,-311.5 116.5,-311.5 "/>
<text text-anchor="middle" x="86.5" y="-299.5" font-family="Helvetica,sans-Serif" font-size="10.00" fill="#000000"> </text>
</a>
</g>
</g>
<!-- Node2&#45;&gt;Node1 -->
<g id="edge1" class="edge">
<title>Node2&#45;&gt;Node1</title>
<path fill="none" stroke="#404040" d="M86.5,-292.1364C86.5,-282.0104 86.5,-269.8706 86.5,-256.8003"/>
<polygon fill="none" stroke="#404040" points="86.5001,-256.5664 82.5,-250.5664 86.5,-244.5664 90.5,-250.5663 86.5001,-256.5664"/>
<text text-anchor="middle" x="131" y="-266" font-family="Helvetica,sans-Serif" font-size="10.00" fill="#000000"> #m_current_str_line</text>
</g>
<!-- Node3 -->
<g id="node3" class="node">
<title>Node3</title>
<g id="a_node3"><a xlink:title="STL class.">
<polygon fill="#ffffff" stroke="#bfbfbf" points="39,-387.5 39,-455.5 134,-455.5 134,-387.5 39,-387.5"/>
<text text-anchor="start" x="47" y="-443.5" font-family="Helvetica,sans-Serif" font-size="10.00" fill="#000000">std::basic_string&lt;</text>
<text text-anchor="middle" x="86.5" y="-432.5" font-family="Helvetica,sans-Serif" font-size="10.00" fill="#000000"> char &gt;</text>
<polyline fill="none" stroke="#bfbfbf" points="39,-425.5 134,-425.5 "/>
<text text-anchor="middle" x="86.5" y="-413.5" font-family="Helvetica,sans-Serif" font-size="10.00" fill="#000000"> </text>
<polyline fill="none" stroke="#bfbfbf" points="39,-406.5 134,-406.5 "/>
<text text-anchor="middle" x="86.5" y="-394.5" font-family="Helvetica,sans-Serif" font-size="10.00" fill="#000000"> </text>
</a>
</g>
</g>
<!-- Node3&#45;&gt;Node2 -->
<g id="edge2" class="edge">
<title>Node3&#45;&gt;Node2</title>
<path fill="none" stroke="#191970" d="M86.5,-377.4301C86.5,-368.0073 86.5,-358.2901 86.5,-349.6312"/>
<polygon fill="none" stroke="#191970" points="83.0001,-377.4752 86.5,-387.4753 90.0001,-377.4753 83.0001,-377.4752"/>
</g>
</g>
</svg>
