<?xml version="1.0" encoding="UTF-8" standalone="no"?>
<!DOCTYPE svg PUBLIC "-//W3C//DTD SVG 1.1//EN"
 "http://www.w3.org/Graphics/SVG/1.1/DTD/svg11.dtd">
<!-- Generated by graphviz version 2.40.1 (20161225.0304)
 -->
<!-- Title: csvio::CSVWriter&lt; RowContainer, LineWriter &gt; Pages: 1 -->
<svg width="178pt" height="398pt"
 viewBox="0.00 0.00 177.50 398.00" xmlns="http://www.w3.org/2000/svg" xmlns:xlink="http://www.w3.org/1999/xlink">
<g id="graph0" class="graph" transform="scale(1 1) rotate(0) translate(4 394)">
<title>csvio::CSVWriter&lt; RowContainer, LineWriter &gt;</title>
<polygon fill="#ffffff" stroke="transparent" points="-4,4 -4,-394 173.5,-394 173.5,4 -4,4"/>
<!-- Node1 -->
<g id="node1" class="node">
<title>Node1</title>
<g id="a_node1"><a xlink:title="Writes data as csv.">
<polygon fill="#bfbfbf" stroke="#000000" points="0,-.5 0,-178.5 167,-178.5 167,-.5 0,-.5"/>
<text text-anchor="start" x="8" y="-166.5" font-family="Helvetica,sans-Serif" font-size="10.00" fill="#000000">csvio::CSVWriter&lt; RowContainer,</text>
<text text-anchor="middle" x="83.5" y="-155.5" font-family="Helvetica,sans-Serif" font-size="10.00" fill="#000000"> LineWriter &gt;</text>
<polyline fill="none" stroke="#000000" points="0,-148.5 167,-148.5 "/>
<text text-anchor="start" x="8" y="-136.5" font-family="Helvetica,sans-Serif" font-size="10.00" fill="#000000"># m_csv_line_writer</text>
<text text-anchor="start" x="8" y="-125.5" font-family="Helvetica,sans-Serif" font-size="10.00" fill="#000000"># m_csv_output_formatter</text>
<text text-anchor="start" x="8" y="-114.5" font-family="Helvetica,sans-Serif" font-size="10.00" fill="#000000"># m_delim</text>
<text text-anchor="start" x="8" y="-103.5" font-family="Helvetica,sans-Serif" font-size="10.00" fill="#000000"># m_num_columns</text>
<text text-anchor="start" x="8" y="-92.5" font-family="Helvetica,sans-Serif" font-size="10.00" fill="#000000"># m_warn_columns</text>
<polyline fill="none" stroke="#000000" points="0,-85.5 167,-85.5 "/>
<text text-anchor="start" x="8" y="-73.5" font-family="Helvetica,sans-Serif" font-size="10.00" fill="#000000">+ CSVWriter()</text>
<text text-anchor="start" x="8" y="-62.5" font-family="Helvetica,sans-Serif" font-size="10.00" fill="#000000">+ get_delimiter()</text>
<text text-anchor="start" x="8" y="-51.5" font-family="Helvetica,sans-Serif" font-size="10.00" fill="#000000">+ good()</text>
<text text-anchor="start" x="8" y="-40.5" font-family="Helvetica,sans-Serif" font-size="10.00" fill="#000000">+ lcount()</text>
<text text-anchor="start" x="8" y="-29.5" font-family="Helvetica,sans-Serif" font-size="10.00" fill="#000000">+ set_delimiter()</text>
<text text-anchor="start" x="8" y="-18.5" font-family="Helvetica,sans-Serif" font-size="10.00" fill="#000000">+ write()</text>
<text text-anchor="start" x="8" y="-7.5" font-family="Helvetica,sans-Serif" font-size="10.00" fill="#000000">+ write_header()</text>
</a>
</g>
</g>
<!-- Node2 -->
<g id="node2" class="node">
<title>Node2</title>
<g id="a_node2"><a xlink:title="STL class.">
<polygon fill="#ffffff" stroke="#bfbfbf" points="53.5,-226.5 53.5,-283.5 113.5,-283.5 113.5,-226.5 53.5,-226.5"/>
<text text-anchor="middle" x="83.5" y="-271.5" font-family="Helvetica,sans-Serif" font-size="10.00" fill="#000000">std::string</text>
<polyline fill="none" stroke="#bfbfbf" points="53.5,-264.5 113.5,-264.5 "/>
<text text-anchor="middle" x="83.5" y="-252.5" font-family="Helvetica,sans-Serif" font-size="10.00" fill="#000000"> </text>
<polyline fill="none" stroke="#bfbfbf" points="53.5,-245.5 113.5,-245.5 "/>
<text text-anchor="middle" x="83.5" y="-233.5" font-family="Helvetica,sans-Serif" font-size="10.00" fill="#000000"> </text>
</a>
</g>
</g>
<!-- Node2&#45;&gt;Node1 -->
<g id="edge1" class="edge">
<title>Node2&#45;&gt;Node1</title>
<path fill="none" stroke="#404040" d="M83.5,-226.1721C83.5,-215.9957 83.5,-203.8923 83.5,-191.1577"/>
<polygon fill="none" stroke="#404040" points="83.5001,-190.7971 79.5,-184.7972 83.5,-178.7971 87.5,-184.7971 83.5001,-190.7971"/>
<text text-anchor="middle" x="126.5" y="-200" font-family="Helvetica,sans-Serif" font-size="10.00" fill="#000000"> #m_line_terminator</text>
</g>
<!-- Node3 -->
<g id="node3" class="node">
<title>Node3</title>
<g id="a_node3"><a xlink:title="STL class.">
<polygon fill="#ffffff" stroke="#bfbfbf" points="36,-321.5 36,-389.5 131,-389.5 131,-321.5 36,-321.5"/>
<text text-anchor="start" x="44" y="-377.5" font-family="Helvetica,sans-Serif" font-size="10.00" fill="#000000">std::basic_string&lt;</text>
<text text-anchor="middle" x="83.5" y="-366.5" font-family="Helvetica,sans-Serif" font-size="10.00" fill="#000000"> char &gt;</text>
<polyline fill="none" stroke="#bfbfbf" points="36,-359.5 131,-359.5 "/>
<text text-anchor="middle" x="83.5" y="-347.5" font-family="Helvetica,sans-Serif" font-size="10.00" fill="#000000"> </text>
<polyline fill="none" stroke="#bfbfbf" points="36,-340.5 131,-340.5 "/>
<text text-anchor="middle" x="83.5" y="-328.5" font-family="Helvetica,sans-Serif" font-size="10.00" fill="#000000"> </text>
</a>
</g>
</g>
<!-- Node3&#45;&gt;Node2 -->
<g id="edge2" class="edge">
<title>Node3&#45;&gt;Node2</title>
<path fill="none" stroke="#191970" d="M83.5,-311.4301C83.5,-302.0073 83.5,-292.2901 83.5,-283.6312"/>
<polygon fill="none" stroke="#191970" points="80.0001,-311.4752 83.5,-321.4753 87.0001,-311.4753 80.0001,-311.4752"/>
</g>
</g>
</svg>
