<?xml version="1.0" encoding="UTF-8" standalone="no"?>
<!DOCTYPE svg PUBLIC "-//W3C//DTD SVG 1.1//EN"
 "http://www.w3.org/Graphics/SVG/1.1/DTD/svg11.dtd">
<!-- Generated by graphviz version 2.40.1 (20161225.0304)
 -->
<!-- Title: include/csv_io.hpp Pages: 1 -->
<svg width="1250pt" height="95pt"
 viewBox="0.00 0.00 1250.00 95.00" xmlns="http://www.w3.org/2000/svg" xmlns:xlink="http://www.w3.org/1999/xlink">
<g id="graph0" class="graph" transform="scale(1 1) rotate(0) translate(4 91)">
<title>include/csv_io.hpp</title>
<polygon fill="#ffffff" stroke="transparent" points="-4,4 -4,-91 1246,-91 1246,4 -4,4"/>
<!-- Node1 -->
<g id="node1" class="node">
<title>Node1</title>
<g id="a_node1"><a xlink:title=" ">
<polygon fill="#bfbfbf" stroke="#000000" points="552,-67.5 552,-86.5 650,-86.5 650,-67.5 552,-67.5"/>
<text text-anchor="middle" x="601" y="-74.5" font-family="Helvetica,sans-Serif" font-size="10.00" fill="#000000">include/csv_io.hpp</text>
</a>
</g>
</g>
<!-- Node2 -->
<g id="node2" class="node">
<title>Node2</title>
<g id="a_node2"><a xlink:href="test__csv__input__parser_8cpp.html" target="_top" xlink:title=" ">
<polygon fill="#ffffff" stroke="#000000" points="0,-.5 0,-30.5 116,-30.5 116,-.5 0,-.5"/>
<text text-anchor="start" x="8" y="-18.5" font-family="Helvetica,sans-Serif" font-size="10.00" fill="#000000">test/src/test_csv_input</text>
<text text-anchor="middle" x="58" y="-7.5" font-family="Helvetica,sans-Serif" font-size="10.00" fill="#000000">_parser.cpp</text>
</a>
</g>
</g>
<!-- Node1&#45;&gt;Node2 -->
<g id="edge1" class="edge">
<title>Node1&#45;&gt;Node2</title>
<path fill="none" stroke="#191970" d="M541.6777,-73.7716C451.3042,-68.2899 273.9204,-55.3142 125,-31 122.0542,-30.519 119.0448,-29.9842 116.0123,-29.4106"/>
<polygon fill="#191970" stroke="#191970" points="541.5413,-77.2696 551.7322,-74.3723 541.9587,-70.2821 541.5413,-77.2696"/>
</g>
<!-- Node3 -->
<g id="node3" class="node">
<title>Node3</title>
<g id="a_node3"><a xlink:href="test__csv__line__reader_8cpp.html" target="_top" xlink:title=" ">
<polygon fill="#ffffff" stroke="#000000" points="134,-.5 134,-30.5 244,-30.5 244,-.5 134,-.5"/>
<text text-anchor="start" x="142" y="-18.5" font-family="Helvetica,sans-Serif" font-size="10.00" fill="#000000">test/src/test_csv_line</text>
<text text-anchor="middle" x="189" y="-7.5" font-family="Helvetica,sans-Serif" font-size="10.00" fill="#000000">_reader.cpp</text>
</a>
</g>
</g>
<!-- Node1&#45;&gt;Node3 -->
<g id="edge2" class="edge">
<title>Node1&#45;&gt;Node3</title>
<path fill="none" stroke="#191970" d="M541.4385,-71.0737C471.8979,-63.7052 353.5741,-49.7712 253,-31 250.0781,-30.4546 247.0895,-29.8602 244.0779,-29.2322"/>
<polygon fill="#191970" stroke="#191970" points="541.4427,-74.5932 551.7534,-72.1563 542.1734,-67.6315 541.4427,-74.5932"/>
</g>
<!-- Node4 -->
<g id="node4" class="node">
<title>Node4</title>
<g id="a_node4"><a xlink:href="test__csv__line__writer_8cpp.html" target="_top" xlink:title=" ">
<polygon fill="#ffffff" stroke="#000000" points="262,-.5 262,-30.5 372,-30.5 372,-.5 262,-.5"/>
<text text-anchor="start" x="270" y="-18.5" font-family="Helvetica,sans-Serif" font-size="10.00" fill="#000000">test/src/test_csv_line</text>
<text text-anchor="middle" x="317" y="-7.5" font-family="Helvetica,sans-Serif" font-size="10.00" fill="#000000">_writer.cpp</text>
</a>
</g>
</g>
<!-- Node1&#45;&gt;Node4 -->
<g id="edge3" class="edge">
<title>Node1&#45;&gt;Node4</title>
<path fill="none" stroke="#191970" d="M543.2347,-65.4393C498.799,-56.4211 435.9121,-43.3871 381,-31 378.1005,-30.3459 375.1297,-29.6648 372.1322,-28.9689"/>
<polygon fill="#191970" stroke="#191970" points="542.7745,-68.9171 553.2702,-67.4714 544.1638,-62.0563 542.7745,-68.9171"/>
</g>
<!-- Node5 -->
<g id="node5" class="node">
<title>Node5</title>
<g id="a_node5"><a xlink:href="test__csv__output__formatter_8cpp.html" target="_top" xlink:title=" ">
<polygon fill="#ffffff" stroke="#000000" points="390,-.5 390,-30.5 512,-30.5 512,-.5 390,-.5"/>
<text text-anchor="start" x="398" y="-18.5" font-family="Helvetica,sans-Serif" font-size="10.00" fill="#000000">test/src/test_csv_output</text>
<text text-anchor="middle" x="451" y="-7.5" font-family="Helvetica,sans-Serif" font-size="10.00" fill="#000000">_formatter.cpp</text>
</a>
</g>
</g>
<!-- Node1&#45;&gt;Node5 -->
<g id="edge4" class="edge">
<title>Node1&#45;&gt;Node5</title>
<path fill="none" stroke="#191970" d="M568.26,-63.5766C544.4952,-53.833 512.3268,-40.644 487.6941,-30.5446"/>
<polygon fill="#191970" stroke="#191970" points="566.9822,-66.8354 577.5625,-67.3906 569.6377,-60.3586 566.9822,-66.8354"/>
</g>
<!-- Node6 -->
<g id="node6" class="node">
<title>Node6</title>
<g id="a_node6"><a xlink:href="test__csv__reader_8cpp.html" target="_top" xlink:title=" ">
<polygon fill="#ffffff" stroke="#000000" points="530.5,-6 530.5,-25 671.5,-25 671.5,-6 530.5,-6"/>
<text text-anchor="middle" x="601" y="-13" font-family="Helvetica,sans-Serif" font-size="10.00" fill="#000000">test/src/test_csv_reader.cpp</text>
</a>
</g>
</g>
<!-- Node1&#45;&gt;Node6 -->
<g id="edge5" class="edge">
<title>Node1&#45;&gt;Node6</title>
<path fill="none" stroke="#191970" d="M601,-57.2462C601,-46.5519 601,-33.814 601,-25.2449"/>
<polygon fill="#191970" stroke="#191970" points="597.5001,-57.3906 601,-67.3906 604.5001,-57.3907 597.5001,-57.3906"/>
</g>
<!-- Node7 -->
<g id="node7" class="node">
<title>Node7</title>
<g id="a_node7"><a xlink:href="test__csv__reader__ifstream_8cpp.html" target="_top" xlink:title=" ">
<polygon fill="#ffffff" stroke="#000000" points="690,-.5 690,-30.5 812,-30.5 812,-.5 690,-.5"/>
<text text-anchor="start" x="698" y="-18.5" font-family="Helvetica,sans-Serif" font-size="10.00" fill="#000000">test/src/test_csv_reader</text>
<text text-anchor="middle" x="751" y="-7.5" font-family="Helvetica,sans-Serif" font-size="10.00" fill="#000000">_ifstream.cpp</text>
</a>
</g>
</g>
<!-- Node1&#45;&gt;Node7 -->
<g id="edge6" class="edge">
<title>Node1&#45;&gt;Node7</title>
<path fill="none" stroke="#191970" d="M633.74,-63.5766C657.5048,-53.833 689.6732,-40.644 714.3059,-30.5446"/>
<polygon fill="#191970" stroke="#191970" points="632.3623,-60.3586 624.4375,-67.3906 635.0178,-66.8354 632.3623,-60.3586"/>
</g>
<!-- Node8 -->
<g id="node8" class="node">
<title>Node8</title>
<g id="a_node8"><a xlink:href="test__csv__writer_8cpp.html" target="_top" xlink:title=" ">
<polygon fill="#ffffff" stroke="#000000" points="830,-6 830,-25 968,-25 968,-6 830,-6"/>
<text text-anchor="middle" x="899" y="-13" font-family="Helvetica,sans-Serif" font-size="10.00" fill="#000000">test/src/test_csv_writer.cpp</text>
</a>
</g>
</g>
<!-- Node1&#45;&gt;Node8 -->
<g id="edge7" class="edge">
<title>Node1&#45;&gt;Node8</title>
<path fill="none" stroke="#191970" d="M657.0846,-65.4255C713.6232,-53.7573 799.8662,-35.9588 852.656,-25.0643"/>
<polygon fill="#191970" stroke="#191970" points="656.3217,-62.0091 647.2355,-67.4581 657.7366,-68.8646 656.3217,-62.0091"/>
</g>
<!-- Node9 -->
<g id="node9" class="node">
<title>Node9</title>
<g id="a_node9"><a xlink:href="test__escape__utils_8cpp.html" target="_top" xlink:title=" ">
<polygon fill="#ffffff" stroke="#000000" points="986,-.5 986,-30.5 1092,-30.5 1092,-.5 986,-.5"/>
<text text-anchor="start" x="994" y="-18.5" font-family="Helvetica,sans-Serif" font-size="10.00" fill="#000000">test/src/test_escape</text>
<text text-anchor="middle" x="1039" y="-7.5" font-family="Helvetica,sans-Serif" font-size="10.00" fill="#000000">_utils.cpp</text>
</a>
</g>
</g>
<!-- Node1&#45;&gt;Node9 -->
<g id="edge8" class="edge">
<title>Node1&#45;&gt;Node9</title>
<path fill="none" stroke="#191970" d="M660.3788,-72.0156C734.7767,-65.2482 865.9912,-51.5855 977,-31 979.9455,-30.4538 982.9593,-29.8504 985.9943,-29.2079"/>
<polygon fill="#191970" stroke="#191970" points="659.9124,-68.5433 650.266,-72.9247 660.5393,-75.5152 659.9124,-68.5433"/>
</g>
<!-- Node10 -->
<g id="node10" class="node">
<title>Node10</title>
<g id="a_node10"><a xlink:href="benchmark__csv__write_8cpp.html" target="_top" xlink:title=" ">
<polygon fill="#ffffff" stroke="#000000" points="1110,-.5 1110,-30.5 1242,-30.5 1242,-.5 1110,-.5"/>
<text text-anchor="start" x="1118" y="-18.5" font-family="Helvetica,sans-Serif" font-size="10.00" fill="#000000">benchmark/src/benchmark</text>
<text text-anchor="middle" x="1176" y="-7.5" font-family="Helvetica,sans-Serif" font-size="10.00" fill="#000000">_csv_write.cpp</text>
</a>
</g>
</g>
<!-- Node1&#45;&gt;Node10 -->
<g id="edge9" class="edge">
<title>Node1&#45;&gt;Node10</title>
<path fill="none" stroke="#191970" d="M660.3438,-73.6992C754.2462,-67.9914 942.6818,-54.5664 1101,-31 1103.8932,-30.5693 1106.8431,-30.0982 1109.8185,-29.5968"/>
<polygon fill="#191970" stroke="#191970" points="659.9608,-70.2158 650.1884,-74.3087 660.3802,-77.2032 659.9608,-70.2158"/>
</g>
</g>
</svg>
