<?xml version="1.0" encoding="UTF-8" standalone="no"?>
<!DOCTYPE svg PUBLIC "-//W3C//DTD SVG 1.1//EN"
 "http://www.w3.org/Graphics/SVG/1.1/DTD/svg11.dtd">
<!-- Generated by graphviz version 2.40.1 (20161225.0304)
 -->
<!-- Title: include/csv_io.hpp Pages: 1 -->
<svg width="1110pt" height="95pt"
 viewBox="0.00 0.00 1110.00 95.00" xmlns="http://www.w3.org/2000/svg" xmlns:xlink="http://www.w3.org/1999/xlink">
<g id="graph0" class="graph" transform="scale(1 1) rotate(0) translate(4 91)">
<title>include/csv_io.hpp</title>
<polygon fill="#ffffff" stroke="transparent" points="-4,4 -4,-91 1106,-91 1106,4 -4,4"/>
<!-- Node1 -->
<g id="node1" class="node">
<title>Node1</title>
<g id="a_node1"><a xlink:title=" ">
<polygon fill="#bfbfbf" stroke="#000000" points="477,-67.5 477,-86.5 575,-86.5 575,-67.5 477,-67.5"/>
<text text-anchor="middle" x="526" y="-74.5" font-family="Helvetica,sans-Serif" font-size="10.00" fill="#000000">include/csv_io.hpp</text>
</a>
</g>
</g>
<!-- Node2 -->
<g id="node2" class="node">
<title>Node2</title>
<g id="a_node2"><a xlink:href="test__csv__input__parser_8cpp.html" target="_top" xlink:title=" ">
<polygon fill="#ffffff" stroke="#000000" points="0,-.5 0,-30.5 116,-30.5 116,-.5 0,-.5"/>
<text text-anchor="start" x="8" y="-18.5" font-family="Helvetica,sans-Serif" font-size="10.00" fill="#000000">test/src/test_csv_input</text>
<text text-anchor="middle" x="58" y="-7.5" font-family="Helvetica,sans-Serif" font-size="10.00" fill="#000000">_parser.cpp</text>
</a>
</g>
</g>
<!-- Node1&#45;&gt;Node2 -->
<g id="edge1" class="edge">
<title>Node1&#45;&gt;Node2</title>
<path fill="none" stroke="#191970" d="M466.8034,-72.3188C388.3022,-65.6302 245.6106,-51.8004 125,-31 122.0586,-30.4927 119.0528,-29.9367 116.0231,-29.3463"/>
<polygon fill="#191970" stroke="#191970" points="466.7224,-75.8243 476.981,-73.1766 467.3103,-68.8491 466.7224,-75.8243"/>
</g>
<!-- Node3 -->
<g id="node3" class="node">
<title>Node3</title>
<g id="a_node3"><a xlink:href="test__csv__line__reader_8cpp.html" target="_top" xlink:title=" ">
<polygon fill="#ffffff" stroke="#000000" points="134,-.5 134,-30.5 244,-30.5 244,-.5 134,-.5"/>
<text text-anchor="start" x="142" y="-18.5" font-family="Helvetica,sans-Serif" font-size="10.00" fill="#000000">test/src/test_csv_line</text>
<text text-anchor="middle" x="189" y="-7.5" font-family="Helvetica,sans-Serif" font-size="10.00" fill="#000000">_reader.cpp</text>
</a>
</g>
</g>
<!-- Node1&#45;&gt;Node3 -->
<g id="edge2" class="edge">
<title>Node1&#45;&gt;Node3</title>
<path fill="none" stroke="#191970" d="M466.9875,-68.2896C411.5432,-59.8147 326.3583,-46.044 253,-31 250.0882,-30.4029 247.1077,-29.7671 244.1025,-29.1068"/>
<polygon fill="#191970" stroke="#191970" points="466.5719,-71.7666 476.9845,-69.8096 467.6242,-64.8461 466.5719,-71.7666"/>
</g>
<!-- Node4 -->
<g id="node4" class="node">
<title>Node4</title>
<g id="a_node4"><a xlink:href="test__csv__line__writer_8cpp.html" target="_top" xlink:title=" ">
<polygon fill="#ffffff" stroke="#000000" points="262,-.5 262,-30.5 372,-30.5 372,-.5 262,-.5"/>
<text text-anchor="start" x="270" y="-18.5" font-family="Helvetica,sans-Serif" font-size="10.00" fill="#000000">test/src/test_csv_line</text>
<text text-anchor="middle" x="317" y="-7.5" font-family="Helvetica,sans-Serif" font-size="10.00" fill="#000000">_writer.cpp</text>
</a>
</g>
</g>
<!-- Node1&#45;&gt;Node4 -->
<g id="edge3" class="edge">
<title>Node1&#45;&gt;Node4</title>
<path fill="none" stroke="#191970" d="M483.4381,-64.4758C450.069,-54.6567 403.5165,-40.9582 368.1272,-30.5446"/>
<polygon fill="#191970" stroke="#191970" points="482.7624,-67.9253 493.3438,-67.3906 484.7385,-61.21 482.7624,-67.9253"/>
</g>
<!-- Node5 -->
<g id="node5" class="node">
<title>Node5</title>
<g id="a_node5"><a xlink:href="test__csv__output__formatter_8cpp.html" target="_top" xlink:title=" ">
<polygon fill="#ffffff" stroke="#000000" points="390,-.5 390,-30.5 512,-30.5 512,-.5 390,-.5"/>
<text text-anchor="start" x="398" y="-18.5" font-family="Helvetica,sans-Serif" font-size="10.00" fill="#000000">test/src/test_csv_output</text>
<text text-anchor="middle" x="451" y="-7.5" font-family="Helvetica,sans-Serif" font-size="10.00" fill="#000000">_formatter.cpp</text>
</a>
</g>
</g>
<!-- Node1&#45;&gt;Node5 -->
<g id="edge4" class="edge">
<title>Node1&#45;&gt;Node5</title>
<path fill="none" stroke="#191970" d="M506.5347,-61.0385C495.058,-51.6276 480.6234,-39.7911 469.3471,-30.5446"/>
<polygon fill="#191970" stroke="#191970" points="504.3293,-63.7562 514.2813,-67.3906 508.7678,-58.3433 504.3293,-63.7562"/>
</g>
<!-- Node6 -->
<g id="node6" class="node">
<title>Node6</title>
<g id="a_node6"><a xlink:href="test__csv__reader_8cpp.html" target="_top" xlink:title=" ">
<polygon fill="#ffffff" stroke="#000000" points="530.5,-6 530.5,-25 671.5,-25 671.5,-6 530.5,-6"/>
<text text-anchor="middle" x="601" y="-13" font-family="Helvetica,sans-Serif" font-size="10.00" fill="#000000">test/src/test_csv_reader.cpp</text>
</a>
</g>
</g>
<!-- Node1&#45;&gt;Node6 -->
<g id="edge5" class="edge">
<title>Node1&#45;&gt;Node6</title>
<path fill="none" stroke="#191970" d="M545.6717,-60.8692C559.4663,-49.5576 577.4558,-34.8062 589.116,-25.2449"/>
<polygon fill="#191970" stroke="#191970" points="543.2322,-58.3433 537.7188,-67.3906 547.6707,-63.7562 543.2322,-58.3433"/>
</g>
<!-- Node7 -->
<g id="node7" class="node">
<title>Node7</title>
<g id="a_node7"><a xlink:href="test__csv__writer_8cpp.html" target="_top" xlink:title=" ">
<polygon fill="#ffffff" stroke="#000000" points="690,-6 690,-25 828,-25 828,-6 690,-6"/>
<text text-anchor="middle" x="759" y="-13" font-family="Helvetica,sans-Serif" font-size="10.00" fill="#000000">test/src/test_csv_writer.cpp</text>
</a>
</g>
</g>
<!-- Node1&#45;&gt;Node7 -->
<g id="edge6" class="edge">
<title>Node1&#45;&gt;Node7</title>
<path fill="none" stroke="#191970" d="M572.0669,-64.8407C616.2843,-53.1696 682.173,-35.7784 722.7646,-25.0643"/>
<polygon fill="#191970" stroke="#191970" points="570.9262,-61.5218 562.1506,-67.4581 572.7127,-68.2901 570.9262,-61.5218"/>
</g>
<!-- Node8 -->
<g id="node8" class="node">
<title>Node8</title>
<g id="a_node8"><a xlink:href="test__escape__utils_8cpp.html" target="_top" xlink:title=" ">
<polygon fill="#ffffff" stroke="#000000" points="846,-.5 846,-30.5 952,-30.5 952,-.5 846,-.5"/>
<text text-anchor="start" x="854" y="-18.5" font-family="Helvetica,sans-Serif" font-size="10.00" fill="#000000">test/src/test_escape</text>
<text text-anchor="middle" x="899" y="-7.5" font-family="Helvetica,sans-Serif" font-size="10.00" fill="#000000">_utils.cpp</text>
</a>
</g>
</g>
<!-- Node1&#45;&gt;Node8 -->
<g id="edge7" class="edge">
<title>Node1&#45;&gt;Node8</title>
<path fill="none" stroke="#191970" d="M585.1157,-70.0108C647.8994,-62.1792 749.9001,-48.2856 837,-31 839.9384,-30.4169 842.9466,-29.7843 845.9773,-29.1192"/>
<polygon fill="#191970" stroke="#191970" points="584.4987,-66.5604 575.0042,-71.262 585.3583,-73.5074 584.4987,-66.5604"/>
</g>
<!-- Node9 -->
<g id="node9" class="node">
<title>Node9</title>
<g id="a_node9"><a xlink:href="benchmark__csv__write_8cpp.html" target="_top" xlink:title=" ">
<polygon fill="#ffffff" stroke="#000000" points="970,-.5 970,-30.5 1102,-30.5 1102,-.5 970,-.5"/>
<text text-anchor="start" x="978" y="-18.5" font-family="Helvetica,sans-Serif" font-size="10.00" fill="#000000">benchmark/src/benchmark</text>
<text text-anchor="middle" x="1036" y="-7.5" font-family="Helvetica,sans-Serif" font-size="10.00" fill="#000000">_csv_write.cpp</text>
</a>
</g>
</g>
<!-- Node1&#45;&gt;Node9 -->
<g id="edge8" class="edge">
<title>Node1&#45;&gt;Node9</title>
<path fill="none" stroke="#191970" d="M585.2394,-72.5955C669.1748,-65.933 827.3805,-51.8205 961,-31 963.8902,-30.5496 966.8376,-30.0622 969.811,-29.5474"/>
<polygon fill="#191970" stroke="#191970" points="584.8265,-69.1171 575.1316,-73.3902 585.3752,-76.0955 584.8265,-69.1171"/>
</g>
</g>
</svg>
