<?xml version="1.0" encoding="UTF-8" standalone="no"?>
<!DOCTYPE svg PUBLIC "-//W3C//DTD SVG 1.1//EN"
 "http://www.w3.org/Graphics/SVG/1.1/DTD/svg11.dtd">
<!-- Generated by graphviz version 2.40.1 (20161225.0304)
 -->
<!-- Title: include/csv_io.hpp Pages: 1 -->
<svg width="849pt" height="84pt"
 viewBox="0.00 0.00 849.00 84.00" xmlns="http://www.w3.org/2000/svg" xmlns:xlink="http://www.w3.org/1999/xlink">
<g id="graph0" class="graph" transform="scale(1 1) rotate(0) translate(4 80)">
<title>include/csv_io.hpp</title>
<polygon fill="#ffffff" stroke="transparent" points="-4,4 -4,-80 845,-80 845,4 -4,4"/>
<!-- Node1 -->
<g id="node1" class="node">
<title>Node1</title>
<g id="a_node1"><a xlink:title=" ">
<polygon fill="#bfbfbf" stroke="#000000" points="413,-56.5 413,-75.5 511,-75.5 511,-56.5 413,-56.5"/>
<text text-anchor="middle" x="462" y="-63.5" font-family="Helvetica,sans-Serif" font-size="10.00" fill="#000000">include/csv_io.hpp</text>
</a>
</g>
</g>
<!-- Node2 -->
<g id="node2" class="node">
<title>Node2</title>
<g id="a_node2"><a xlink:title=" ">
<polygon fill="#ffffff" stroke="#bfbfbf" points="0,-.5 0,-19.5 56,-19.5 56,-.5 0,-.5"/>
<text text-anchor="middle" x="28" y="-7.5" font-family="Helvetica,sans-Serif" font-size="10.00" fill="#000000">algorithm</text>
</a>
</g>
</g>
<!-- Node1&#45;&gt;Node2 -->
<g id="edge1" class="edge">
<title>Node1&#45;&gt;Node2</title>
<path fill="none" stroke="#191970" d="M412.7483,-62.6589C339.2675,-57.1566 196.5016,-44.4726 66.3279,-20.0153"/>
<polygon fill="#191970" stroke="#191970" points="66.6598,-16.5156 56.1811,-18.0797 65.3482,-23.3916 66.6598,-16.5156"/>
</g>
<!-- Node3 -->
<g id="node3" class="node">
<title>Node3</title>
<g id="a_node3"><a xlink:title=" ">
<polygon fill="#ffffff" stroke="#bfbfbf" points="74.5,-.5 74.5,-19.5 123.5,-19.5 123.5,-.5 74.5,-.5"/>
<text text-anchor="middle" x="99" y="-7.5" font-family="Helvetica,sans-Serif" font-size="10.00" fill="#000000">cassert</text>
</a>
</g>
</g>
<!-- Node1&#45;&gt;Node3 -->
<g id="edge2" class="edge">
<title>Node1&#45;&gt;Node3</title>
<path fill="none" stroke="#191970" d="M412.933,-61.5709C350.1274,-55.371 237.8802,-42.5072 133.8016,-20.1475"/>
<polygon fill="#191970" stroke="#191970" points="134.2735,-16.6681 123.7569,-17.954 132.7799,-23.507 134.2735,-16.6681"/>
</g>
<!-- Node4 -->
<g id="node4" class="node">
<title>Node4</title>
<g id="a_node4"><a xlink:title=" ">
<polygon fill="#ffffff" stroke="#bfbfbf" points="141.5,-.5 141.5,-19.5 200.5,-19.5 200.5,-.5 141.5,-.5"/>
<text text-anchor="middle" x="171" y="-7.5" font-family="Helvetica,sans-Serif" font-size="10.00" fill="#000000">exception</text>
</a>
</g>
</g>
<!-- Node1&#45;&gt;Node4 -->
<g id="edge3" class="edge">
<title>Node1&#45;&gt;Node4</title>
<path fill="none" stroke="#191970" d="M412.5418,-58.0309C363.7709,-49.9355 286.9003,-36.5436 210.977,-20.0944"/>
<polygon fill="#191970" stroke="#191970" points="211.2757,-16.5771 200.7589,-17.8605 209.7807,-23.4156 211.2757,-16.5771"/>
</g>
<!-- Node5 -->
<g id="node5" class="node">
<title>Node5</title>
<g id="a_node5"><a xlink:title=" ">
<polygon fill="#ffffff" stroke="#bfbfbf" points="219,-.5 219,-19.5 269,-19.5 269,-.5 219,-.5"/>
<text text-anchor="middle" x="244" y="-7.5" font-family="Helvetica,sans-Serif" font-size="10.00" fill="#000000">fstream</text>
</a>
</g>
</g>
<!-- Node1&#45;&gt;Node5 -->
<g id="edge4" class="edge">
<title>Node1&#45;&gt;Node5</title>
<path fill="none" stroke="#191970" d="M421.6753,-56.4233C386.4299,-47.9402 333.6504,-34.9667 279.0663,-20.2176"/>
<polygon fill="#191970" stroke="#191970" points="279.7861,-16.7864 269.2183,-17.5423 277.951,-23.5416 279.7861,-16.7864"/>
</g>
<!-- Node6 -->
<g id="node6" class="node">
<title>Node6</title>
<g id="a_node6"><a xlink:title=" ">
<polygon fill="#ffffff" stroke="#bfbfbf" points="287.5,-.5 287.5,-19.5 346.5,-19.5 346.5,-.5 287.5,-.5"/>
<text text-anchor="middle" x="317" y="-7.5" font-family="Helvetica,sans-Serif" font-size="10.00" fill="#000000">functional</text>
</a>
</g>
</g>
<!-- Node1&#45;&gt;Node6 -->
<g id="edge5" class="edge">
<title>Node1&#45;&gt;Node6</title>
<path fill="none" stroke="#191970" d="M437.0736,-56.3733C413.3798,-47.2226 377.5489,-33.3844 351.1932,-23.2057"/>
<polygon fill="#191970" stroke="#191970" points="352.1906,-19.8389 341.6011,-19.5011 349.6686,-26.3689 352.1906,-19.8389"/>
</g>
<!-- Node7 -->
<g id="node7" class="node">
<title>Node7</title>
<g id="a_node7"><a xlink:title=" ">
<polygon fill="#ffffff" stroke="#bfbfbf" points="365,-.5 365,-19.5 419,-19.5 419,-.5 365,-.5"/>
<text text-anchor="middle" x="392" y="-7.5" font-family="Helvetica,sans-Serif" font-size="10.00" fill="#000000">iostream</text>
</a>
</g>
</g>
<!-- Node1&#45;&gt;Node7 -->
<g id="edge6" class="edge">
<title>Node1&#45;&gt;Node7</title>
<path fill="none" stroke="#191970" d="M449.8069,-56.2455C439.3679,-47.8943 424.1345,-35.7076 411.926,-25.9408"/>
<polygon fill="#191970" stroke="#191970" points="414.0485,-23.1566 404.0533,-19.6427 409.6756,-28.6227 414.0485,-23.1566"/>
</g>
<!-- Node8 -->
<g id="node8" class="node">
<title>Node8</title>
<g id="a_node8"><a xlink:title=" ">
<polygon fill="#ffffff" stroke="#bfbfbf" points="437.5,-.5 437.5,-19.5 486.5,-19.5 486.5,-.5 437.5,-.5"/>
<text text-anchor="middle" x="462" y="-7.5" font-family="Helvetica,sans-Serif" font-size="10.00" fill="#000000">istream</text>
</a>
</g>
</g>
<!-- Node1&#45;&gt;Node8 -->
<g id="edge7" class="edge">
<title>Node1&#45;&gt;Node8</title>
<path fill="none" stroke="#191970" d="M462,-56.2455C462,-48.9382 462,-38.6944 462,-29.7046"/>
<polygon fill="#191970" stroke="#191970" points="465.5001,-29.6426 462,-19.6427 458.5001,-29.6427 465.5001,-29.6426"/>
</g>
<!-- Node9 -->
<g id="node9" class="node">
<title>Node9</title>
<g id="a_node9"><a xlink:title=" ">
<polygon fill="#ffffff" stroke="#bfbfbf" points="504.5,-.5 504.5,-19.5 533.5,-19.5 533.5,-.5 504.5,-.5"/>
<text text-anchor="middle" x="519" y="-7.5" font-family="Helvetica,sans-Serif" font-size="10.00" fill="#000000">list</text>
</a>
</g>
</g>
<!-- Node1&#45;&gt;Node9 -->
<g id="edge8" class="edge">
<title>Node1&#45;&gt;Node9</title>
<path fill="none" stroke="#191970" d="M471.9286,-56.2455C480.1838,-48.1352 492.1209,-36.4075 501.9082,-26.7919"/>
<polygon fill="#191970" stroke="#191970" points="504.5046,-29.1476 509.1851,-19.6427 499.5989,-24.1542 504.5046,-29.1476"/>
</g>
<!-- Node10 -->
<g id="node10" class="node">
<title>Node10</title>
<g id="a_node10"><a xlink:title=" ">
<polygon fill="#ffffff" stroke="#bfbfbf" points="551.5,-.5 551.5,-19.5 586.5,-19.5 586.5,-.5 551.5,-.5"/>
<text text-anchor="middle" x="569" y="-7.5" font-family="Helvetica,sans-Serif" font-size="10.00" fill="#000000">map</text>
</a>
</g>
</g>
<!-- Node1&#45;&gt;Node10 -->
<g id="edge9" class="edge">
<title>Node1&#45;&gt;Node10</title>
<path fill="none" stroke="#191970" d="M480.638,-56.2455C497.7212,-47.3048 523.2041,-33.968 542.4203,-23.9109"/>
<polygon fill="#191970" stroke="#191970" points="544.0491,-27.0088 551.2861,-19.2708 540.8032,-20.8069 544.0491,-27.0088"/>
</g>
<!-- Node11 -->
<g id="node11" class="node">
<title>Node11</title>
<g id="a_node11"><a xlink:title=" ">
<polygon fill="#ffffff" stroke="#bfbfbf" points="605,-.5 605,-19.5 657,-19.5 657,-.5 605,-.5"/>
<text text-anchor="middle" x="631" y="-7.5" font-family="Helvetica,sans-Serif" font-size="10.00" fill="#000000">memory</text>
</a>
</g>
</g>
<!-- Node1&#45;&gt;Node11 -->
<g id="edge10" class="edge">
<title>Node1&#45;&gt;Node11</title>
<path fill="none" stroke="#191970" d="M491.0521,-56.3733C519.9207,-46.8073 564.2481,-32.119 595.2581,-21.8435"/>
<polygon fill="#191970" stroke="#191970" points="596.4303,-25.1423 604.8218,-18.6744 594.2285,-18.4976 596.4303,-25.1423"/>
</g>
<!-- Node12 -->
<g id="node12" class="node">
<title>Node12</title>
<g id="a_node12"><a xlink:title=" ">
<polygon fill="#ffffff" stroke="#bfbfbf" points="675.5,-.5 675.5,-19.5 716.5,-19.5 716.5,-.5 675.5,-.5"/>
<text text-anchor="middle" x="696" y="-7.5" font-family="Helvetica,sans-Serif" font-size="10.00" fill="#000000">string</text>
</a>
</g>
</g>
<!-- Node1&#45;&gt;Node12 -->
<g id="edge11" class="edge">
<title>Node1&#45;&gt;Node12</title>
<path fill="none" stroke="#191970" d="M510.5648,-56.475C549.9208,-48.4349 606.9595,-36.0587 665.6179,-19.8936"/>
<polygon fill="#191970" stroke="#191970" points="666.7342,-23.2159 675.4267,-17.1587 664.8541,-16.4731 666.7342,-23.2159"/>
</g>
<!-- Node13 -->
<g id="node13" class="node">
<title>Node13</title>
<g id="a_node13"><a xlink:title=" ">
<polygon fill="#ffffff" stroke="#bfbfbf" points="735,-.5 735,-19.5 779,-19.5 779,-.5 735,-.5"/>
<text text-anchor="middle" x="757" y="-7.5" font-family="Helvetica,sans-Serif" font-size="10.00" fill="#000000">thread</text>
</a>
</g>
</g>
<!-- Node1&#45;&gt;Node13 -->
<g id="edge12" class="edge">
<title>Node1&#45;&gt;Node13</title>
<path fill="none" stroke="#191970" d="M511.082,-59.5396C562.3325,-52.3284 645.1444,-39.3683 725.0305,-19.9819"/>
<polygon fill="#191970" stroke="#191970" points="725.8835,-23.3765 734.7559,-17.5858 724.2089,-16.5798 725.8835,-23.3765"/>
</g>
<!-- Node14 -->
<g id="node14" class="node">
<title>Node14</title>
<g id="a_node14"><a xlink:title=" ">
<polygon fill="#ffffff" stroke="#bfbfbf" points="797,-.5 797,-19.5 841,-19.5 841,-.5 797,-.5"/>
<text text-anchor="middle" x="819" y="-7.5" font-family="Helvetica,sans-Serif" font-size="10.00" fill="#000000">vector</text>
</a>
</g>
</g>
<!-- Node1&#45;&gt;Node14 -->
<g id="edge13" class="edge">
<title>Node1&#45;&gt;Node14</title>
<path fill="none" stroke="#191970" d="M511.0825,-61.7276C573.2978,-55.7282 683.8914,-43.1171 786.8399,-19.9491"/>
<polygon fill="#191970" stroke="#191970" points="787.8103,-23.3176 796.7769,-17.6739 786.248,-16.4941 787.8103,-23.3176"/>
</g>
</g>
</svg>
