<?xml version="1.0" encoding="UTF-8" standalone="no"?>
<!DOCTYPE svg PUBLIC "-//W3C//DTD SVG 1.1//EN"
 "http://www.w3.org/Graphics/SVG/1.1/DTD/svg11.dtd">
<!-- Generated by graphviz version 2.40.1 (20161225.0304)
 -->
<!-- Title: include/csv_io.hpp Pages: 1 -->
<svg width="1792pt" height="95pt"
 viewBox="0.00 0.00 1791.50 95.00" xmlns="http://www.w3.org/2000/svg" xmlns:xlink="http://www.w3.org/1999/xlink">
<g id="graph0" class="graph" transform="scale(1 1) rotate(0) translate(4 91)">
<title>include/csv_io.hpp</title>
<polygon fill="#ffffff" stroke="transparent" points="-4,4 -4,-91 1787.5,-91 1787.5,4 -4,4"/>
<!-- Node1 -->
<g id="node1" class="node">
<title>Node1</title>
<g id="a_node1"><a xlink:title=" ">
<polygon fill="#bfbfbf" stroke="#000000" points="834,-67.5 834,-86.5 932,-86.5 932,-67.5 834,-67.5"/>
<text text-anchor="middle" x="883" y="-74.5" font-family="Helvetica,sans-Serif" font-size="10.00" fill="#000000">include/csv_io.hpp</text>
</a>
</g>
</g>
<!-- Node2 -->
<g id="node2" class="node">
<title>Node2</title>
<g id="a_node2"><a xlink:href="test__csv__input__parser_8cpp.html" target="_top" xlink:title=" ">
<polygon fill="#ffffff" stroke="#000000" points="0,-.5 0,-30.5 116,-30.5 116,-.5 0,-.5"/>
<text text-anchor="start" x="8" y="-18.5" font-family="Helvetica,sans-Serif" font-size="10.00" fill="#000000">test/src/test_csv_input</text>
<text text-anchor="middle" x="58" y="-7.5" font-family="Helvetica,sans-Serif" font-size="10.00" fill="#000000">_parser.cpp</text>
</a>
</g>
</g>
<!-- Node1&#45;&gt;Node2 -->
<g id="edge1" class="edge">
<title>Node1&#45;&gt;Node2</title>
<path fill="none" stroke="#191970" d="M823.7881,-74.6857C669.8388,-68.4635 259.6393,-50.5201 125,-31 122.1643,-30.5889 119.2713,-30.1186 116.3569,-29.6039"/>
<polygon fill="#191970" stroke="#191970" points="823.8551,-78.1911 833.9877,-75.0959 824.1364,-71.1968 823.8551,-78.1911"/>
</g>
<!-- Node3 -->
<g id="node3" class="node">
<title>Node3</title>
<g id="a_node3"><a xlink:href="test__csv__line__reader_8cpp.html" target="_top" xlink:title=" ">
<polygon fill="#ffffff" stroke="#000000" points="134,-.5 134,-30.5 244,-30.5 244,-.5 134,-.5"/>
<text text-anchor="start" x="142" y="-18.5" font-family="Helvetica,sans-Serif" font-size="10.00" fill="#000000">test/src/test_csv_line</text>
<text text-anchor="middle" x="189" y="-7.5" font-family="Helvetica,sans-Serif" font-size="10.00" fill="#000000">_reader.cpp</text>
</a>
</g>
</g>
<!-- Node1&#45;&gt;Node3 -->
<g id="edge2" class="edge">
<title>Node1&#45;&gt;Node3</title>
<path fill="none" stroke="#191970" d="M823.5778,-75.9174C711.4036,-73.1546 461.033,-63.559 253,-31 250.0633,-30.5404 247.063,-30.0143 244.0423,-29.4398"/>
<polygon fill="#191970" stroke="#191970" points="823.5938,-79.4186 833.674,-76.1566 823.7597,-72.4206 823.5938,-79.4186"/>
</g>
<!-- Node4 -->
<g id="node4" class="node">
<title>Node4</title>
<g id="a_node4"><a xlink:href="test__csv__line__writer_8cpp.html" target="_top" xlink:title=" ">
<polygon fill="#ffffff" stroke="#000000" points="262,-.5 262,-30.5 372,-30.5 372,-.5 262,-.5"/>
<text text-anchor="start" x="270" y="-18.5" font-family="Helvetica,sans-Serif" font-size="10.00" fill="#000000">test/src/test_csv_line</text>
<text text-anchor="middle" x="317" y="-7.5" font-family="Helvetica,sans-Serif" font-size="10.00" fill="#000000">_writer.cpp</text>
</a>
</g>
</g>
<!-- Node1&#45;&gt;Node4 -->
<g id="edge3" class="edge">
<title>Node1&#45;&gt;Node4</title>
<path fill="none" stroke="#191970" d="M823.6886,-74.3773C729.3986,-69.5778 539.7363,-57.3495 381,-31 378.0677,-30.5133 375.0709,-29.9655 372.0529,-29.3741"/>
<polygon fill="#191970" stroke="#191970" points="823.7218,-77.8832 833.8839,-74.8861 824.0708,-70.8919 823.7218,-77.8832"/>
</g>
<!-- Node5 -->
<g id="node5" class="node">
<title>Node5</title>
<g id="a_node5"><a xlink:href="test__csv__map__reader_8cpp.html" target="_top" xlink:title=" ">
<polygon fill="#ffffff" stroke="#000000" points="390,-.5 390,-30.5 504,-30.5 504,-.5 390,-.5"/>
<text text-anchor="start" x="398" y="-18.5" font-family="Helvetica,sans-Serif" font-size="10.00" fill="#000000">test/src/test_csv_map</text>
<text text-anchor="middle" x="447" y="-7.5" font-family="Helvetica,sans-Serif" font-size="10.00" fill="#000000">_reader.cpp</text>
</a>
</g>
</g>
<!-- Node1&#45;&gt;Node5 -->
<g id="edge4" class="edge">
<title>Node1&#45;&gt;Node5</title>
<path fill="none" stroke="#191970" d="M824.0056,-71.631C750.7386,-64.5121 622.0825,-50.532 513,-31 510.1035,-30.4814 507.1434,-29.9162 504.1596,-29.3186"/>
<polygon fill="#191970" stroke="#191970" points="823.6791,-75.1156 833.9685,-72.5898 824.3498,-68.1478 823.6791,-75.1156"/>
</g>
<!-- Node6 -->
<g id="node6" class="node">
<title>Node6</title>
<g id="a_node6"><a xlink:href="test__csv__output__formatter_8cpp.html" target="_top" xlink:title=" ">
<polygon fill="#ffffff" stroke="#000000" points="522,-.5 522,-30.5 644,-30.5 644,-.5 522,-.5"/>
<text text-anchor="start" x="530" y="-18.5" font-family="Helvetica,sans-Serif" font-size="10.00" fill="#000000">test/src/test_csv_output</text>
<text text-anchor="middle" x="583" y="-7.5" font-family="Helvetica,sans-Serif" font-size="10.00" fill="#000000">_formatter.cpp</text>
</a>
</g>
</g>
<!-- Node1&#45;&gt;Node6 -->
<g id="edge5" class="edge">
<title>Node1&#45;&gt;Node6</title>
<path fill="none" stroke="#191970" d="M823.6852,-65.4841C777.198,-56.3749 710.9113,-43.2014 653,-31 650.0769,-30.3841 647.0866,-29.7475 644.0674,-29.0994"/>
<polygon fill="#191970" stroke="#191970" points="823.1013,-68.9362 833.5874,-67.4217 824.4456,-62.0665 823.1013,-68.9362"/>
</g>
<!-- Node7 -->
<g id="node7" class="node">
<title>Node7</title>
<g id="a_node7"><a xlink:href="test__csv__reader_8cpp.html" target="_top" xlink:title=" ">
<polygon fill="#ffffff" stroke="#000000" points="662.5,-6 662.5,-25 803.5,-25 803.5,-6 662.5,-6"/>
<text text-anchor="middle" x="733" y="-13" font-family="Helvetica,sans-Serif" font-size="10.00" fill="#000000">test/src/test_csv_reader.cpp</text>
</a>
</g>
</g>
<!-- Node1&#45;&gt;Node7 -->
<g id="edge6" class="edge">
<title>Node1&#45;&gt;Node7</title>
<path fill="none" stroke="#191970" d="M850.0623,-63.4955C821.678,-51.858 781.415,-35.3501 756.2729,-25.0419"/>
<polygon fill="#191970" stroke="#191970" points="848.9822,-66.8354 859.5625,-67.3906 851.6377,-60.3586 848.9822,-66.8354"/>
</g>
<!-- Node8 -->
<g id="node8" class="node">
<title>Node8</title>
<g id="a_node8"><a xlink:href="test__csv__reader__ifstream_8cpp.html" target="_top" xlink:title=" ">
<polygon fill="#ffffff" stroke="#000000" points="822,-.5 822,-30.5 944,-30.5 944,-.5 822,-.5"/>
<text text-anchor="start" x="830" y="-18.5" font-family="Helvetica,sans-Serif" font-size="10.00" fill="#000000">test/src/test_csv_reader</text>
<text text-anchor="middle" x="883" y="-7.5" font-family="Helvetica,sans-Serif" font-size="10.00" fill="#000000">_ifstream.cpp</text>
</a>
</g>
</g>
<!-- Node1&#45;&gt;Node8 -->
<g id="edge7" class="edge">
<title>Node1&#45;&gt;Node8</title>
<path fill="none" stroke="#191970" d="M883,-57.3693C883,-48.681 883,-38.6241 883,-30.5446"/>
<polygon fill="#191970" stroke="#191970" points="879.5001,-57.3906 883,-67.3906 886.5001,-57.3907 879.5001,-57.3906"/>
</g>
<!-- Node9 -->
<g id="node9" class="node">
<title>Node9</title>
<g id="a_node9"><a xlink:href="test__csv__writer_8cpp.html" target="_top" xlink:title=" ">
<polygon fill="#ffffff" stroke="#000000" points="962,-6 962,-25 1100,-25 1100,-6 962,-6"/>
<text text-anchor="middle" x="1031" y="-13" font-family="Helvetica,sans-Serif" font-size="10.00" fill="#000000">test/src/test_csv_writer.cpp</text>
</a>
</g>
</g>
<!-- Node1&#45;&gt;Node9 -->
<g id="edge8" class="edge">
<title>Node1&#45;&gt;Node9</title>
<path fill="none" stroke="#191970" d="M915.4985,-63.4955C943.5044,-51.858 983.2306,-35.3501 1008.0374,-25.0419"/>
<polygon fill="#191970" stroke="#191970" points="914.0164,-60.3212 906.125,-67.3906 916.7025,-66.7853 914.0164,-60.3212"/>
</g>
<!-- Node10 -->
<g id="node10" class="node">
<title>Node10</title>
<g id="a_node10"><a xlink:href="test__escape__utils_8cpp.html" target="_top" xlink:title=" ">
<polygon fill="#ffffff" stroke="#000000" points="1118,-.5 1118,-30.5 1224,-30.5 1224,-.5 1118,-.5"/>
<text text-anchor="start" x="1126" y="-18.5" font-family="Helvetica,sans-Serif" font-size="10.00" fill="#000000">test/src/test_escape</text>
<text text-anchor="middle" x="1171" y="-7.5" font-family="Helvetica,sans-Serif" font-size="10.00" fill="#000000">_utils.cpp</text>
</a>
</g>
</g>
<!-- Node1&#45;&gt;Node10 -->
<g id="edge9" class="edge">
<title>Node1&#45;&gt;Node10</title>
<path fill="none" stroke="#191970" d="M942.0954,-65.7134C987.7817,-56.8087 1052.5466,-43.7954 1109,-31 1111.9216,-30.3378 1114.9166,-29.6429 1117.937,-28.9295"/>
<polygon fill="#191970" stroke="#191970" points="941.2178,-62.3184 932.0689,-67.6615 942.5528,-69.1899 941.2178,-62.3184"/>
</g>
<!-- Node11 -->
<g id="node11" class="node">
<title>Node11</title>
<g id="a_node11"><a xlink:href="benchmark__csv__read__lines_8cpp.html" target="_top" xlink:title=" ">
<polygon fill="#ffffff" stroke="#000000" points="1242,-.5 1242,-30.5 1374,-30.5 1374,-.5 1242,-.5"/>
<text text-anchor="start" x="1250" y="-18.5" font-family="Helvetica,sans-Serif" font-size="10.00" fill="#000000">benchmark/src/benchmark</text>
<text text-anchor="middle" x="1308" y="-7.5" font-family="Helvetica,sans-Serif" font-size="10.00" fill="#000000">_csv_read_lines.cpp</text>
</a>
</g>
</g>
<!-- Node1&#45;&gt;Node11 -->
<g id="edge10" class="edge">
<title>Node1&#45;&gt;Node11</title>
<path fill="none" stroke="#191970" d="M942.5002,-70.5228C1012.2998,-62.6141 1131.403,-48.1511 1233,-31 1235.8843,-30.5131 1238.8268,-29.9954 1241.7961,-29.4558"/>
<polygon fill="#191970" stroke="#191970" points="941.6951,-67.0913 932.1496,-71.6884 942.4785,-74.0473 941.6951,-67.0913"/>
</g>
<!-- Node12 -->
<g id="node12" class="node">
<title>Node12</title>
<g id="a_node12"><a xlink:href="benchmark__csv__write__lines_8cpp.html" target="_top" xlink:title=" ">
<polygon fill="#ffffff" stroke="#000000" points="1392,-.5 1392,-30.5 1524,-30.5 1524,-.5 1392,-.5"/>
<text text-anchor="start" x="1400" y="-18.5" font-family="Helvetica,sans-Serif" font-size="10.00" fill="#000000">benchmark/src/benchmark</text>
<text text-anchor="middle" x="1458" y="-7.5" font-family="Helvetica,sans-Serif" font-size="10.00" fill="#000000">_csv_write_lines.cpp</text>
</a>
</g>
</g>
<!-- Node1&#45;&gt;Node12 -->
<g id="edge11" class="edge">
<title>Node1&#45;&gt;Node12</title>
<path fill="none" stroke="#191970" d="M942.3438,-73.6992C1036.2462,-67.9914 1224.6818,-54.5664 1383,-31 1385.8932,-30.5693 1388.8431,-30.0982 1391.8185,-29.5968"/>
<polygon fill="#191970" stroke="#191970" points="941.9608,-70.2158 932.1884,-74.3087 942.3802,-77.2032 941.9608,-70.2158"/>
</g>
<!-- Node13 -->
<g id="node13" class="node">
<title>Node13</title>
<g id="a_node13"><a xlink:href="line__read__throughput_8cpp.html" target="_top" xlink:title=" ">
<polygon fill="#ffffff" stroke="#000000" points="1542,-.5 1542,-30.5 1652,-30.5 1652,-.5 1542,-.5"/>
<text text-anchor="start" x="1550" y="-18.5" font-family="Helvetica,sans-Serif" font-size="10.00" fill="#000000">benchmark/src/line</text>
<text text-anchor="middle" x="1597" y="-7.5" font-family="Helvetica,sans-Serif" font-size="10.00" fill="#000000">_read_throughput.cpp</text>
</a>
</g>
</g>
<!-- Node1&#45;&gt;Node13 -->
<g id="edge12" class="edge">
<title>Node1&#45;&gt;Node13</title>
<path fill="none" stroke="#191970" d="M942.5655,-76.1028C1057.4321,-73.6411 1317.2758,-64.5158 1533,-31 1535.9372,-30.5437 1538.9379,-30.0201 1541.9589,-29.4478"/>
<polygon fill="#191970" stroke="#191970" points="942.1634,-72.6102 932.2372,-76.3144 942.3069,-79.6087 942.1634,-72.6102"/>
</g>
<!-- Node14 -->
<g id="node14" class="node">
<title>Node14</title>
<g id="a_node14"><a xlink:href="line__write__throughput_8cpp.html" target="_top" xlink:title=" ">
<polygon fill="#ffffff" stroke="#000000" points="1670.5,-.5 1670.5,-30.5 1783.5,-30.5 1783.5,-.5 1670.5,-.5"/>
<text text-anchor="start" x="1678.5" y="-18.5" font-family="Helvetica,sans-Serif" font-size="10.00" fill="#000000">benchmark/src/line</text>
<text text-anchor="middle" x="1727" y="-7.5" font-family="Helvetica,sans-Serif" font-size="10.00" fill="#000000">_write_throughput.cpp</text>
</a>
</g>
</g>
<!-- Node1&#45;&gt;Node14 -->
<g id="edge13" class="edge">
<title>Node1&#45;&gt;Node14</title>
<path fill="none" stroke="#191970" d="M942.6594,-74.8001C1099.8015,-68.793 1522.5117,-51.2033 1661,-31 1664.0282,-30.5582 1667.122,-30.0463 1670.237,-29.4831"/>
<polygon fill="#191970" stroke="#191970" points="942.1145,-71.3182 932.2547,-75.1957 942.3805,-78.3131 942.1145,-71.3182"/>
</g>
</g>
</svg>
