<?xml version="1.0" encoding="UTF-8" standalone="no"?>
<!DOCTYPE svg PUBLIC "-//W3C//DTD SVG 1.1//EN"
 "http://www.w3.org/Graphics/SVG/1.1/DTD/svg11.dtd">
<!-- Generated by graphviz version 2.40.1 (20161225.0304)
 -->
<!-- Title: benchmark Pages: 1 -->
<svg width="178pt" height="132pt"
 viewBox="0.00 0.00 178.00 132.00" xmlns="http://www.w3.org/2000/svg" xmlns:xlink="http://www.w3.org/1999/xlink">
<g id="graph0" class="graph" transform="scale(1 1) rotate(0) translate(4 128)">
<title>benchmark</title>
<polygon fill="#ffffff" stroke="transparent" points="-4,4 -4,-128 174,-128 174,4 -4,4"/>
<g id="clust1" class="cluster">
<title>clusterdir_44cec6e3ea30e076b9313c4641539d9f</title>
<g id="a_clust1"><a xlink:href="dir_44cec6e3ea30e076b9313c4641539d9f.html" target="_top">
<polygon fill="#eeeeff" stroke="#000000" points="8,-64 8,-116 162,-116 162,-64 8,-64"/>
</a>
</g>
</g>
<!-- dir_44cec6e3ea30e076b9313c4641539d9f -->
<g id="node1" class="node">
<title>dir_44cec6e3ea30e076b9313c4641539d9f</title>
<text text-anchor="middle" x="121" y="-87.5" font-family="Helvetica,sans-Serif" font-size="10.00" fill="#000000">benchmark</text>
</g>
<!-- dir_5b32b0c8d196e0bee0bc7bd37f53bc55 -->
<g id="node2" class="node">
<title>dir_5b32b0c8d196e0bee0bc7bd37f53bc55</title>
<g id="a_node2"><a xlink:href="dir_5b32b0c8d196e0bee0bc7bd37f53bc55.html" target="_top" xlink:title="src">
<polygon fill="#ffffff" stroke="#000000" points="70,-108 16,-108 16,-72 70,-72 70,-108"/>
<text text-anchor="middle" x="43" y="-87.5" font-family="Helvetica,sans-Serif" font-size="10.00" fill="#000000">src</text>
</a>
</g>
</g>
<!-- dir_d44c64559bbebec7f509842c48db8b23 -->
<g id="node3" class="node">
<title>dir_d44c64559bbebec7f509842c48db8b23</title>
<g id="a_node3"><a xlink:href="dir_d44c64559bbebec7f509842c48db8b23.html" target="_top" xlink:title="include">
<polygon fill="none" stroke="#000000" points="70,-36 16,-36 16,0 70,0 70,-36"/>
<text text-anchor="middle" x="43" y="-15.5" font-family="Helvetica,sans-Serif" font-size="10.00" fill="#000000">include</text>
</a>
</g>
</g>
<!-- dir_5b32b0c8d196e0bee0bc7bd37f53bc55&#45;&gt;dir_d44c64559bbebec7f509842c48db8b23 -->
<g id="edge1" class="edge">
<title>dir_5b32b0c8d196e0bee0bc7bd37f53bc55&#45;&gt;dir_d44c64559bbebec7f509842c48db8b23</title>
<path fill="none" stroke="#000000" d="M43,-71.8314C43,-64.131 43,-54.9743 43,-46.4166"/>
<polygon fill="#000000" stroke="#000000" points="46.5001,-46.4132 43,-36.4133 39.5001,-46.4133 46.5001,-46.4132"/>
<g id="a_edge1&#45;headlabel"><a xlink:href="dir_000001_000002.html" target="_top" xlink:title="1">
<text text-anchor="middle" x="49.3393" y="-47.5079" font-family="Helvetica,sans-Serif" font-size="10.00" fill="#000000">1</text>
</a>
</g>
</g>
</g>
</svg>
