<?xml version="1.0" encoding="UTF-8" standalone="no"?>
<!DOCTYPE svg PUBLIC "-//W3C//DTD SVG 1.1//EN"
 "http://www.w3.org/Graphics/SVG/1.1/DTD/svg11.dtd">
<!-- Generated by graphviz version 2.40.1 (20161225.0304)
 -->
<!-- Title: benchmark/src/line_read_throughput.cpp Pages: 1 -->
<svg width="848pt" height="151pt"
 viewBox="0.00 0.00 848.00 151.00" xmlns="http://www.w3.org/2000/svg" xmlns:xlink="http://www.w3.org/1999/xlink">
<g id="graph0" class="graph" transform="scale(1 1) rotate(0) translate(4 147)">
<title>benchmark/src/line_read_throughput.cpp</title>
<polygon fill="#ffffff" stroke="transparent" points="-4,4 -4,-147 844,-147 844,4 -4,4"/>
<!-- Node1 -->
<g id="node1" class="node">
<title>Node1</title>
<g id="a_node1"><a xlink:title=" ">
<polygon fill="#bfbfbf" stroke="#000000" points="370,-112.5 370,-142.5 480,-142.5 480,-112.5 370,-112.5"/>
<text text-anchor="start" x="378" y="-130.5" font-family="Helvetica,sans-Serif" font-size="10.00" fill="#000000">benchmark/src/line</text>
<text text-anchor="middle" x="425" y="-119.5" font-family="Helvetica,sans-Serif" font-size="10.00" fill="#000000">_read_throughput.cpp</text>
</a>
</g>
</g>
<!-- Node2 -->
<g id="node2" class="node">
<title>Node2</title>
<g id="a_node2"><a xlink:title=" ">
<polygon fill="#ffffff" stroke="#bfbfbf" points="0,-.5 0,-19.5 54,-19.5 54,-.5 0,-.5"/>
<text text-anchor="middle" x="27" y="-7.5" font-family="Helvetica,sans-Serif" font-size="10.00" fill="#000000">iostream</text>
</a>
</g>
</g>
<!-- Node1&#45;&gt;Node2 -->
<g id="edge1" class="edge">
<title>Node1&#45;&gt;Node2</title>
<path fill="none" stroke="#191970" d="M374.1888,-112.4992C292.895,-88.4992 135.4841,-42.0273 63.9644,-20.9129"/>
<polygon fill="#191970" stroke="#191970" points="64.6366,-17.462 54.0548,-17.9873 62.6546,-24.1756 64.6366,-17.462"/>
</g>
<!-- Node3 -->
<g id="node3" class="node">
<title>Node3</title>
<g id="a_node3"><a xlink:href="csv__io_8hpp.html" target="_top" xlink:title=" ">
<polygon fill="#ffffff" stroke="#000000" points="393,-56.5 393,-75.5 457,-75.5 457,-56.5 393,-56.5"/>
<text text-anchor="middle" x="425" y="-63.5" font-family="Helvetica,sans-Serif" font-size="10.00" fill="#000000">csv_io.hpp</text>
</a>
</g>
</g>
<!-- Node1&#45;&gt;Node3 -->
<g id="edge2" class="edge">
<title>Node1&#45;&gt;Node3</title>
<path fill="none" stroke="#191970" d="M425,-112.2977C425,-104.3834 425,-94.6043 425,-86.0759"/>
<polygon fill="#191970" stroke="#191970" points="428.5001,-85.8469 425,-75.8469 421.5001,-85.847 428.5001,-85.8469"/>
</g>
<!-- Node16 -->
<g id="node16" class="node">
<title>Node16</title>
<g id="a_node16"><a xlink:title=" ">
<polygon fill="#ffffff" stroke="#bfbfbf" points="475,-56.5 475,-75.5 599,-75.5 599,-56.5 475,-56.5"/>
<text text-anchor="middle" x="537" y="-63.5" font-family="Helvetica,sans-Serif" font-size="10.00" fill="#000000">benchmark/benchmark.h</text>
</a>
</g>
</g>
<!-- Node1&#45;&gt;Node16 -->
<g id="edge16" class="edge">
<title>Node1&#45;&gt;Node16</title>
<path fill="none" stroke="#191970" d="M452.3983,-112.4554C470.1022,-102.734 493.0195,-90.15 510.5358,-80.5317"/>
<polygon fill="#191970" stroke="#191970" points="512.5631,-83.4115 519.644,-75.5303 509.1939,-77.2756 512.5631,-83.4115"/>
</g>
<!-- Node3&#45;&gt;Node2 -->
<g id="edge8" class="edge">
<title>Node3&#45;&gt;Node2</title>
<path fill="none" stroke="#191970" d="M392.787,-63.4809C330.8632,-58.3013 190.8355,-44.9579 63.9167,-19.9379"/>
<polygon fill="#191970" stroke="#191970" points="64.5179,-16.4888 54.0255,-17.9585 63.1443,-23.3528 64.5179,-16.4888"/>
</g>
<!-- Node4 -->
<g id="node4" class="node">
<title>Node4</title>
<g id="a_node4"><a xlink:title=" ">
<polygon fill="#ffffff" stroke="#bfbfbf" points="72,-.5 72,-19.5 128,-19.5 128,-.5 72,-.5"/>
<text text-anchor="middle" x="100" y="-7.5" font-family="Helvetica,sans-Serif" font-size="10.00" fill="#000000">algorithm</text>
</a>
</g>
</g>
<!-- Node3&#45;&gt;Node4 -->
<g id="edge3" class="edge">
<title>Node3&#45;&gt;Node4</title>
<path fill="none" stroke="#191970" d="M392.8318,-61.9908C341.1152,-55.3015 236.1372,-40.7205 137.9871,-20.039"/>
<polygon fill="#191970" stroke="#191970" points="138.7171,-16.6161 128.2069,-17.9527 137.2567,-23.462 138.7171,-16.6161"/>
</g>
<!-- Node5 -->
<g id="node5" class="node">
<title>Node5</title>
<g id="a_node5"><a xlink:title=" ">
<polygon fill="#ffffff" stroke="#bfbfbf" points="146.5,-.5 146.5,-19.5 195.5,-19.5 195.5,-.5 146.5,-.5"/>
<text text-anchor="middle" x="171" y="-7.5" font-family="Helvetica,sans-Serif" font-size="10.00" fill="#000000">cassert</text>
</a>
</g>
</g>
<!-- Node3&#45;&gt;Node5 -->
<g id="edge4" class="edge">
<title>Node3&#45;&gt;Node5</title>
<path fill="none" stroke="#191970" d="M392.9552,-60.2573C351.7178,-52.666 277.6826,-38.3586 205.9087,-20.3403"/>
<polygon fill="#191970" stroke="#191970" points="206.3536,-16.8423 195.7998,-17.7735 204.6308,-23.627 206.3536,-16.8423"/>
</g>
<!-- Node6 -->
<g id="node6" class="node">
<title>Node6</title>
<g id="a_node6"><a xlink:title=" ">
<polygon fill="#ffffff" stroke="#bfbfbf" points="213.5,-.5 213.5,-19.5 272.5,-19.5 272.5,-.5 213.5,-.5"/>
<text text-anchor="middle" x="243" y="-7.5" font-family="Helvetica,sans-Serif" font-size="10.00" fill="#000000">exception</text>
</a>
</g>
</g>
<!-- Node3&#45;&gt;Node6 -->
<g id="edge5" class="edge">
<title>Node3&#45;&gt;Node6</title>
<path fill="none" stroke="#191970" d="M393.7131,-56.3733C362.9498,-46.9076 315.8858,-32.4264 282.5463,-22.1681"/>
<polygon fill="#191970" stroke="#191970" points="283.2606,-18.726 272.6735,-19.1303 281.2019,-25.4165 283.2606,-18.726"/>
</g>
<!-- Node7 -->
<g id="node7" class="node">
<title>Node7</title>
<g id="a_node7"><a xlink:title=" ">
<polygon fill="#ffffff" stroke="#bfbfbf" points="291,-.5 291,-19.5 341,-19.5 341,-.5 291,-.5"/>
<text text-anchor="middle" x="316" y="-7.5" font-family="Helvetica,sans-Serif" font-size="10.00" fill="#000000">fstream</text>
</a>
</g>
</g>
<!-- Node3&#45;&gt;Node7 -->
<g id="edge6" class="edge">
<title>Node3&#45;&gt;Node7</title>
<path fill="none" stroke="#191970" d="M406.0136,-56.2455C388.8208,-47.4125 363.2762,-34.2887 343.7868,-24.2758"/>
<polygon fill="#191970" stroke="#191970" points="345.263,-21.0993 334.7688,-19.6427 342.0641,-27.3257 345.263,-21.0993"/>
</g>
<!-- Node8 -->
<g id="node8" class="node">
<title>Node8</title>
<g id="a_node8"><a xlink:title=" ">
<polygon fill="#ffffff" stroke="#bfbfbf" points="359.5,-.5 359.5,-19.5 418.5,-19.5 418.5,-.5 359.5,-.5"/>
<text text-anchor="middle" x="389" y="-7.5" font-family="Helvetica,sans-Serif" font-size="10.00" fill="#000000">functional</text>
</a>
</g>
</g>
<!-- Node3&#45;&gt;Node8 -->
<g id="edge7" class="edge">
<title>Node3&#45;&gt;Node8</title>
<path fill="none" stroke="#191970" d="M418.7293,-56.2455C413.7736,-48.5367 406.717,-37.5598 400.7224,-28.2348"/>
<polygon fill="#191970" stroke="#191970" points="403.5506,-26.1618 395.1989,-19.6427 397.6624,-29.9471 403.5506,-26.1618"/>
</g>
<!-- Node9 -->
<g id="node9" class="node">
<title>Node9</title>
<g id="a_node9"><a xlink:title=" ">
<polygon fill="#ffffff" stroke="#bfbfbf" points="436.5,-.5 436.5,-19.5 485.5,-19.5 485.5,-.5 436.5,-.5"/>
<text text-anchor="middle" x="461" y="-7.5" font-family="Helvetica,sans-Serif" font-size="10.00" fill="#000000">istream</text>
</a>
</g>
</g>
<!-- Node3&#45;&gt;Node9 -->
<g id="edge9" class="edge">
<title>Node3&#45;&gt;Node9</title>
<path fill="none" stroke="#191970" d="M431.2707,-56.2455C436.2264,-48.5367 443.283,-37.5598 449.2776,-28.2348"/>
<polygon fill="#191970" stroke="#191970" points="452.3376,-29.9471 454.8011,-19.6427 446.4494,-26.1618 452.3376,-29.9471"/>
</g>
<!-- Node10 -->
<g id="node10" class="node">
<title>Node10</title>
<g id="a_node10"><a xlink:title=" ">
<polygon fill="#ffffff" stroke="#bfbfbf" points="503.5,-.5 503.5,-19.5 532.5,-19.5 532.5,-.5 503.5,-.5"/>
<text text-anchor="middle" x="518" y="-7.5" font-family="Helvetica,sans-Serif" font-size="10.00" fill="#000000">list</text>
</a>
</g>
</g>
<!-- Node3&#45;&gt;Node10 -->
<g id="edge10" class="edge">
<title>Node3&#45;&gt;Node10</title>
<path fill="none" stroke="#191970" d="M441.1994,-56.2455C455.9531,-47.3616 477.9149,-34.1372 494.5791,-24.1029"/>
<polygon fill="#191970" stroke="#191970" points="496.4512,-27.0612 503.2125,-18.9043 492.8402,-21.0645 496.4512,-27.0612"/>
</g>
<!-- Node11 -->
<g id="node11" class="node">
<title>Node11</title>
<g id="a_node11"><a xlink:title=" ">
<polygon fill="#ffffff" stroke="#bfbfbf" points="550.5,-.5 550.5,-19.5 585.5,-19.5 585.5,-.5 550.5,-.5"/>
<text text-anchor="middle" x="568" y="-7.5" font-family="Helvetica,sans-Serif" font-size="10.00" fill="#000000">map</text>
</a>
</g>
</g>
<!-- Node3&#45;&gt;Node11 -->
<g id="edge11" class="edge">
<title>Node3&#45;&gt;Node11</title>
<path fill="none" stroke="#191970" d="M449.5826,-56.3733C475.0738,-46.3907 514.81,-30.8296 541.1195,-20.5266"/>
<polygon fill="#191970" stroke="#191970" points="542.4526,-23.7635 550.4878,-16.8579 539.9,-17.2454 542.4526,-23.7635"/>
</g>
<!-- Node12 -->
<g id="node12" class="node">
<title>Node12</title>
<g id="a_node12"><a xlink:title=" ">
<polygon fill="#ffffff" stroke="#bfbfbf" points="604,-.5 604,-19.5 656,-19.5 656,-.5 604,-.5"/>
<text text-anchor="middle" x="630" y="-7.5" font-family="Helvetica,sans-Serif" font-size="10.00" fill="#000000">memory</text>
</a>
</g>
</g>
<!-- Node3&#45;&gt;Node12 -->
<g id="edge12" class="edge">
<title>Node3&#45;&gt;Node12</title>
<path fill="none" stroke="#191970" d="M457.3108,-57.4017C489.531,-48.7956 540.6904,-35.0454 593.7188,-20.3323"/>
<polygon fill="#191970" stroke="#191970" points="594.9407,-23.6254 603.6379,-17.5749 593.0658,-16.8812 594.9407,-23.6254"/>
</g>
<!-- Node13 -->
<g id="node13" class="node">
<title>Node13</title>
<g id="a_node13"><a xlink:title=" ">
<polygon fill="#ffffff" stroke="#bfbfbf" points="674.5,-.5 674.5,-19.5 715.5,-19.5 715.5,-.5 674.5,-.5"/>
<text text-anchor="middle" x="695" y="-7.5" font-family="Helvetica,sans-Serif" font-size="10.00" fill="#000000">string</text>
</a>
</g>
</g>
<!-- Node3&#45;&gt;Node13 -->
<g id="edge13" class="edge">
<title>Node3&#45;&gt;Node13</title>
<path fill="none" stroke="#191970" d="M457.187,-57.9554C460.1612,-57.2707 463.1331,-56.6084 466,-56 550.8313,-37.9986 576.1556,-41.9508 664.5398,-19.8041"/>
<polygon fill="#191970" stroke="#191970" points="665.6321,-23.1377 674.4583,-17.2769 663.9037,-16.3544 665.6321,-23.1377"/>
</g>
<!-- Node14 -->
<g id="node14" class="node">
<title>Node14</title>
<g id="a_node14"><a xlink:title=" ">
<polygon fill="#ffffff" stroke="#bfbfbf" points="734,-.5 734,-19.5 778,-19.5 778,-.5 734,-.5"/>
<text text-anchor="middle" x="756" y="-7.5" font-family="Helvetica,sans-Serif" font-size="10.00" fill="#000000">thread</text>
</a>
</g>
</g>
<!-- Node3&#45;&gt;Node14 -->
<g id="edge14" class="edge">
<title>Node3&#45;&gt;Node14</title>
<path fill="none" stroke="#191970" d="M457.1618,-57.8301C460.1413,-57.1717 463.1213,-56.5497 466,-56 577.034,-34.7989 609.926,-45.3209 723.9646,-19.9094"/>
<polygon fill="#191970" stroke="#191970" points="724.8023,-23.3084 733.7782,-17.6796 723.2512,-16.4824 724.8023,-23.3084"/>
</g>
<!-- Node15 -->
<g id="node15" class="node">
<title>Node15</title>
<g id="a_node15"><a xlink:title=" ">
<polygon fill="#ffffff" stroke="#bfbfbf" points="796,-.5 796,-19.5 840,-19.5 840,-.5 796,-.5"/>
<text text-anchor="middle" x="818" y="-7.5" font-family="Helvetica,sans-Serif" font-size="10.00" fill="#000000">vector</text>
</a>
</g>
</g>
<!-- Node3&#45;&gt;Node15 -->
<g id="edge15" class="edge">
<title>Node3&#45;&gt;Node15</title>
<path fill="none" stroke="#191970" d="M457.1468,-57.7487C460.1294,-57.1074 463.1143,-56.5116 466,-56 604.1819,-31.5031 644.8323,-49.3459 785.9083,-19.8604"/>
<polygon fill="#191970" stroke="#191970" points="786.7443,-23.2608 795.7943,-17.7518 785.2841,-16.4148 786.7443,-23.2608"/>
</g>
</g>
</svg>
