<?xml version="1.0" encoding="UTF-8" standalone="no"?>
<!DOCTYPE svg PUBLIC "-//W3C//DTD SVG 1.1//EN"
 "http://www.w3.org/Graphics/SVG/1.1/DTD/svg11.dtd">
<!-- Generated by graphviz version 2.40.1 (20161225.0304)
 -->
<!-- Title: csvio::util::unescape Pages: 1 -->
<svg width="508pt" height="220pt"
 viewBox="0.00 0.00 508.00 219.50" xmlns="http://www.w3.org/2000/svg" xmlns:xlink="http://www.w3.org/1999/xlink">
<g id="graph0" class="graph" transform="scale(1 1) rotate(0) translate(4 215.5)">
<title>csvio::util::unescape</title>
<polygon fill="#ffffff" stroke="transparent" points="-4,4 -4,-215.5 504,-215.5 504,4 -4,4"/>
<!-- Node1 -->
<g id="node1" class="node">
<title>Node1</title>
<g id="a_node1"><a xlink:title="unescape a csv escaped string according to RFC 4180">
<polygon fill="#bfbfbf" stroke="#000000" points="393,-101.5 393,-120.5 500,-120.5 500,-101.5 393,-101.5"/>
<text text-anchor="middle" x="446.5" y="-108.5" font-family="Helvetica,sans-Serif" font-size="10.00" fill="#000000">csvio::util::unescape</text>
</a>
</g>
</g>
<!-- Node2 -->
<g id="node2" class="node">
<title>Node2</title>
<g id="a_node2"><a xlink:href="structcsvio_1_1util_1_1DelimSplitUnescaped.html#aa6ad7a2c3027b4492c25d58c676b9be0" target="_top" xlink:title="implementation of delim_split_unescaped">
<polygon fill="#ffffff" stroke="#000000" points="196.5,-181 196.5,-211 355.5,-211 355.5,-181 196.5,-181"/>
<text text-anchor="start" x="204.5" y="-199" font-family="Helvetica,sans-Serif" font-size="10.00" fill="#000000">csvio::util::DelimSplitUnescaped</text>
<text text-anchor="middle" x="276" y="-188" font-family="Helvetica,sans-Serif" font-size="10.00" fill="#000000">::delim_split_unescaped_impl</text>
</a>
</g>
</g>
<!-- Node1&#45;&gt;Node2 -->
<g id="edge1" class="edge">
<title>Node1&#45;&gt;Node2</title>
<path fill="none" stroke="#191970" d="M426.4543,-126.9371C408.9574,-140.219 382.4504,-158.8635 357,-171 349.2953,-174.6741 340.924,-177.9667 332.5837,-180.862"/>
<polygon fill="#191970" stroke="#191970" points="428.9562,-129.427 434.7294,-120.5433 424.6763,-123.8879 428.9562,-129.427"/>
</g>
<!-- Node4 -->
<g id="node4" class="node">
<title>Node4</title>
<g id="a_node4"><a xlink:href="structcsvio_1_1util_1_1MapDelimSplitUnescaped.html#af3ba4beb53d365e31e2e1d4476727775" target="_top" xlink:title="split and unescape the fields in the csv">
<polygon fill="#ffffff" stroke="#000000" points="212,-120.5 212,-161.5 340,-161.5 340,-120.5 212,-120.5"/>
<text text-anchor="start" x="220" y="-149.5" font-family="Helvetica,sans-Serif" font-size="10.00" fill="#000000">csvio::util::MapDelimSplit</text>
<text text-anchor="start" x="220" y="-138.5" font-family="Helvetica,sans-Serif" font-size="10.00" fill="#000000">Unescaped::delim_split</text>
<text text-anchor="middle" x="276" y="-127.5" font-family="Helvetica,sans-Serif" font-size="10.00" fill="#000000">_unescaped_impl</text>
</a>
</g>
</g>
<!-- Node1&#45;&gt;Node4 -->
<g id="edge3" class="edge">
<title>Node1&#45;&gt;Node4</title>
<path fill="none" stroke="#191970" d="M382.5882,-122.2455C368.675,-124.6935 353.9515,-127.2842 340.0337,-129.7331"/>
<polygon fill="#191970" stroke="#191970" points="383.3106,-125.6722 392.5527,-120.4922 382.0975,-118.7781 383.3106,-125.6722"/>
</g>
<!-- Node6 -->
<g id="node6" class="node">
<title>Node6</title>
<g id="a_node6"><a xlink:href="structcsvio_1_1util_1_1DelimSplitUnescapedThreaded.html#a39c063ea5b6d655f907c7b8540a36373" target="_top" xlink:title="implementation of delim_split_unescaped_threaded">
<polygon fill="#ffffff" stroke="#000000" points="195,-60.5 195,-101.5 357,-101.5 357,-60.5 195,-60.5"/>
<text text-anchor="start" x="203" y="-89.5" font-family="Helvetica,sans-Serif" font-size="10.00" fill="#000000">csvio::util::DelimSplitUnescaped</text>
<text text-anchor="start" x="203" y="-78.5" font-family="Helvetica,sans-Serif" font-size="10.00" fill="#000000">Threaded::delim_split_unescaped</text>
<text text-anchor="middle" x="276" y="-67.5" font-family="Helvetica,sans-Serif" font-size="10.00" fill="#000000">_threaded_impl</text>
</a>
</g>
</g>
<!-- Node1&#45;&gt;Node6 -->
<g id="edge5" class="edge">
<title>Node1&#45;&gt;Node6</title>
<path fill="none" stroke="#191970" d="M382.5479,-99.7474C374.2084,-98.2801 365.5784,-96.7616 357.0057,-95.2532"/>
<polygon fill="#191970" stroke="#191970" points="382.0975,-103.2219 392.5527,-101.5078 383.3106,-96.3278 382.0975,-103.2219"/>
</g>
<!-- Node8 -->
<g id="node8" class="node">
<title>Node8</title>
<g id="a_node8"><a xlink:href="structcsvio_1_1util_1_1MapDelimSplitUnescapedThreaded.html#ac73141820ec96c7fe1967a87f3febf48" target="_top" xlink:title="split and unescape the fields in the csv with a thread for each value">
<polygon fill="#ffffff" stroke="#000000" points="197,-.5 197,-41.5 355,-41.5 355,-.5 197,-.5"/>
<text text-anchor="start" x="205" y="-29.5" font-family="Helvetica,sans-Serif" font-size="10.00" fill="#000000">csvio::util::MapDelimSplit</text>
<text text-anchor="start" x="205" y="-18.5" font-family="Helvetica,sans-Serif" font-size="10.00" fill="#000000">UnescapedThreaded::delim</text>
<text text-anchor="middle" x="276" y="-7.5" font-family="Helvetica,sans-Serif" font-size="10.00" fill="#000000">_split_unescaped_threaded_impl</text>
</a>
</g>
</g>
<!-- Node1&#45;&gt;Node8 -->
<g id="edge7" class="edge">
<title>Node1&#45;&gt;Node8</title>
<path fill="none" stroke="#191970" d="M425.9798,-95.1958C408.3731,-82.1472 381.963,-63.7634 357,-51 350.4575,-47.6549 343.452,-44.4912 336.4005,-41.5621"/>
<polygon fill="#191970" stroke="#191970" points="424.2342,-98.2623 434.3301,-101.4751 428.4412,-92.6676 424.2342,-98.2623"/>
</g>
<!-- Node3 -->
<g id="node3" class="node">
<title>Node3</title>
<g id="a_node3"><a xlink:href="structcsvio_1_1util_1_1DelimSplitUnescaped.html#a14adb6a0e5936c2987560be07ae3b426" target="_top" xlink:title="split a csv row on a delimiter unescaping the output strings threaded">
<polygon fill="#ffffff" stroke="#000000" points="0,-181 0,-211 159,-211 159,-181 0,-181"/>
<text text-anchor="start" x="8" y="-199" font-family="Helvetica,sans-Serif" font-size="10.00" fill="#000000">csvio::util::DelimSplitUnescaped</text>
<text text-anchor="middle" x="79.5" y="-188" font-family="Helvetica,sans-Serif" font-size="10.00" fill="#000000">::operator()</text>
</a>
</g>
</g>
<!-- Node2&#45;&gt;Node3 -->
<g id="edge2" class="edge">
<title>Node2&#45;&gt;Node3</title>
<path fill="none" stroke="#191970" d="M186.2499,-196C177.2454,-196 168.145,-196 159.2542,-196"/>
<polygon fill="#191970" stroke="#191970" points="186.3592,-199.5001 196.3592,-196 186.3592,-192.5001 186.3592,-199.5001"/>
</g>
<!-- Node5 -->
<g id="node5" class="node">
<title>Node5</title>
<g id="a_node5"><a xlink:href="structcsvio_1_1util_1_1MapDelimSplitUnescaped.html#a5d2d66d98a69365b555fbe8394b64a5b" target="_top" xlink:title="split a csv row on a delimiter unescaping the output strings">
<polygon fill="#ffffff" stroke="#000000" points="15.5,-126 15.5,-156 143.5,-156 143.5,-126 15.5,-126"/>
<text text-anchor="start" x="23.5" y="-144" font-family="Helvetica,sans-Serif" font-size="10.00" fill="#000000">csvio::util::MapDelimSplit</text>
<text text-anchor="middle" x="79.5" y="-133" font-family="Helvetica,sans-Serif" font-size="10.00" fill="#000000">Unescaped::operator()</text>
</a>
</g>
</g>
<!-- Node4&#45;&gt;Node5 -->
<g id="edge4" class="edge">
<title>Node4&#45;&gt;Node5</title>
<path fill="none" stroke="#191970" d="M201.7881,-141C182.7118,-141 162.3475,-141 143.8186,-141"/>
<polygon fill="#191970" stroke="#191970" points="201.9305,-144.5001 211.9304,-141 201.9304,-137.5001 201.9305,-144.5001"/>
</g>
<!-- Node7 -->
<g id="node7" class="node">
<title>Node7</title>
<g id="a_node7"><a xlink:href="structcsvio_1_1util_1_1DelimSplitUnescapedThreaded.html#ad6daec57cf7b70b5084918e306163b14" target="_top" xlink:title="split a csv row on a delimiter escaping the output strings threaded">
<polygon fill="#ffffff" stroke="#000000" points="0,-66 0,-96 159,-96 159,-66 0,-66"/>
<text text-anchor="start" x="8" y="-84" font-family="Helvetica,sans-Serif" font-size="10.00" fill="#000000">csvio::util::DelimSplitUnescaped</text>
<text text-anchor="middle" x="79.5" y="-73" font-family="Helvetica,sans-Serif" font-size="10.00" fill="#000000">Threaded::operator()</text>
</a>
</g>
</g>
<!-- Node6&#45;&gt;Node7 -->
<g id="edge6" class="edge">
<title>Node6&#45;&gt;Node7</title>
<path fill="none" stroke="#191970" d="M184.8854,-81C176.2767,-81 167.5947,-81 159.1054,-81"/>
<polygon fill="#191970" stroke="#191970" points="184.9415,-84.5001 194.9414,-81 184.9414,-77.5001 184.9415,-84.5001"/>
</g>
<!-- Node9 -->
<g id="node9" class="node">
<title>Node9</title>
<g id="a_node9"><a xlink:href="structcsvio_1_1util_1_1MapDelimSplitUnescapedThreaded.html#aaf451a0af23877ae7392c375660e388c" target="_top" xlink:title="split a csv row on a delimiter unescaping the output strings">
<polygon fill="#ffffff" stroke="#000000" points="2.5,-6 2.5,-36 156.5,-36 156.5,-6 2.5,-6"/>
<text text-anchor="start" x="10.5" y="-24" font-family="Helvetica,sans-Serif" font-size="10.00" fill="#000000">csvio::util::MapDelimSplit</text>
<text text-anchor="middle" x="79.5" y="-13" font-family="Helvetica,sans-Serif" font-size="10.00" fill="#000000">UnescapedThreaded::operator()</text>
</a>
</g>
</g>
<!-- Node8&#45;&gt;Node9 -->
<g id="edge8" class="edge">
<title>Node8&#45;&gt;Node9</title>
<path fill="none" stroke="#191970" d="M186.6186,-21C176.6691,-21 166.5974,-21 156.816,-21"/>
<polygon fill="#191970" stroke="#191970" points="186.9254,-24.5001 196.9253,-21 186.9253,-17.5001 186.9254,-24.5001"/>
</g>
</g>
</svg>
