<?xml version="1.0" encoding="UTF-8" standalone="no"?>
<!DOCTYPE svg PUBLIC "-//W3C//DTD SVG 1.1//EN"
 "http://www.w3.org/Graphics/SVG/1.1/DTD/svg11.dtd">
<!-- Generated by graphviz version 2.40.1 (20161225.0304)
 -->
<!-- Title: csvio::util::unescape Pages: 1 -->
<svg width="468pt" height="128pt"
 viewBox="0.00 0.00 468.00 127.50" xmlns="http://www.w3.org/2000/svg" xmlns:xlink="http://www.w3.org/1999/xlink">
<g id="graph0" class="graph" transform="scale(1 1) rotate(0) translate(4 123.5)">
<title>csvio::util::unescape</title>
<polygon fill="#ffffff" stroke="transparent" points="-4,4 -4,-123.5 464,-123.5 464,4 -4,4"/>
<!-- Node1 -->
<g id="node1" class="node">
<title>Node1</title>
<g id="a_node1"><a xlink:title="unescape a csv escaped string according to RFC 4180">
<polygon fill="#bfbfbf" stroke="#000000" points="353,-38.5 353,-57.5 460,-57.5 460,-38.5 353,-38.5"/>
<text text-anchor="middle" x="406.5" y="-45.5" font-family="Helvetica,sans-Serif" font-size="10.00" fill="#000000">csvio::util::unescape</text>
</a>
</g>
</g>
<!-- Node2 -->
<g id="node2" class="node">
<title>Node2</title>
<g id="a_node2"><a xlink:href="structcsvio_1_1util_1_1CSVInputParser.html#ad1317618ea1603f5085b7da5716681f7" target="_top" xlink:title="implementation of delim_split_unescaped">
<polygon fill="#ffffff" stroke="#000000" points="172,-61 172,-91 317,-91 317,-61 172,-61"/>
<text text-anchor="start" x="180" y="-79" font-family="Helvetica,sans-Serif" font-size="10.00" fill="#000000">csvio::util::CSVInputParser</text>
<text text-anchor="middle" x="244.5" y="-68" font-family="Helvetica,sans-Serif" font-size="10.00" fill="#000000">::delim_split_unescaped_impl</text>
</a>
</g>
</g>
<!-- Node1&#45;&gt;Node2 -->
<g id="edge1" class="edge">
<title>Node1&#45;&gt;Node2</title>
<path fill="none" stroke="#191970" d="M342.564,-59.0507C334.2494,-60.4878 325.6835,-61.9683 317.2386,-63.4279"/>
<polygon fill="#191970" stroke="#191970" points="343.2986,-62.4757 352.5563,-57.3236 342.1063,-55.578 343.2986,-62.4757"/>
</g>
<!-- Node5 -->
<g id="node5" class="node">
<title>Node5</title>
<g id="a_node5"><a xlink:href="structcsvio_1_1util_1_1CSVInputParser.html#a424a15e29ec6e1598740aee8460fe5f6" target="_top" xlink:title="implementation of delim_split_unescaped_threaded">
<polygon fill="#ffffff" stroke="#000000" points="176.5,-.5 176.5,-41.5 312.5,-41.5 312.5,-.5 176.5,-.5"/>
<text text-anchor="start" x="184.5" y="-29.5" font-family="Helvetica,sans-Serif" font-size="10.00" fill="#000000">csvio::util::CSVInputParser</text>
<text text-anchor="start" x="184.5" y="-18.5" font-family="Helvetica,sans-Serif" font-size="10.00" fill="#000000">::delim_split_unescaped</text>
<text text-anchor="middle" x="244.5" y="-7.5" font-family="Helvetica,sans-Serif" font-size="10.00" fill="#000000">_threaded_impl</text>
</a>
</g>
</g>
<!-- Node1&#45;&gt;Node5 -->
<g id="edge4" class="edge">
<title>Node1&#45;&gt;Node5</title>
<path fill="none" stroke="#191970" d="M342.4838,-37.3306C332.6727,-35.6954 322.5135,-34.0022 312.6176,-32.3529"/>
<polygon fill="#191970" stroke="#191970" points="342.117,-40.8177 352.5563,-39.0094 343.2678,-33.9129 342.117,-40.8177"/>
</g>
<!-- Node3 -->
<g id="node3" class="node">
<title>Node3</title>
<g id="a_node3"><a xlink:href="structcsvio_1_1util_1_1CSVInputParser.html#a6440779cb5cb6492302bb31d0af723bf" target="_top" xlink:title="split a csv row on a delimiter escaping the output strings">
<polygon fill="#ffffff" stroke="#000000" points="0,-89 0,-119 136,-119 136,-89 0,-89"/>
<text text-anchor="start" x="8" y="-107" font-family="Helvetica,sans-Serif" font-size="10.00" fill="#000000">csvio::util::CSVInputParser</text>
<text text-anchor="middle" x="68" y="-96" font-family="Helvetica,sans-Serif" font-size="10.00" fill="#000000">::delim_split_unescaped</text>
</a>
</g>
</g>
<!-- Node2&#45;&gt;Node3 -->
<g id="edge2" class="edge">
<title>Node2&#45;&gt;Node3</title>
<path fill="none" stroke="#191970" d="M161.8455,-89.1123C153.1956,-90.4845 144.4738,-91.8682 136.0142,-93.2102"/>
<polygon fill="#191970" stroke="#191970" points="162.6185,-92.5335 171.9466,-87.5099 161.5217,-85.62 162.6185,-92.5335"/>
</g>
<!-- Node4 -->
<g id="node4" class="node">
<title>Node4</title>
<g id="a_node4"><a xlink:href="structcsvio_1_1util_1_1CSVInputParser.html#a203f6bd23f4d0bf4f84b4e215c9a78d7" target="_top" xlink:title="split a csv row on a delimiter escaping the output strings threaded">
<polygon fill="#ffffff" stroke="#000000" points="0,-28.5 0,-69.5 136,-69.5 136,-28.5 0,-28.5"/>
<text text-anchor="start" x="8" y="-57.5" font-family="Helvetica,sans-Serif" font-size="10.00" fill="#000000">csvio::util::CSVInputParser</text>
<text text-anchor="start" x="8" y="-46.5" font-family="Helvetica,sans-Serif" font-size="10.00" fill="#000000">::delim_split_unescaped</text>
<text text-anchor="middle" x="68" y="-35.5" font-family="Helvetica,sans-Serif" font-size="10.00" fill="#000000">_threaded</text>
</a>
</g>
</g>
<!-- Node2&#45;&gt;Node4 -->
<g id="edge3" class="edge">
<title>Node2&#45;&gt;Node4</title>
<path fill="none" stroke="#191970" d="M161.8455,-63.356C153.1956,-62.0328 144.4738,-60.6985 136.0142,-59.4044"/>
<polygon fill="#191970" stroke="#191970" points="161.5323,-66.8487 171.9466,-64.9012 162.5909,-59.9292 161.5323,-66.8487"/>
</g>
</g>
</svg>
