<?xml version="1.0" encoding="UTF-8" standalone="no"?>
<!DOCTYPE svg PUBLIC "-//W3C//DTD SVG 1.1//EN"
 "http://www.w3.org/Graphics/SVG/1.1/DTD/svg11.dtd">
<!-- Generated by graphviz version 2.40.1 (20161225.0304)
 -->
<!-- Title: csvio::util::DelimSplitUnescapedThreaded::delim_split_unescaped_threaded_impl Pages: 1 -->
<svg width="381pt" height="78pt"
 viewBox="0.00 0.00 381.00 77.50" xmlns="http://www.w3.org/2000/svg" xmlns:xlink="http://www.w3.org/1999/xlink">
<g id="graph0" class="graph" transform="scale(1 1) rotate(0) translate(4 73.5)">
<title>csvio::util::DelimSplitUnescapedThreaded::delim_split_unescaped_threaded_impl</title>
<polygon fill="#ffffff" stroke="transparent" points="-4,4 -4,-73.5 377,-73.5 377,4 -4,4"/>
<!-- Node1 -->
<g id="node1" class="node">
<title>Node1</title>
<g id="a_node1"><a xlink:title="implementation of delim_split_unescaped_threaded">
<polygon fill="#bfbfbf" stroke="#000000" points="0,-11.5 0,-52.5 162,-52.5 162,-11.5 0,-11.5"/>
<text text-anchor="start" x="8" y="-40.5" font-family="Helvetica,sans-Serif" font-size="10.00" fill="#000000">csvio::util::DelimSplitUnescaped</text>
<text text-anchor="start" x="8" y="-29.5" font-family="Helvetica,sans-Serif" font-size="10.00" fill="#000000">Threaded::delim_split_unescaped</text>
<text text-anchor="middle" x="81" y="-18.5" font-family="Helvetica,sans-Serif" font-size="10.00" fill="#000000">_threaded_impl</text>
</a>
</g>
</g>
<!-- Node2 -->
<g id="node2" class="node">
<title>Node2</title>
<g id="a_node2"><a xlink:href="structcsvio_1_1util_1_1DelimSplitUnescapedThreaded.html#a21f3000c4de2ee2dcd1dc4764845dd41" target="_top" xlink:title="implementation of delim_split_escaped">
<polygon fill="#ffffff" stroke="#000000" points="198,-39 198,-69 373,-69 373,-39 198,-39"/>
<text text-anchor="start" x="206" y="-57" font-family="Helvetica,sans-Serif" font-size="10.00" fill="#000000">csvio::util::DelimSplitUnescaped</text>
<text text-anchor="middle" x="285.5" y="-46" font-family="Helvetica,sans-Serif" font-size="10.00" fill="#000000">Threaded::delim_split_escaped_impl</text>
</a>
</g>
</g>
<!-- Node1&#45;&gt;Node2 -->
<g id="edge1" class="edge">
<title>Node1&#45;&gt;Node2</title>
<path fill="none" stroke="#191970" d="M162.1175,-40.7266C170.5334,-41.6319 179.1489,-42.5588 187.7224,-43.4811"/>
<polygon fill="#191970" stroke="#191970" points="187.4362,-46.9705 197.7532,-44.5602 188.185,-40.0106 187.4362,-46.9705"/>
</g>
<!-- Node3 -->
<g id="node3" class="node">
<title>Node3</title>
<g id="a_node3"><a xlink:href="namespacecsvio_1_1util.html#a5b723dd3c5c5166dc82284ae15d19ba4" target="_top" xlink:title="unescape a csv escaped string according to RFC 4180">
<polygon fill="#ffffff" stroke="#000000" points="232,-.5 232,-19.5 339,-19.5 339,-.5 232,-.5"/>
<text text-anchor="middle" x="285.5" y="-7.5" font-family="Helvetica,sans-Serif" font-size="10.00" fill="#000000">csvio::util::unescape</text>
</a>
</g>
</g>
<!-- Node1&#45;&gt;Node3 -->
<g id="edge2" class="edge">
<title>Node1&#45;&gt;Node3</title>
<path fill="none" stroke="#191970" d="M162.1175,-23.2734C181.9679,-21.1379 202.9293,-18.8829 221.8299,-16.8496"/>
<polygon fill="#191970" stroke="#191970" points="222.2342,-20.3264 231.8024,-15.7768 221.4854,-13.3665 222.2342,-20.3264"/>
</g>
</g>
</svg>
