<?xml version="1.0" encoding="UTF-8" standalone="no"?>
<!DOCTYPE svg PUBLIC "-//W3C//DTD SVG 1.1//EN"
 "http://www.w3.org/Graphics/SVG/1.1/DTD/svg11.dtd">
<!-- Generated by graphviz version 2.40.1 (20161225.0304)
 -->
<!-- Title: csvio::util::MapDelimSplitUnescaped::operator() Pages: 1 -->
<svg width="464pt" height="88pt"
 viewBox="0.00 0.00 464.00 88.00" xmlns="http://www.w3.org/2000/svg" xmlns:xlink="http://www.w3.org/1999/xlink">
<g id="graph0" class="graph" transform="scale(1 1) rotate(0) translate(4 84)">
<title>csvio::util::MapDelimSplitUnescaped::operator()</title>
<polygon fill="#ffffff" stroke="transparent" points="-4,4 -4,-84 460,-84 460,4 -4,4"/>
<!-- Node1 -->
<g id="node1" class="node">
<title>Node1</title>
<g id="a_node1"><a xlink:title="split a csv row on a delimiter unescaping the output strings">
<polygon fill="#bfbfbf" stroke="#000000" points="0,-19 0,-49 128,-49 128,-19 0,-19"/>
<text text-anchor="start" x="8" y="-37" font-family="Helvetica,sans-Serif" font-size="10.00" fill="#000000">csvio::util::MapDelimSplit</text>
<text text-anchor="middle" x="64" y="-26" font-family="Helvetica,sans-Serif" font-size="10.00" fill="#000000">Unescaped::operator()</text>
</a>
</g>
</g>
<!-- Node2 -->
<g id="node2" class="node">
<title>Node2</title>
<g id="a_node2"><a xlink:href="structcsvio_1_1util_1_1MapDelimSplitUnescaped.html#af3ba4beb53d365e31e2e1d4476727775" target="_top" xlink:title="split and unescape the fields in the csv">
<polygon fill="#ffffff" stroke="#000000" points="164,-13.5 164,-54.5 292,-54.5 292,-13.5 164,-13.5"/>
<text text-anchor="start" x="172" y="-42.5" font-family="Helvetica,sans-Serif" font-size="10.00" fill="#000000">csvio::util::MapDelimSplit</text>
<text text-anchor="start" x="172" y="-31.5" font-family="Helvetica,sans-Serif" font-size="10.00" fill="#000000">Unescaped::delim_split</text>
<text text-anchor="middle" x="228" y="-20.5" font-family="Helvetica,sans-Serif" font-size="10.00" fill="#000000">_unescaped_impl</text>
</a>
</g>
</g>
<!-- Node1&#45;&gt;Node2 -->
<g id="edge1" class="edge">
<title>Node1&#45;&gt;Node2</title>
<path fill="none" stroke="#191970" d="M128.3464,-34C136.6401,-34 145.1868,-34 153.6248,-34"/>
<polygon fill="#191970" stroke="#191970" points="153.8392,-37.5001 163.8391,-34 153.8391,-30.5001 153.8392,-37.5001"/>
</g>
<!-- Node3 -->
<g id="node3" class="node">
<title>Node3</title>
<g id="a_node3"><a xlink:href="structcsvio_1_1util_1_1MapDelimSplitUnescaped.html#a809541ca924359726da415f9945bde4b" target="_top" xlink:title="implementation of delim_split_escaped for map types">
<polygon fill="#ffffff" stroke="#000000" points="328,-38.5 328,-79.5 456,-79.5 456,-38.5 328,-38.5"/>
<text text-anchor="start" x="336" y="-67.5" font-family="Helvetica,sans-Serif" font-size="10.00" fill="#000000">csvio::util::MapDelimSplit</text>
<text text-anchor="start" x="336" y="-56.5" font-family="Helvetica,sans-Serif" font-size="10.00" fill="#000000">Unescaped::delim_split</text>
<text text-anchor="middle" x="392" y="-45.5" font-family="Helvetica,sans-Serif" font-size="10.00" fill="#000000">_escaped_impl</text>
</a>
</g>
</g>
<!-- Node2&#45;&gt;Node3 -->
<g id="edge2" class="edge">
<title>Node2&#45;&gt;Node3</title>
<path fill="none" stroke="#191970" d="M292.3464,-43.8089C300.7313,-45.0871 309.3746,-46.4047 317.9029,-47.7047"/>
<polygon fill="#191970" stroke="#191970" points="317.4258,-51.1723 327.8391,-49.2194 318.4808,-44.2523 317.4258,-51.1723"/>
</g>
<!-- Node4 -->
<g id="node4" class="node">
<title>Node4</title>
<g id="a_node4"><a xlink:href="namespacecsvio_1_1util.html#a5b723dd3c5c5166dc82284ae15d19ba4" target="_top" xlink:title="unescape a csv escaped string according to RFC 4180">
<polygon fill="#ffffff" stroke="#000000" points="338.5,-.5 338.5,-19.5 445.5,-19.5 445.5,-.5 338.5,-.5"/>
<text text-anchor="middle" x="392" y="-7.5" font-family="Helvetica,sans-Serif" font-size="10.00" fill="#000000">csvio::util::unescape</text>
</a>
</g>
</g>
<!-- Node2&#45;&gt;Node4 -->
<g id="edge3" class="edge">
<title>Node2&#45;&gt;Node4</title>
<path fill="none" stroke="#191970" d="M292.3464,-24.5834C304.1455,-22.8568 316.4565,-21.0551 328.2383,-19.331"/>
<polygon fill="#191970" stroke="#191970" points="329.0419,-22.7507 338.4297,-17.8396 328.0283,-15.8245 329.0419,-22.7507"/>
</g>
</g>
</svg>
