<?xml version="1.0" encoding="UTF-8" standalone="no"?>
<!DOCTYPE svg PUBLIC "-//W3C//DTD SVG 1.1//EN"
 "http://www.w3.org/Graphics/SVG/1.1/DTD/svg11.dtd">
<!-- Generated by graphviz version 2.40.1 (20161225.0304)
 -->
<!-- Title: csvio::util::DelimSplitUnescaped::delim_split_unescaped_impl Pages: 1 -->
<svg width="362pt" height="78pt"
 viewBox="0.00 0.00 362.00 77.50" xmlns="http://www.w3.org/2000/svg" xmlns:xlink="http://www.w3.org/1999/xlink">
<g id="graph0" class="graph" transform="scale(1 1) rotate(0) translate(4 73.5)">
<title>csvio::util::DelimSplitUnescaped::delim_split_unescaped_impl</title>
<polygon fill="#ffffff" stroke="transparent" points="-4,4 -4,-73.5 358,-73.5 358,4 -4,4"/>
<!-- Node1 -->
<g id="node1" class="node">
<title>Node1</title>
<g id="a_node1"><a xlink:title="implementation of delim_split_unescaped">
<polygon fill="#bfbfbf" stroke="#000000" points="0,-17 0,-47 159,-47 159,-17 0,-17"/>
<text text-anchor="start" x="8" y="-35" font-family="Helvetica,sans-Serif" font-size="10.00" fill="#000000">csvio::util::DelimSplitUnescaped</text>
<text text-anchor="middle" x="79.5" y="-24" font-family="Helvetica,sans-Serif" font-size="10.00" fill="#000000">::delim_split_unescaped_impl</text>
</a>
</g>
</g>
<!-- Node2 -->
<g id="node2" class="node">
<title>Node2</title>
<g id="a_node2"><a xlink:href="structcsvio_1_1util_1_1DelimSplitUnescaped.html#a8ca436e96e3df6b582c953d8c49d1244" target="_top" xlink:title="implementation of delim_split_escaped">
<polygon fill="#ffffff" stroke="#000000" points="195,-39 195,-69 354,-69 354,-39 195,-39"/>
<text text-anchor="start" x="203" y="-57" font-family="Helvetica,sans-Serif" font-size="10.00" fill="#000000">csvio::util::DelimSplitUnescaped</text>
<text text-anchor="middle" x="274.5" y="-46" font-family="Helvetica,sans-Serif" font-size="10.00" fill="#000000">::delim_split_escaped_impl</text>
</a>
</g>
</g>
<!-- Node1&#45;&gt;Node2 -->
<g id="edge1" class="edge">
<title>Node1&#45;&gt;Node2</title>
<path fill="none" stroke="#191970" d="M159.0952,-40.98C167.5728,-41.9364 176.2374,-42.914 184.8207,-43.8823"/>
<polygon fill="#191970" stroke="#191970" points="184.5139,-47.3698 194.8432,-45.0131 185.2987,-40.414 184.5139,-47.3698"/>
</g>
<!-- Node3 -->
<g id="node3" class="node">
<title>Node3</title>
<g id="a_node3"><a xlink:href="namespacecsvio_1_1util.html#a5b723dd3c5c5166dc82284ae15d19ba4" target="_top" xlink:title="unescape a csv escaped string according to RFC 4180">
<polygon fill="#ffffff" stroke="#000000" points="221,-.5 221,-19.5 328,-19.5 328,-.5 221,-.5"/>
<text text-anchor="middle" x="274.5" y="-7.5" font-family="Helvetica,sans-Serif" font-size="10.00" fill="#000000">csvio::util::unescape</text>
</a>
</g>
</g>
<!-- Node1&#45;&gt;Node3 -->
<g id="edge2" class="edge">
<title>Node1&#45;&gt;Node3</title>
<path fill="none" stroke="#191970" d="M159.0952,-23.02C176.2758,-21.0817 194.2246,-19.0567 210.7076,-17.1971"/>
<polygon fill="#191970" stroke="#191970" points="211.2167,-20.6619 220.7613,-16.0628 210.4319,-13.7061 211.2167,-20.6619"/>
</g>
</g>
</svg>
