<?xml version="1.0" encoding="UTF-8" standalone="no"?>
<!DOCTYPE svg PUBLIC "-//W3C//DTD SVG 1.1//EN"
 "http://www.w3.org/Graphics/SVG/1.1/DTD/svg11.dtd">
<!-- Generated by graphviz version 2.40.1 (20161225.0304)
 -->
<!-- Title: csvio::util::MapDelimSplitUnescapedThreaded::delim_split_escaped_impl Pages: 1 -->
<svg width="528pt" height="50pt"
 viewBox="0.00 0.00 528.00 50.00" xmlns="http://www.w3.org/2000/svg" xmlns:xlink="http://www.w3.org/1999/xlink">
<g id="graph0" class="graph" transform="scale(1 1) rotate(0) translate(4 46)">
<title>csvio::util::MapDelimSplitUnescapedThreaded::delim_split_escaped_impl</title>
<polygon fill="#ffffff" stroke="transparent" points="-4,4 -4,-46 524,-46 524,4 -4,4"/>
<!-- Node1 -->
<g id="node1" class="node">
<title>Node1</title>
<g id="a_node1"><a xlink:title="implementation of delim_split_escaped for map types">
<polygon fill="#bfbfbf" stroke="#000000" points="384,-.5 384,-41.5 520,-41.5 520,-.5 384,-.5"/>
<text text-anchor="start" x="392" y="-29.5" font-family="Helvetica,sans-Serif" font-size="10.00" fill="#000000">csvio::util::MapDelimSplit</text>
<text text-anchor="start" x="392" y="-18.5" font-family="Helvetica,sans-Serif" font-size="10.00" fill="#000000">UnescapedThreaded::delim</text>
<text text-anchor="middle" x="452" y="-7.5" font-family="Helvetica,sans-Serif" font-size="10.00" fill="#000000">_split_escaped_impl</text>
</a>
</g>
</g>
<!-- Node2 -->
<g id="node2" class="node">
<title>Node2</title>
<g id="a_node2"><a xlink:href="structcsvio_1_1util_1_1MapDelimSplitUnescapedThreaded.html#ac73141820ec96c7fe1967a87f3febf48" target="_top" xlink:title="split and unescape the fields in the csv with a thread for each value">
<polygon fill="#ffffff" stroke="#000000" points="190,-.5 190,-41.5 348,-41.5 348,-.5 190,-.5"/>
<text text-anchor="start" x="198" y="-29.5" font-family="Helvetica,sans-Serif" font-size="10.00" fill="#000000">csvio::util::MapDelimSplit</text>
<text text-anchor="start" x="198" y="-18.5" font-family="Helvetica,sans-Serif" font-size="10.00" fill="#000000">UnescapedThreaded::delim</text>
<text text-anchor="middle" x="269" y="-7.5" font-family="Helvetica,sans-Serif" font-size="10.00" fill="#000000">_split_unescaped_threaded_impl</text>
</a>
</g>
</g>
<!-- Node1&#45;&gt;Node2 -->
<g id="edge1" class="edge">
<title>Node1&#45;&gt;Node2</title>
<path fill="none" stroke="#191970" d="M373.6969,-21C365.2891,-21 356.7296,-21 348.3102,-21"/>
<polygon fill="#191970" stroke="#191970" points="373.8576,-24.5001 383.8576,-21 373.8575,-17.5001 373.8576,-24.5001"/>
</g>
<!-- Node3 -->
<g id="node3" class="node">
<title>Node3</title>
<g id="a_node3"><a xlink:href="structcsvio_1_1util_1_1MapDelimSplitUnescapedThreaded.html#aaf451a0af23877ae7392c375660e388c" target="_top" xlink:title="split a csv row on a delimiter unescaping the output strings">
<polygon fill="#ffffff" stroke="#000000" points="0,-6 0,-36 154,-36 154,-6 0,-6"/>
<text text-anchor="start" x="8" y="-24" font-family="Helvetica,sans-Serif" font-size="10.00" fill="#000000">csvio::util::MapDelimSplit</text>
<text text-anchor="middle" x="77" y="-13" font-family="Helvetica,sans-Serif" font-size="10.00" fill="#000000">UnescapedThreaded::operator()</text>
</a>
</g>
</g>
<!-- Node2&#45;&gt;Node3 -->
<g id="edge2" class="edge">
<title>Node2&#45;&gt;Node3</title>
<path fill="none" stroke="#191970" d="M179.7956,-21C171.2329,-21 162.5978,-21 154.1645,-21"/>
<polygon fill="#191970" stroke="#191970" points="179.7978,-24.5001 189.7978,-21 179.7977,-17.5001 179.7978,-24.5001"/>
</g>
</g>
</svg>
