<?xml version="1.0" encoding="UTF-8" standalone="no"?>
<!DOCTYPE svg PUBLIC "-//W3C//DTD SVG 1.1//EN"
 "http://www.w3.org/Graphics/SVG/1.1/DTD/svg11.dtd">
<!-- Generated by graphviz version 2.40.1 (20161225.0304)
 -->
<!-- Title: csvio::util::DelimJoinUnescapedFormat&lt; RowContainer &gt; Pages: 1 -->
<svg width="166pt" height="288pt"
 viewBox="0.00 0.00 166.00 288.00" xmlns="http://www.w3.org/2000/svg" xmlns:xlink="http://www.w3.org/1999/xlink">
<g id="graph0" class="graph" transform="scale(1 1) rotate(0) translate(4 284)">
<title>csvio::util::DelimJoinUnescapedFormat&lt; RowContainer &gt;</title>
<polygon fill="#ffffff" stroke="transparent" points="-4,4 -4,-284 162,-284 162,4 -4,4"/>
<!-- Node1 -->
<g id="node1" class="node">
<title>Node1</title>
<g id="a_node1"><a xlink:title="Join a CSV on a delimiter leaving each field unescaped.">
<polygon fill="#bfbfbf" stroke="#000000" points="0,-.5 0,-68.5 158,-68.5 158,-.5 0,-.5"/>
<text text-anchor="start" x="8" y="-56.5" font-family="Helvetica,sans-Serif" font-size="10.00" fill="#000000">csvio::util::DelimJoinUnescaped</text>
<text text-anchor="middle" x="79" y="-45.5" font-family="Helvetica,sans-Serif" font-size="10.00" fill="#000000">Format&lt; RowContainer &gt;</text>
<polyline fill="none" stroke="#000000" points="0,-38.5 158,-38.5 "/>
<text text-anchor="middle" x="79" y="-26.5" font-family="Helvetica,sans-Serif" font-size="10.00" fill="#000000"> </text>
<polyline fill="none" stroke="#000000" points="0,-19.5 158,-19.5 "/>
<text text-anchor="start" x="8" y="-7.5" font-family="Helvetica,sans-Serif" font-size="10.00" fill="#000000">+ operator()()</text>
</a>
</g>
</g>
<!-- Node2 -->
<g id="node2" class="node">
<title>Node2</title>
<g id="a_node2"><a xlink:title="STL class.">
<polygon fill="#ffffff" stroke="#bfbfbf" points="49,-116.5 49,-173.5 109,-173.5 109,-116.5 49,-116.5"/>
<text text-anchor="middle" x="79" y="-161.5" font-family="Helvetica,sans-Serif" font-size="10.00" fill="#000000">std::string</text>
<polyline fill="none" stroke="#bfbfbf" points="49,-154.5 109,-154.5 "/>
<text text-anchor="middle" x="79" y="-142.5" font-family="Helvetica,sans-Serif" font-size="10.00" fill="#000000"> </text>
<polyline fill="none" stroke="#bfbfbf" points="49,-135.5 109,-135.5 "/>
<text text-anchor="middle" x="79" y="-123.5" font-family="Helvetica,sans-Serif" font-size="10.00" fill="#000000"> </text>
</a>
</g>
</g>
<!-- Node2&#45;&gt;Node1 -->
<g id="edge1" class="edge">
<title>Node2&#45;&gt;Node1</title>
<path fill="none" stroke="#404040" d="M79,-116.2559C79,-105.4349 79,-92.8362 79,-80.8169"/>
<polygon fill="none" stroke="#404040" points="79.0001,-80.6001 75,-74.6001 79,-68.6001 83,-74.6 79.0001,-80.6001"/>
<text text-anchor="middle" x="100" y="-90" font-family="Helvetica,sans-Serif" font-size="10.00" fill="#000000"> +m_data</text>
</g>
<!-- Node3 -->
<g id="node3" class="node">
<title>Node3</title>
<g id="a_node3"><a xlink:title="STL class.">
<polygon fill="#ffffff" stroke="#bfbfbf" points="31.5,-211.5 31.5,-279.5 126.5,-279.5 126.5,-211.5 31.5,-211.5"/>
<text text-anchor="start" x="39.5" y="-267.5" font-family="Helvetica,sans-Serif" font-size="10.00" fill="#000000">std::basic_string&lt;</text>
<text text-anchor="middle" x="79" y="-256.5" font-family="Helvetica,sans-Serif" font-size="10.00" fill="#000000"> char &gt;</text>
<polyline fill="none" stroke="#bfbfbf" points="31.5,-249.5 126.5,-249.5 "/>
<text text-anchor="middle" x="79" y="-237.5" font-family="Helvetica,sans-Serif" font-size="10.00" fill="#000000"> </text>
<polyline fill="none" stroke="#bfbfbf" points="31.5,-230.5 126.5,-230.5 "/>
<text text-anchor="middle" x="79" y="-218.5" font-family="Helvetica,sans-Serif" font-size="10.00" fill="#000000"> </text>
</a>
</g>
</g>
<!-- Node3&#45;&gt;Node2 -->
<g id="edge2" class="edge">
<title>Node3&#45;&gt;Node2</title>
<path fill="none" stroke="#191970" d="M79,-201.4301C79,-192.0073 79,-182.2901 79,-173.6312"/>
<polygon fill="none" stroke="#191970" points="75.5001,-201.4752 79,-211.4753 82.5001,-201.4753 75.5001,-201.4752"/>
</g>
</g>
</svg>
