<?xml version="1.0" encoding="UTF-8" standalone="no"?>
<!DOCTYPE svg PUBLIC "-//W3C//DTD SVG 1.1//EN"
 "http://www.w3.org/Graphics/SVG/1.1/DTD/svg11.dtd">
<!-- Generated by graphviz version 2.40.1 (20161225.0304)
 -->
<!-- Title: csvio::util::CSVInputParser::delim_split_unescaped_impl Pages: 1 -->
<svg width="325pt" height="78pt"
 viewBox="0.00 0.00 325.00 77.50" xmlns="http://www.w3.org/2000/svg" xmlns:xlink="http://www.w3.org/1999/xlink">
<g id="graph0" class="graph" transform="scale(1 1) rotate(0) translate(4 73.5)">
<title>csvio::util::CSVInputParser::delim_split_unescaped_impl</title>
<polygon fill="#ffffff" stroke="transparent" points="-4,4 -4,-73.5 321,-73.5 321,4 -4,4"/>
<!-- Node1 -->
<g id="node1" class="node">
<title>Node1</title>
<g id="a_node1"><a xlink:title="implementation of delim_split_unescaped">
<polygon fill="#bfbfbf" stroke="#000000" points="0,-17 0,-47 145,-47 145,-17 0,-17"/>
<text text-anchor="start" x="8" y="-35" font-family="Helvetica,sans-Serif" font-size="10.00" fill="#000000">csvio::util::CSVInputParser</text>
<text text-anchor="middle" x="72.5" y="-24" font-family="Helvetica,sans-Serif" font-size="10.00" fill="#000000">::delim_split_unescaped_impl</text>
</a>
</g>
</g>
<!-- Node2 -->
<g id="node2" class="node">
<title>Node2</title>
<g id="a_node2"><a xlink:href="structcsvio_1_1util_1_1CSVInputParser.html#a09223945cc9e4fa21a7c1d61759c1d1d" target="_top" xlink:title="implementation of delim_split_escaped">
<polygon fill="#ffffff" stroke="#000000" points="181,-39 181,-69 317,-69 317,-39 181,-39"/>
<text text-anchor="start" x="189" y="-57" font-family="Helvetica,sans-Serif" font-size="10.00" fill="#000000">csvio::util::CSVInputParser</text>
<text text-anchor="middle" x="249" y="-46" font-family="Helvetica,sans-Serif" font-size="10.00" fill="#000000">::delim_split_escaped_impl</text>
</a>
</g>
</g>
<!-- Node1&#45;&gt;Node2 -->
<g id="edge1" class="edge">
<title>Node1&#45;&gt;Node2</title>
<path fill="none" stroke="#191970" d="M145.0534,-41.0435C153.5958,-42.1083 162.3409,-43.1983 170.9545,-44.272"/>
<polygon fill="#191970" stroke="#191970" points="170.6297,-47.7585 180.9858,-45.5223 171.4956,-40.8122 170.6297,-47.7585"/>
</g>
<!-- Node3 -->
<g id="node3" class="node">
<title>Node3</title>
<g id="a_node3"><a xlink:href="namespacecsvio_1_1util.html#a089aafabb17e8a588ce85de77dc70231" target="_top" xlink:title="unescape a csv escaped string according to RFC 4180">
<polygon fill="#ffffff" stroke="#000000" points="195.5,-.5 195.5,-19.5 302.5,-19.5 302.5,-.5 195.5,-.5"/>
<text text-anchor="middle" x="249" y="-7.5" font-family="Helvetica,sans-Serif" font-size="10.00" fill="#000000">csvio::util::unescape</text>
</a>
</g>
</g>
<!-- Node1&#45;&gt;Node3 -->
<g id="edge2" class="edge">
<title>Node1&#45;&gt;Node3</title>
<path fill="none" stroke="#191970" d="M145.0534,-22.9565C158.3327,-21.3013 172.1019,-19.585 185.1057,-17.9642"/>
<polygon fill="#191970" stroke="#191970" points="185.8561,-21.3978 195.3464,-16.6877 184.9902,-14.4515 185.8561,-21.3978"/>
</g>
</g>
</svg>
