<?xml version="1.0" encoding="UTF-8" standalone="no"?>
<!DOCTYPE svg PUBLIC "-//W3C//DTD SVG 1.1//EN"
 "http://www.w3.org/Graphics/SVG/1.1/DTD/svg11.dtd">
<!-- Generated by graphviz version 2.40.1 (20161225.0304)
 -->
<!-- Title: csvio::util::DelimSplitUnescapedThreaded::delim_split_escaped_impl Pages: 1 -->
<svg width="576pt" height="50pt"
 viewBox="0.00 0.00 576.00 50.00" xmlns="http://www.w3.org/2000/svg" xmlns:xlink="http://www.w3.org/1999/xlink">
<g id="graph0" class="graph" transform="scale(1 1) rotate(0) translate(4 46)">
<title>csvio::util::DelimSplitUnescapedThreaded::delim_split_escaped_impl</title>
<polygon fill="#ffffff" stroke="transparent" points="-4,4 -4,-46 572,-46 572,4 -4,4"/>
<!-- Node1 -->
<g id="node1" class="node">
<title>Node1</title>
<g id="a_node1"><a xlink:title="implementation of delim_split_escaped">
<polygon fill="#bfbfbf" stroke="#000000" points="393,-6 393,-36 568,-36 568,-6 393,-6"/>
<text text-anchor="start" x="401" y="-24" font-family="Helvetica,sans-Serif" font-size="10.00" fill="#000000">csvio::util::DelimSplitUnescaped</text>
<text text-anchor="middle" x="480.5" y="-13" font-family="Helvetica,sans-Serif" font-size="10.00" fill="#000000">Threaded::delim_split_escaped_impl</text>
</a>
</g>
</g>
<!-- Node2 -->
<g id="node2" class="node">
<title>Node2</title>
<g id="a_node2"><a xlink:href="structcsvio_1_1util_1_1DelimSplitUnescapedThreaded.html#a39c063ea5b6d655f907c7b8540a36373" target="_top" xlink:title="implementation of delim_split_unescaped_threaded">
<polygon fill="#ffffff" stroke="#000000" points="195,-.5 195,-41.5 357,-41.5 357,-.5 195,-.5"/>
<text text-anchor="start" x="203" y="-29.5" font-family="Helvetica,sans-Serif" font-size="10.00" fill="#000000">csvio::util::DelimSplitUnescaped</text>
<text text-anchor="start" x="203" y="-18.5" font-family="Helvetica,sans-Serif" font-size="10.00" fill="#000000">Threaded::delim_split_unescaped</text>
<text text-anchor="middle" x="276" y="-7.5" font-family="Helvetica,sans-Serif" font-size="10.00" fill="#000000">_threaded_impl</text>
</a>
</g>
</g>
<!-- Node1&#45;&gt;Node2 -->
<g id="edge1" class="edge">
<title>Node1&#45;&gt;Node2</title>
<path fill="none" stroke="#191970" d="M382.8648,-21C374.301,-21 365.6939,-21 357.2845,-21"/>
<polygon fill="#191970" stroke="#191970" points="382.8837,-24.5001 392.8837,-21 382.8836,-17.5001 382.8837,-24.5001"/>
</g>
<!-- Node3 -->
<g id="node3" class="node">
<title>Node3</title>
<g id="a_node3"><a xlink:href="structcsvio_1_1util_1_1DelimSplitUnescapedThreaded.html#ad6daec57cf7b70b5084918e306163b14" target="_top" xlink:title="split a csv row on a delimiter escaping the output strings threaded">
<polygon fill="#ffffff" stroke="#000000" points="0,-6 0,-36 159,-36 159,-6 0,-6"/>
<text text-anchor="start" x="8" y="-24" font-family="Helvetica,sans-Serif" font-size="10.00" fill="#000000">csvio::util::DelimSplitUnescaped</text>
<text text-anchor="middle" x="79.5" y="-13" font-family="Helvetica,sans-Serif" font-size="10.00" fill="#000000">Threaded::operator()</text>
</a>
</g>
</g>
<!-- Node2&#45;&gt;Node3 -->
<g id="edge2" class="edge">
<title>Node2&#45;&gt;Node3</title>
<path fill="none" stroke="#191970" d="M184.8854,-21C176.2767,-21 167.5947,-21 159.1054,-21"/>
<polygon fill="#191970" stroke="#191970" points="184.9415,-24.5001 194.9414,-21 184.9414,-17.5001 184.9415,-24.5001"/>
</g>
</g>
</svg>
