<?xml version="1.0" encoding="UTF-8" standalone="no"?>
<!DOCTYPE svg PUBLIC "-//W3C//DTD SVG 1.1//EN"
 "http://www.w3.org/Graphics/SVG/1.1/DTD/svg11.dtd">
<!-- Generated by graphviz version 2.40.1 (20161225.0304)
 -->
<!-- Title: csvio::util::DelimSplitUnescapedThreaded::operator() Pages: 1 -->
<svg width="576pt" height="78pt"
 viewBox="0.00 0.00 576.00 77.50" xmlns="http://www.w3.org/2000/svg" xmlns:xlink="http://www.w3.org/1999/xlink">
<g id="graph0" class="graph" transform="scale(1 1) rotate(0) translate(4 73.5)">
<title>csvio::util::DelimSplitUnescapedThreaded::operator()</title>
<polygon fill="#ffffff" stroke="transparent" points="-4,4 -4,-73.5 572,-73.5 572,4 -4,4"/>
<!-- Node1 -->
<g id="node1" class="node">
<title>Node1</title>
<g id="a_node1"><a xlink:title="split a csv row on a delimiter escaping the output strings threaded">
<polygon fill="#bfbfbf" stroke="#000000" points="0,-17 0,-47 159,-47 159,-17 0,-17"/>
<text text-anchor="start" x="8" y="-35" font-family="Helvetica,sans-Serif" font-size="10.00" fill="#000000">csvio::util::DelimSplitUnescaped</text>
<text text-anchor="middle" x="79.5" y="-24" font-family="Helvetica,sans-Serif" font-size="10.00" fill="#000000">Threaded::operator()</text>
</a>
</g>
</g>
<!-- Node2 -->
<g id="node2" class="node">
<title>Node2</title>
<g id="a_node2"><a xlink:href="structcsvio_1_1util_1_1DelimSplitUnescapedThreaded.html#a39c063ea5b6d655f907c7b8540a36373" target="_top" xlink:title="implementation of delim_split_unescaped_threaded">
<polygon fill="#ffffff" stroke="#000000" points="195,-11.5 195,-52.5 357,-52.5 357,-11.5 195,-11.5"/>
<text text-anchor="start" x="203" y="-40.5" font-family="Helvetica,sans-Serif" font-size="10.00" fill="#000000">csvio::util::DelimSplitUnescaped</text>
<text text-anchor="start" x="203" y="-29.5" font-family="Helvetica,sans-Serif" font-size="10.00" fill="#000000">Threaded::delim_split_unescaped</text>
<text text-anchor="middle" x="276" y="-18.5" font-family="Helvetica,sans-Serif" font-size="10.00" fill="#000000">_threaded_impl</text>
</a>
</g>
</g>
<!-- Node1&#45;&gt;Node2 -->
<g id="edge1" class="edge">
<title>Node1&#45;&gt;Node2</title>
<path fill="none" stroke="#191970" d="M159.1408,-32C167.6284,-32 176.3082,-32 184.9144,-32"/>
<polygon fill="#191970" stroke="#191970" points="184.9675,-35.5001 194.9675,-32 184.9675,-28.5001 184.9675,-35.5001"/>
</g>
<!-- Node3 -->
<g id="node3" class="node">
<title>Node3</title>
<g id="a_node3"><a xlink:href="structcsvio_1_1util_1_1DelimSplitUnescapedThreaded.html#a21f3000c4de2ee2dcd1dc4764845dd41" target="_top" xlink:title="implementation of delim_split_escaped">
<polygon fill="#ffffff" stroke="#000000" points="393,-39 393,-69 568,-69 568,-39 393,-39"/>
<text text-anchor="start" x="401" y="-57" font-family="Helvetica,sans-Serif" font-size="10.00" fill="#000000">csvio::util::DelimSplitUnescaped</text>
<text text-anchor="middle" x="480.5" y="-46" font-family="Helvetica,sans-Serif" font-size="10.00" fill="#000000">Threaded::delim_split_escaped_impl</text>
</a>
</g>
</g>
<!-- Node2&#45;&gt;Node3 -->
<g id="edge2" class="edge">
<title>Node2&#45;&gt;Node3</title>
<path fill="none" stroke="#191970" d="M357.1175,-40.7266C365.5334,-41.6319 374.1489,-42.5588 382.7224,-43.4811"/>
<polygon fill="#191970" stroke="#191970" points="382.4362,-46.9705 392.7532,-44.5602 383.185,-40.0106 382.4362,-46.9705"/>
</g>
<!-- Node4 -->
<g id="node4" class="node">
<title>Node4</title>
<g id="a_node4"><a xlink:href="namespacecsvio_1_1util.html#a5b723dd3c5c5166dc82284ae15d19ba4" target="_top" xlink:title="unescape a csv escaped string according to RFC 4180">
<polygon fill="#ffffff" stroke="#000000" points="427,-.5 427,-19.5 534,-19.5 534,-.5 427,-.5"/>
<text text-anchor="middle" x="480.5" y="-7.5" font-family="Helvetica,sans-Serif" font-size="10.00" fill="#000000">csvio::util::unescape</text>
</a>
</g>
</g>
<!-- Node2&#45;&gt;Node4 -->
<g id="edge3" class="edge">
<title>Node2&#45;&gt;Node4</title>
<path fill="none" stroke="#191970" d="M357.1175,-23.2734C376.9679,-21.1379 397.9293,-18.8829 416.8299,-16.8496"/>
<polygon fill="#191970" stroke="#191970" points="417.2342,-20.3264 426.8024,-15.7768 416.4854,-13.3665 417.2342,-20.3264"/>
</g>
</g>
</svg>
