<?xml version="1.0" encoding="UTF-8" standalone="no"?>
<!DOCTYPE svg PUBLIC "-//W3C//DTD SVG 1.1//EN"
 "http://www.w3.org/Graphics/SVG/1.1/DTD/svg11.dtd">
<!-- Generated by graphviz version 2.40.1 (20161225.0304)
 -->
<!-- Title: csvio::util::MapDelimSplitUnescaped::delim_split_escaped_impl Pages: 1 -->
<svg width="464pt" height="50pt"
 viewBox="0.00 0.00 464.00 50.00" xmlns="http://www.w3.org/2000/svg" xmlns:xlink="http://www.w3.org/1999/xlink">
<g id="graph0" class="graph" transform="scale(1 1) rotate(0) translate(4 46)">
<title>csvio::util::MapDelimSplitUnescaped::delim_split_escaped_impl</title>
<polygon fill="#ffffff" stroke="transparent" points="-4,4 -4,-46 460,-46 460,4 -4,4"/>
<!-- Node1 -->
<g id="node1" class="node">
<title>Node1</title>
<g id="a_node1"><a xlink:title="implementation of delim_split_escaped for map types">
<polygon fill="#bfbfbf" stroke="#000000" points="328,-.5 328,-41.5 456,-41.5 456,-.5 328,-.5"/>
<text text-anchor="start" x="336" y="-29.5" font-family="Helvetica,sans-Serif" font-size="10.00" fill="#000000">csvio::util::MapDelimSplit</text>
<text text-anchor="start" x="336" y="-18.5" font-family="Helvetica,sans-Serif" font-size="10.00" fill="#000000">Unescaped::delim_split</text>
<text text-anchor="middle" x="392" y="-7.5" font-family="Helvetica,sans-Serif" font-size="10.00" fill="#000000">_escaped_impl</text>
</a>
</g>
</g>
<!-- Node2 -->
<g id="node2" class="node">
<title>Node2</title>
<g id="a_node2"><a xlink:href="structcsvio_1_1util_1_1MapDelimSplitUnescaped.html#af3ba4beb53d365e31e2e1d4476727775" target="_top" xlink:title="split and unescape the fields in the csv">
<polygon fill="#ffffff" stroke="#000000" points="164,-.5 164,-41.5 292,-41.5 292,-.5 164,-.5"/>
<text text-anchor="start" x="172" y="-29.5" font-family="Helvetica,sans-Serif" font-size="10.00" fill="#000000">csvio::util::MapDelimSplit</text>
<text text-anchor="start" x="172" y="-18.5" font-family="Helvetica,sans-Serif" font-size="10.00" fill="#000000">Unescaped::delim_split</text>
<text text-anchor="middle" x="228" y="-7.5" font-family="Helvetica,sans-Serif" font-size="10.00" fill="#000000">_unescaped_impl</text>
</a>
</g>
</g>
<!-- Node1&#45;&gt;Node2 -->
<g id="edge1" class="edge">
<title>Node1&#45;&gt;Node2</title>
<path fill="none" stroke="#191970" d="M317.4359,-21C308.9963,-21 300.4508,-21 292.1609,-21"/>
<polygon fill="#191970" stroke="#191970" points="317.6536,-24.5001 327.6536,-21 317.6535,-17.5001 317.6536,-24.5001"/>
</g>
<!-- Node3 -->
<g id="node3" class="node">
<title>Node3</title>
<g id="a_node3"><a xlink:href="structcsvio_1_1util_1_1MapDelimSplitUnescaped.html#a5d2d66d98a69365b555fbe8394b64a5b" target="_top" xlink:title="split a csv row on a delimiter unescaping the output strings">
<polygon fill="#ffffff" stroke="#000000" points="0,-6 0,-36 128,-36 128,-6 0,-6"/>
<text text-anchor="start" x="8" y="-24" font-family="Helvetica,sans-Serif" font-size="10.00" fill="#000000">csvio::util::MapDelimSplit</text>
<text text-anchor="middle" x="64" y="-13" font-family="Helvetica,sans-Serif" font-size="10.00" fill="#000000">Unescaped::operator()</text>
</a>
</g>
</g>
<!-- Node2&#45;&gt;Node3 -->
<g id="edge2" class="edge">
<title>Node2&#45;&gt;Node3</title>
<path fill="none" stroke="#191970" d="M153.4359,-21C144.9963,-21 136.4508,-21 128.1609,-21"/>
<polygon fill="#191970" stroke="#191970" points="153.6536,-24.5001 163.6536,-21 153.6535,-17.5001 153.6536,-24.5001"/>
</g>
</g>
</svg>
