<?xml version="1.0" encoding="UTF-8" standalone="no"?>
<!DOCTYPE svg PUBLIC "-//W3C//DTD SVG 1.1//EN"
 "http://www.w3.org/Graphics/SVG/1.1/DTD/svg11.dtd">
<!-- Generated by graphviz version 2.40.1 (20161225.0304)
 -->
<!-- Title: csvio::util::CSVInputParser::delim_split_unescaped_threaded_impl Pages: 1 -->
<svg width="316pt" height="78pt"
 viewBox="0.00 0.00 316.00 77.50" xmlns="http://www.w3.org/2000/svg" xmlns:xlink="http://www.w3.org/1999/xlink">
<g id="graph0" class="graph" transform="scale(1 1) rotate(0) translate(4 73.5)">
<title>csvio::util::CSVInputParser::delim_split_unescaped_threaded_impl</title>
<polygon fill="#ffffff" stroke="transparent" points="-4,4 -4,-73.5 312,-73.5 312,4 -4,4"/>
<!-- Node1 -->
<g id="node1" class="node">
<title>Node1</title>
<g id="a_node1"><a xlink:title="implementation of delim_split_unescaped_threaded">
<polygon fill="#bfbfbf" stroke="#000000" points="0,-11.5 0,-52.5 136,-52.5 136,-11.5 0,-11.5"/>
<text text-anchor="start" x="8" y="-40.5" font-family="Helvetica,sans-Serif" font-size="10.00" fill="#000000">csvio::util::CSVInputParser</text>
<text text-anchor="start" x="8" y="-29.5" font-family="Helvetica,sans-Serif" font-size="10.00" fill="#000000">::delim_split_unescaped</text>
<text text-anchor="middle" x="68" y="-18.5" font-family="Helvetica,sans-Serif" font-size="10.00" fill="#000000">_threaded_impl</text>
</a>
</g>
</g>
<!-- Node2 -->
<g id="node2" class="node">
<title>Node2</title>
<g id="a_node2"><a xlink:href="structcsvio_1_1util_1_1CSVInputParser.html#a09223945cc9e4fa21a7c1d61759c1d1d" target="_top" xlink:title="implementation of delim_split_escaped">
<polygon fill="#ffffff" stroke="#000000" points="172,-39 172,-69 308,-69 308,-39 172,-39"/>
<text text-anchor="start" x="180" y="-57" font-family="Helvetica,sans-Serif" font-size="10.00" fill="#000000">csvio::util::CSVInputParser</text>
<text text-anchor="middle" x="240" y="-46" font-family="Helvetica,sans-Serif" font-size="10.00" fill="#000000">::delim_split_escaped_impl</text>
</a>
</g>
</g>
<!-- Node1&#45;&gt;Node2 -->
<g id="edge1" class="edge">
<title>Node1&#45;&gt;Node2</title>
<path fill="none" stroke="#191970" d="M136.4732,-40.7582C144.7318,-41.8145 153.2157,-42.8997 161.6024,-43.9724"/>
<polygon fill="#191970" stroke="#191970" points="161.3991,-47.4748 171.7624,-45.2719 162.2873,-40.5314 161.3991,-47.4748"/>
</g>
<!-- Node3 -->
<g id="node3" class="node">
<title>Node3</title>
<g id="a_node3"><a xlink:href="namespacecsvio_1_1util.html#a089aafabb17e8a588ce85de77dc70231" target="_top" xlink:title="unescape a csv escaped string according to RFC 4180">
<polygon fill="#ffffff" stroke="#000000" points="186.5,-.5 186.5,-19.5 293.5,-19.5 293.5,-.5 186.5,-.5"/>
<text text-anchor="middle" x="240" y="-7.5" font-family="Helvetica,sans-Serif" font-size="10.00" fill="#000000">csvio::util::unescape</text>
</a>
</g>
</g>
<!-- Node1&#45;&gt;Node3 -->
<g id="edge2" class="edge">
<title>Node1&#45;&gt;Node3</title>
<path fill="none" stroke="#191970" d="M136.4732,-23.2418C149.5572,-21.5683 163.2065,-19.8224 176.139,-18.1683"/>
<polygon fill="#191970" stroke="#191970" points="176.8574,-21.605 186.3325,-16.8644 175.9693,-14.6615 176.8574,-21.605"/>
</g>
</g>
</svg>
