<?xml version="1.0" encoding="UTF-8" standalone="no"?>
<!DOCTYPE svg PUBLIC "-//W3C//DTD SVG 1.1//EN"
 "http://www.w3.org/Graphics/SVG/1.1/DTD/svg11.dtd">
<!-- Generated by graphviz version 2.40.1 (20161225.0304)
 -->
<!-- Title: csvio::util::CSVInputParser::delim_split_escaped_impl Pages: 1 -->
<svg width="497pt" height="149pt"
 viewBox="0.00 0.00 497.00 148.50" xmlns="http://www.w3.org/2000/svg" xmlns:xlink="http://www.w3.org/1999/xlink">
<g id="graph0" class="graph" transform="scale(1 1) rotate(0) translate(4 144.5)">
<title>csvio::util::CSVInputParser::delim_split_escaped_impl</title>
<polygon fill="#ffffff" stroke="transparent" points="-4,4 -4,-144.5 493,-144.5 493,4 -4,4"/>
<!-- Node1 -->
<g id="node1" class="node">
<title>Node1</title>
<g id="a_node1"><a xlink:title="implementation of delim_split_escaped">
<polygon fill="#bfbfbf" stroke="#000000" points="353,-61 353,-91 489,-91 489,-61 353,-61"/>
<text text-anchor="start" x="361" y="-79" font-family="Helvetica,sans-Serif" font-size="10.00" fill="#000000">csvio::util::CSVInputParser</text>
<text text-anchor="middle" x="421" y="-68" font-family="Helvetica,sans-Serif" font-size="10.00" fill="#000000">::delim_split_escaped_impl</text>
</a>
</g>
</g>
<!-- Node2 -->
<g id="node2" class="node">
<title>Node2</title>
<g id="a_node2"><a xlink:href="structcsvio_1_1util_1_1CSVInputParser.html#a070d2bbc1f0b72d2c390310ed5272273" target="_top" xlink:title="Split string_view csv row based on a delimiter with escaped fields.">
<polygon fill="#ffffff" stroke="#000000" points="176.5,-110 176.5,-140 312.5,-140 312.5,-110 176.5,-110"/>
<text text-anchor="start" x="184.5" y="-128" font-family="Helvetica,sans-Serif" font-size="10.00" fill="#000000">csvio::util::CSVInputParser</text>
<text text-anchor="middle" x="244.5" y="-117" font-family="Helvetica,sans-Serif" font-size="10.00" fill="#000000">::delim_split_escaped</text>
</a>
</g>
</g>
<!-- Node1&#45;&gt;Node2 -->
<g id="edge1" class="edge">
<title>Node1&#45;&gt;Node2</title>
<path fill="none" stroke="#191970" d="M356.8071,-93.8212C337.7504,-99.1118 317.0734,-104.8522 298.7164,-109.9484"/>
<polygon fill="#191970" stroke="#191970" points="357.9047,-97.149 366.604,-91.1014 356.0321,-90.4041 357.9047,-97.149"/>
</g>
<!-- Node3 -->
<g id="node3" class="node">
<title>Node3</title>
<g id="a_node3"><a xlink:href="structcsvio_1_1util_1_1CSVInputParser.html#ad1317618ea1603f5085b7da5716681f7" target="_top" xlink:title="implementation of delim_split_unescaped">
<polygon fill="#ffffff" stroke="#000000" points="172,-61 172,-91 317,-91 317,-61 172,-61"/>
<text text-anchor="start" x="180" y="-79" font-family="Helvetica,sans-Serif" font-size="10.00" fill="#000000">csvio::util::CSVInputParser</text>
<text text-anchor="middle" x="244.5" y="-68" font-family="Helvetica,sans-Serif" font-size="10.00" fill="#000000">::delim_split_unescaped_impl</text>
</a>
</g>
</g>
<!-- Node1&#45;&gt;Node3 -->
<g id="edge2" class="edge">
<title>Node1&#45;&gt;Node3</title>
<path fill="none" stroke="#191970" d="M342.5639,-76C334.1382,-76 325.5916,-76 317.2366,-76"/>
<polygon fill="#191970" stroke="#191970" points="342.7605,-79.5001 352.7605,-76 342.7605,-72.5001 342.7605,-79.5001"/>
</g>
<!-- Node6 -->
<g id="node6" class="node">
<title>Node6</title>
<g id="a_node6"><a xlink:href="structcsvio_1_1util_1_1CSVInputParser.html#a424a15e29ec6e1598740aee8460fe5f6" target="_top" xlink:title="implementation of delim_split_unescaped_threaded">
<polygon fill="#ffffff" stroke="#000000" points="176.5,-.5 176.5,-41.5 312.5,-41.5 312.5,-.5 176.5,-.5"/>
<text text-anchor="start" x="184.5" y="-29.5" font-family="Helvetica,sans-Serif" font-size="10.00" fill="#000000">csvio::util::CSVInputParser</text>
<text text-anchor="start" x="184.5" y="-18.5" font-family="Helvetica,sans-Serif" font-size="10.00" fill="#000000">::delim_split_unescaped</text>
<text text-anchor="middle" x="244.5" y="-7.5" font-family="Helvetica,sans-Serif" font-size="10.00" fill="#000000">_threaded_impl</text>
</a>
</g>
</g>
<!-- Node1&#45;&gt;Node6 -->
<g id="edge5" class="edge">
<title>Node1&#45;&gt;Node6</title>
<path fill="none" stroke="#191970" d="M363.0894,-57.9542C346.2816,-52.7166 327.802,-46.9581 310.5359,-41.5777"/>
<polygon fill="#191970" stroke="#191970" points="362.1821,-61.3374 372.7706,-60.971 364.2647,-54.6544 362.1821,-61.3374"/>
</g>
<!-- Node4 -->
<g id="node4" class="node">
<title>Node4</title>
<g id="a_node4"><a xlink:href="structcsvio_1_1util_1_1CSVInputParser.html#a6440779cb5cb6492302bb31d0af723bf" target="_top" xlink:title="split a csv row on a delimiter escaping the output strings">
<polygon fill="#ffffff" stroke="#000000" points="0,-89 0,-119 136,-119 136,-89 0,-89"/>
<text text-anchor="start" x="8" y="-107" font-family="Helvetica,sans-Serif" font-size="10.00" fill="#000000">csvio::util::CSVInputParser</text>
<text text-anchor="middle" x="68" y="-96" font-family="Helvetica,sans-Serif" font-size="10.00" fill="#000000">::delim_split_unescaped</text>
</a>
</g>
</g>
<!-- Node3&#45;&gt;Node4 -->
<g id="edge3" class="edge">
<title>Node3&#45;&gt;Node4</title>
<path fill="none" stroke="#191970" d="M161.8455,-89.1123C153.1956,-90.4845 144.4738,-91.8682 136.0142,-93.2102"/>
<polygon fill="#191970" stroke="#191970" points="162.6185,-92.5335 171.9466,-87.5099 161.5217,-85.62 162.6185,-92.5335"/>
</g>
<!-- Node5 -->
<g id="node5" class="node">
<title>Node5</title>
<g id="a_node5"><a xlink:href="structcsvio_1_1util_1_1CSVInputParser.html#a203f6bd23f4d0bf4f84b4e215c9a78d7" target="_top" xlink:title="split a csv row on a delimiter escaping the output strings threaded">
<polygon fill="#ffffff" stroke="#000000" points="0,-28.5 0,-69.5 136,-69.5 136,-28.5 0,-28.5"/>
<text text-anchor="start" x="8" y="-57.5" font-family="Helvetica,sans-Serif" font-size="10.00" fill="#000000">csvio::util::CSVInputParser</text>
<text text-anchor="start" x="8" y="-46.5" font-family="Helvetica,sans-Serif" font-size="10.00" fill="#000000">::delim_split_unescaped</text>
<text text-anchor="middle" x="68" y="-35.5" font-family="Helvetica,sans-Serif" font-size="10.00" fill="#000000">_threaded</text>
</a>
</g>
</g>
<!-- Node3&#45;&gt;Node5 -->
<g id="edge4" class="edge">
<title>Node3&#45;&gt;Node5</title>
<path fill="none" stroke="#191970" d="M161.8455,-63.356C153.1956,-62.0328 144.4738,-60.6985 136.0142,-59.4044"/>
<polygon fill="#191970" stroke="#191970" points="161.5323,-66.8487 171.9466,-64.9012 162.5909,-59.9292 161.5323,-66.8487"/>
</g>
</g>
</svg>
