<?xml version="1.0" encoding="UTF-8" standalone="no"?>
<!DOCTYPE svg PUBLIC "-//W3C//DTD SVG 1.1//EN"
 "http://www.w3.org/Graphics/SVG/1.1/DTD/svg11.dtd">
<!-- Generated by graphviz version 2.40.1 (20161225.0304)
 -->
<!-- Title: csvio::util::CSVInputParser::delim_split_unescaped_threaded Pages: 1 -->
<svg width="497pt" height="78pt"
 viewBox="0.00 0.00 497.00 77.50" xmlns="http://www.w3.org/2000/svg" xmlns:xlink="http://www.w3.org/1999/xlink">
<g id="graph0" class="graph" transform="scale(1 1) rotate(0) translate(4 73.5)">
<title>csvio::util::CSVInputParser::delim_split_unescaped_threaded</title>
<polygon fill="#ffffff" stroke="transparent" points="-4,4 -4,-73.5 493,-73.5 493,4 -4,4"/>
<!-- Node1 -->
<g id="node1" class="node">
<title>Node1</title>
<g id="a_node1"><a xlink:title="split a csv row on a delimiter escaping the output strings threaded">
<polygon fill="#bfbfbf" stroke="#000000" points="0,-11.5 0,-52.5 136,-52.5 136,-11.5 0,-11.5"/>
<text text-anchor="start" x="8" y="-40.5" font-family="Helvetica,sans-Serif" font-size="10.00" fill="#000000">csvio::util::CSVInputParser</text>
<text text-anchor="start" x="8" y="-29.5" font-family="Helvetica,sans-Serif" font-size="10.00" fill="#000000">::delim_split_unescaped</text>
<text text-anchor="middle" x="68" y="-18.5" font-family="Helvetica,sans-Serif" font-size="10.00" fill="#000000">_threaded</text>
</a>
</g>
</g>
<!-- Node2 -->
<g id="node2" class="node">
<title>Node2</title>
<g id="a_node2"><a xlink:href="structcsvio_1_1util_1_1CSVInputParser.html#ad1317618ea1603f5085b7da5716681f7" target="_top" xlink:title="implementation of delim_split_unescaped">
<polygon fill="#ffffff" stroke="#000000" points="172,-17 172,-47 317,-47 317,-17 172,-17"/>
<text text-anchor="start" x="180" y="-35" font-family="Helvetica,sans-Serif" font-size="10.00" fill="#000000">csvio::util::CSVInputParser</text>
<text text-anchor="middle" x="244.5" y="-24" font-family="Helvetica,sans-Serif" font-size="10.00" fill="#000000">::delim_split_unescaped_impl</text>
</a>
</g>
</g>
<!-- Node1&#45;&gt;Node2 -->
<g id="edge1" class="edge">
<title>Node1&#45;&gt;Node2</title>
<path fill="none" stroke="#191970" d="M136.2395,-32C144.5153,-32 153.039,-32 161.4981,-32"/>
<polygon fill="#191970" stroke="#191970" points="161.7634,-35.5001 171.7634,-32 161.7634,-28.5001 161.7634,-35.5001"/>
</g>
<!-- Node3 -->
<g id="node3" class="node">
<title>Node3</title>
<g id="a_node3"><a xlink:href="structcsvio_1_1util_1_1CSVInputParser.html#a09223945cc9e4fa21a7c1d61759c1d1d" target="_top" xlink:title="implementation of delim_split_escaped">
<polygon fill="#ffffff" stroke="#000000" points="353,-39 353,-69 489,-69 489,-39 353,-39"/>
<text text-anchor="start" x="361" y="-57" font-family="Helvetica,sans-Serif" font-size="10.00" fill="#000000">csvio::util::CSVInputParser</text>
<text text-anchor="middle" x="421" y="-46" font-family="Helvetica,sans-Serif" font-size="10.00" fill="#000000">::delim_split_escaped_impl</text>
</a>
</g>
</g>
<!-- Node2&#45;&gt;Node3 -->
<g id="edge2" class="edge">
<title>Node2&#45;&gt;Node3</title>
<path fill="none" stroke="#191970" d="M317.0534,-41.0435C325.5958,-42.1083 334.3409,-43.1983 342.9545,-44.272"/>
<polygon fill="#191970" stroke="#191970" points="342.6297,-47.7585 352.9858,-45.5223 343.4956,-40.8122 342.6297,-47.7585"/>
</g>
<!-- Node4 -->
<g id="node4" class="node">
<title>Node4</title>
<g id="a_node4"><a xlink:href="namespacecsvio_1_1util.html#a089aafabb17e8a588ce85de77dc70231" target="_top" xlink:title="unescape a csv escaped string according to RFC 4180">
<polygon fill="#ffffff" stroke="#000000" points="367.5,-.5 367.5,-19.5 474.5,-19.5 474.5,-.5 367.5,-.5"/>
<text text-anchor="middle" x="421" y="-7.5" font-family="Helvetica,sans-Serif" font-size="10.00" fill="#000000">csvio::util::unescape</text>
</a>
</g>
</g>
<!-- Node2&#45;&gt;Node4 -->
<g id="edge3" class="edge">
<title>Node2&#45;&gt;Node4</title>
<path fill="none" stroke="#191970" d="M317.0534,-22.9565C330.3327,-21.3013 344.1019,-19.585 357.1057,-17.9642"/>
<polygon fill="#191970" stroke="#191970" points="357.8561,-21.3978 367.3464,-16.6877 356.9902,-14.4515 357.8561,-21.3978"/>
</g>
</g>
</svg>
