<?xml version="1.0" encoding="UTF-8" standalone="no"?>
<!DOCTYPE svg PUBLIC "-//W3C//DTD SVG 1.1//EN"
 "http://www.w3.org/Graphics/SVG/1.1/DTD/svg11.dtd">
<!-- Generated by graphviz version 2.40.1 (20161225.0304)
 -->
<!-- Title: csvio::util::MapDelimSplitUnescapedThreaded::delim_split_unescaped_threaded_impl Pages: 1 -->
<svg width="338pt" height="88pt"
 viewBox="0.00 0.00 338.00 88.00" xmlns="http://www.w3.org/2000/svg" xmlns:xlink="http://www.w3.org/1999/xlink">
<g id="graph0" class="graph" transform="scale(1 1) rotate(0) translate(4 84)">
<title>csvio::util::MapDelimSplitUnescapedThreaded::delim_split_unescaped_threaded_impl</title>
<polygon fill="#ffffff" stroke="transparent" points="-4,4 -4,-84 334,-84 334,4 -4,4"/>
<!-- Node1 -->
<g id="node1" class="node">
<title>Node1</title>
<g id="a_node1"><a xlink:title="split and unescape the fields in the csv with a thread for each value">
<polygon fill="#bfbfbf" stroke="#000000" points="0,-13.5 0,-54.5 158,-54.5 158,-13.5 0,-13.5"/>
<text text-anchor="start" x="8" y="-42.5" font-family="Helvetica,sans-Serif" font-size="10.00" fill="#000000">csvio::util::MapDelimSplit</text>
<text text-anchor="start" x="8" y="-31.5" font-family="Helvetica,sans-Serif" font-size="10.00" fill="#000000">UnescapedThreaded::delim</text>
<text text-anchor="middle" x="79" y="-20.5" font-family="Helvetica,sans-Serif" font-size="10.00" fill="#000000">_split_unescaped_threaded_impl</text>
</a>
</g>
</g>
<!-- Node2 -->
<g id="node2" class="node">
<title>Node2</title>
<g id="a_node2"><a xlink:href="structcsvio_1_1util_1_1MapDelimSplitUnescapedThreaded.html#a8510b0c1bfb759625d15a05568d80949" target="_top" xlink:title="implementation of delim_split_escaped for map types">
<polygon fill="#ffffff" stroke="#000000" points="194,-38.5 194,-79.5 330,-79.5 330,-38.5 194,-38.5"/>
<text text-anchor="start" x="202" y="-67.5" font-family="Helvetica,sans-Serif" font-size="10.00" fill="#000000">csvio::util::MapDelimSplit</text>
<text text-anchor="start" x="202" y="-56.5" font-family="Helvetica,sans-Serif" font-size="10.00" fill="#000000">UnescapedThreaded::delim</text>
<text text-anchor="middle" x="262" y="-45.5" font-family="Helvetica,sans-Serif" font-size="10.00" fill="#000000">_split_escaped_impl</text>
</a>
</g>
</g>
<!-- Node1&#45;&gt;Node2 -->
<g id="edge1" class="edge">
<title>Node1&#45;&gt;Node2</title>
<path fill="none" stroke="#191970" d="M158.2021,-44.82C166.7419,-45.9866 175.4273,-47.1731 183.9534,-48.3379"/>
<polygon fill="#191970" stroke="#191970" points="183.489,-51.8069 193.8708,-49.6927 184.4366,-44.8713 183.489,-51.8069"/>
</g>
<!-- Node3 -->
<g id="node3" class="node">
<title>Node3</title>
<g id="a_node3"><a xlink:href="namespacecsvio_1_1util.html#a5b723dd3c5c5166dc82284ae15d19ba4" target="_top" xlink:title="unescape a csv escaped string according to RFC 4180">
<polygon fill="#ffffff" stroke="#000000" points="208.5,-.5 208.5,-19.5 315.5,-19.5 315.5,-.5 208.5,-.5"/>
<text text-anchor="middle" x="262" y="-7.5" font-family="Helvetica,sans-Serif" font-size="10.00" fill="#000000">csvio::util::unescape</text>
</a>
</g>
</g>
<!-- Node1&#45;&gt;Node3 -->
<g id="edge2" class="edge">
<title>Node1&#45;&gt;Node3</title>
<path fill="none" stroke="#191970" d="M158.2021,-23.6128C171.5409,-21.8635 185.2347,-20.0676 198.1219,-18.3775"/>
<polygon fill="#191970" stroke="#191970" points="198.8021,-21.8183 208.2621,-17.0476 197.8918,-14.8777 198.8021,-21.8183"/>
</g>
</g>
</svg>
