<?xml version="1.0" encoding="UTF-8" standalone="no"?>
<!DOCTYPE svg PUBLIC "-//W3C//DTD SVG 1.1//EN"
 "http://www.w3.org/Graphics/SVG/1.1/DTD/svg11.dtd">
<!-- Generated by graphviz version 2.40.1 (20161225.0304)
 -->
<!-- Title: csvio::util::CSVInputParser::delim_split_unescaped_impl Pages: 1 -->
<svg width="325pt" height="100pt"
 viewBox="0.00 0.00 325.00 99.50" xmlns="http://www.w3.org/2000/svg" xmlns:xlink="http://www.w3.org/1999/xlink">
<g id="graph0" class="graph" transform="scale(1 1) rotate(0) translate(4 95.5)">
<title>csvio::util::CSVInputParser::delim_split_unescaped_impl</title>
<polygon fill="#ffffff" stroke="transparent" points="-4,4 -4,-95.5 321,-95.5 321,4 -4,4"/>
<!-- Node1 -->
<g id="node1" class="node">
<title>Node1</title>
<g id="a_node1"><a xlink:title="implementation of delim_split_unescaped">
<polygon fill="#bfbfbf" stroke="#000000" points="172,-33 172,-63 317,-63 317,-33 172,-33"/>
<text text-anchor="start" x="180" y="-51" font-family="Helvetica,sans-Serif" font-size="10.00" fill="#000000">csvio::util::CSVInputParser</text>
<text text-anchor="middle" x="244.5" y="-40" font-family="Helvetica,sans-Serif" font-size="10.00" fill="#000000">::delim_split_unescaped_impl</text>
</a>
</g>
</g>
<!-- Node2 -->
<g id="node2" class="node">
<title>Node2</title>
<g id="a_node2"><a xlink:href="structcsvio_1_1util_1_1CSVInputParser.html#a6440779cb5cb6492302bb31d0af723bf" target="_top" xlink:title="split a csv row on a delimiter escaping the output strings">
<polygon fill="#ffffff" stroke="#000000" points="0,-61 0,-91 136,-91 136,-61 0,-61"/>
<text text-anchor="start" x="8" y="-79" font-family="Helvetica,sans-Serif" font-size="10.00" fill="#000000">csvio::util::CSVInputParser</text>
<text text-anchor="middle" x="68" y="-68" font-family="Helvetica,sans-Serif" font-size="10.00" fill="#000000">::delim_split_unescaped</text>
</a>
</g>
</g>
<!-- Node1&#45;&gt;Node2 -->
<g id="edge1" class="edge">
<title>Node1&#45;&gt;Node2</title>
<path fill="none" stroke="#191970" d="M161.8455,-61.1123C153.1956,-62.4845 144.4738,-63.8682 136.0142,-65.2102"/>
<polygon fill="#191970" stroke="#191970" points="162.6185,-64.5335 171.9466,-59.5099 161.5217,-57.62 162.6185,-64.5335"/>
</g>
<!-- Node3 -->
<g id="node3" class="node">
<title>Node3</title>
<g id="a_node3"><a xlink:href="structcsvio_1_1util_1_1CSVInputParser.html#a203f6bd23f4d0bf4f84b4e215c9a78d7" target="_top" xlink:title="split a csv row on a delimiter escaping the output strings threaded">
<polygon fill="#ffffff" stroke="#000000" points="0,-.5 0,-41.5 136,-41.5 136,-.5 0,-.5"/>
<text text-anchor="start" x="8" y="-29.5" font-family="Helvetica,sans-Serif" font-size="10.00" fill="#000000">csvio::util::CSVInputParser</text>
<text text-anchor="start" x="8" y="-18.5" font-family="Helvetica,sans-Serif" font-size="10.00" fill="#000000">::delim_split_unescaped</text>
<text text-anchor="middle" x="68" y="-7.5" font-family="Helvetica,sans-Serif" font-size="10.00" fill="#000000">_threaded</text>
</a>
</g>
</g>
<!-- Node1&#45;&gt;Node3 -->
<g id="edge2" class="edge">
<title>Node1&#45;&gt;Node3</title>
<path fill="none" stroke="#191970" d="M161.8455,-35.356C153.1956,-34.0328 144.4738,-32.6985 136.0142,-31.4044"/>
<polygon fill="#191970" stroke="#191970" points="161.5323,-38.8487 171.9466,-36.9012 162.5909,-31.9292 161.5323,-38.8487"/>
</g>
</g>
</svg>
