<?xml version="1.0" encoding="UTF-8" standalone="no"?>
<!DOCTYPE svg PUBLIC "-//W3C//DTD SVG 1.1//EN"
 "http://www.w3.org/Graphics/SVG/1.1/DTD/svg11.dtd">
<!-- Generated by graphviz version 2.40.1 (20161225.0304)
 -->
<!-- Title: csvio::util::MapDelimSplitUnescapedThreaded::operator() Pages: 1 -->
<svg width="528pt" height="88pt"
 viewBox="0.00 0.00 528.00 88.00" xmlns="http://www.w3.org/2000/svg" xmlns:xlink="http://www.w3.org/1999/xlink">
<g id="graph0" class="graph" transform="scale(1 1) rotate(0) translate(4 84)">
<title>csvio::util::MapDelimSplitUnescapedThreaded::operator()</title>
<polygon fill="#ffffff" stroke="transparent" points="-4,4 -4,-84 524,-84 524,4 -4,4"/>
<!-- Node1 -->
<g id="node1" class="node">
<title>Node1</title>
<g id="a_node1"><a xlink:title="split a csv row on a delimiter unescaping the output strings">
<polygon fill="#bfbfbf" stroke="#000000" points="0,-19 0,-49 154,-49 154,-19 0,-19"/>
<text text-anchor="start" x="8" y="-37" font-family="Helvetica,sans-Serif" font-size="10.00" fill="#000000">csvio::util::MapDelimSplit</text>
<text text-anchor="middle" x="77" y="-26" font-family="Helvetica,sans-Serif" font-size="10.00" fill="#000000">UnescapedThreaded::operator()</text>
</a>
</g>
</g>
<!-- Node2 -->
<g id="node2" class="node">
<title>Node2</title>
<g id="a_node2"><a xlink:href="structcsvio_1_1util_1_1MapDelimSplitUnescapedThreaded.html#ac73141820ec96c7fe1967a87f3febf48" target="_top" xlink:title="split and unescape the fields in the csv with a thread for each value">
<polygon fill="#ffffff" stroke="#000000" points="190,-13.5 190,-54.5 348,-54.5 348,-13.5 190,-13.5"/>
<text text-anchor="start" x="198" y="-42.5" font-family="Helvetica,sans-Serif" font-size="10.00" fill="#000000">csvio::util::MapDelimSplit</text>
<text text-anchor="start" x="198" y="-31.5" font-family="Helvetica,sans-Serif" font-size="10.00" fill="#000000">UnescapedThreaded::delim</text>
<text text-anchor="middle" x="269" y="-20.5" font-family="Helvetica,sans-Serif" font-size="10.00" fill="#000000">_split_unescaped_threaded_impl</text>
</a>
</g>
</g>
<!-- Node1&#45;&gt;Node2 -->
<g id="edge1" class="edge">
<title>Node1&#45;&gt;Node2</title>
<path fill="none" stroke="#191970" d="M154.2638,-34C162.5609,-34 171.0524,-34 179.4769,-34"/>
<polygon fill="#191970" stroke="#191970" points="179.7024,-37.5001 189.7024,-34 179.7024,-30.5001 179.7024,-37.5001"/>
</g>
<!-- Node3 -->
<g id="node3" class="node">
<title>Node3</title>
<g id="a_node3"><a xlink:href="structcsvio_1_1util_1_1MapDelimSplitUnescapedThreaded.html#a8510b0c1bfb759625d15a05568d80949" target="_top" xlink:title="implementation of delim_split_escaped for map types">
<polygon fill="#ffffff" stroke="#000000" points="384,-38.5 384,-79.5 520,-79.5 520,-38.5 384,-38.5"/>
<text text-anchor="start" x="392" y="-67.5" font-family="Helvetica,sans-Serif" font-size="10.00" fill="#000000">csvio::util::MapDelimSplit</text>
<text text-anchor="start" x="392" y="-56.5" font-family="Helvetica,sans-Serif" font-size="10.00" fill="#000000">UnescapedThreaded::delim</text>
<text text-anchor="middle" x="452" y="-45.5" font-family="Helvetica,sans-Serif" font-size="10.00" fill="#000000">_split_escaped_impl</text>
</a>
</g>
</g>
<!-- Node2&#45;&gt;Node3 -->
<g id="edge2" class="edge">
<title>Node2&#45;&gt;Node3</title>
<path fill="none" stroke="#191970" d="M348.2021,-44.82C356.7419,-45.9866 365.4273,-47.1731 373.9534,-48.3379"/>
<polygon fill="#191970" stroke="#191970" points="373.489,-51.8069 383.8708,-49.6927 374.4366,-44.8713 373.489,-51.8069"/>
</g>
<!-- Node4 -->
<g id="node4" class="node">
<title>Node4</title>
<g id="a_node4"><a xlink:href="namespacecsvio_1_1util.html#a5b723dd3c5c5166dc82284ae15d19ba4" target="_top" xlink:title="unescape a csv escaped string according to RFC 4180">
<polygon fill="#ffffff" stroke="#000000" points="398.5,-.5 398.5,-19.5 505.5,-19.5 505.5,-.5 398.5,-.5"/>
<text text-anchor="middle" x="452" y="-7.5" font-family="Helvetica,sans-Serif" font-size="10.00" fill="#000000">csvio::util::unescape</text>
</a>
</g>
</g>
<!-- Node2&#45;&gt;Node4 -->
<g id="edge3" class="edge">
<title>Node2&#45;&gt;Node4</title>
<path fill="none" stroke="#191970" d="M348.2021,-23.6128C361.5409,-21.8635 375.2347,-20.0676 388.1219,-18.3775"/>
<polygon fill="#191970" stroke="#191970" points="388.8021,-21.8183 398.2621,-17.0476 387.8918,-14.8777 388.8021,-21.8183"/>
</g>
</g>
</svg>
