<?xml version="1.0" encoding="UTF-8" standalone="no"?>
<!DOCTYPE svg PUBLIC "-//W3C//DTD SVG 1.1//EN"
 "http://www.w3.org/Graphics/SVG/1.1/DTD/svg11.dtd">
<!-- Generated by graphviz version 2.40.1 (20161225.0304)
 -->
<!-- Title: csvio::util::MapDelimSplitUnescaped::delim_split_unescaped_impl Pages: 1 -->
<svg width="300pt" height="88pt"
 viewBox="0.00 0.00 300.00 88.00" xmlns="http://www.w3.org/2000/svg" xmlns:xlink="http://www.w3.org/1999/xlink">
<g id="graph0" class="graph" transform="scale(1 1) rotate(0) translate(4 84)">
<title>csvio::util::MapDelimSplitUnescaped::delim_split_unescaped_impl</title>
<polygon fill="#ffffff" stroke="transparent" points="-4,4 -4,-84 296,-84 296,4 -4,4"/>
<!-- Node1 -->
<g id="node1" class="node">
<title>Node1</title>
<g id="a_node1"><a xlink:title="split and unescape the fields in the csv">
<polygon fill="#bfbfbf" stroke="#000000" points="0,-13.5 0,-54.5 128,-54.5 128,-13.5 0,-13.5"/>
<text text-anchor="start" x="8" y="-42.5" font-family="Helvetica,sans-Serif" font-size="10.00" fill="#000000">csvio::util::MapDelimSplit</text>
<text text-anchor="start" x="8" y="-31.5" font-family="Helvetica,sans-Serif" font-size="10.00" fill="#000000">Unescaped::delim_split</text>
<text text-anchor="middle" x="64" y="-20.5" font-family="Helvetica,sans-Serif" font-size="10.00" fill="#000000">_unescaped_impl</text>
</a>
</g>
</g>
<!-- Node2 -->
<g id="node2" class="node">
<title>Node2</title>
<g id="a_node2"><a xlink:href="structcsvio_1_1util_1_1MapDelimSplitUnescaped.html#a809541ca924359726da415f9945bde4b" target="_top" xlink:title="implementation of delim_split_escaped for map types">
<polygon fill="#ffffff" stroke="#000000" points="164,-38.5 164,-79.5 292,-79.5 292,-38.5 164,-38.5"/>
<text text-anchor="start" x="172" y="-67.5" font-family="Helvetica,sans-Serif" font-size="10.00" fill="#000000">csvio::util::MapDelimSplit</text>
<text text-anchor="start" x="172" y="-56.5" font-family="Helvetica,sans-Serif" font-size="10.00" fill="#000000">Unescaped::delim_split</text>
<text text-anchor="middle" x="228" y="-45.5" font-family="Helvetica,sans-Serif" font-size="10.00" fill="#000000">_escaped_impl</text>
</a>
</g>
</g>
<!-- Node1&#45;&gt;Node2 -->
<g id="edge1" class="edge">
<title>Node1&#45;&gt;Node2</title>
<path fill="none" stroke="#191970" d="M128.3464,-43.8089C136.7313,-45.0871 145.3746,-46.4047 153.9029,-47.7047"/>
<polygon fill="#191970" stroke="#191970" points="153.4258,-51.1723 163.8391,-49.2194 154.4808,-44.2523 153.4258,-51.1723"/>
</g>
<!-- Node3 -->
<g id="node3" class="node">
<title>Node3</title>
<g id="a_node3"><a xlink:href="namespacecsvio_1_1util.html#a5b723dd3c5c5166dc82284ae15d19ba4" target="_top" xlink:title="unescape a csv escaped string according to RFC 4180">
<polygon fill="#ffffff" stroke="#000000" points="174.5,-.5 174.5,-19.5 281.5,-19.5 281.5,-.5 174.5,-.5"/>
<text text-anchor="middle" x="228" y="-7.5" font-family="Helvetica,sans-Serif" font-size="10.00" fill="#000000">csvio::util::unescape</text>
</a>
</g>
</g>
<!-- Node1&#45;&gt;Node3 -->
<g id="edge2" class="edge">
<title>Node1&#45;&gt;Node3</title>
<path fill="none" stroke="#191970" d="M128.3464,-24.5834C140.1455,-22.8568 152.4565,-21.0551 164.2383,-19.331"/>
<polygon fill="#191970" stroke="#191970" points="165.0419,-22.7507 174.4297,-17.8396 164.0283,-15.8245 165.0419,-22.7507"/>
</g>
</g>
</svg>
