<?xml version="1.0" encoding="UTF-8" standalone="no"?>
<!DOCTYPE svg PUBLIC "-//W3C//DTD SVG 1.1//EN"
 "http://www.w3.org/Graphics/SVG/1.1/DTD/svg11.dtd">
<!-- Generated by graphviz version 2.40.1 (20161225.0304)
 -->
<!-- Title: csvio::util::DelimSplitUnescaped::delim_split_escaped_impl Pages: 1 -->
<svg width="557pt" height="39pt"
 viewBox="0.00 0.00 557.00 39.00" xmlns="http://www.w3.org/2000/svg" xmlns:xlink="http://www.w3.org/1999/xlink">
<g id="graph0" class="graph" transform="scale(1 1) rotate(0) translate(4 35)">
<title>csvio::util::DelimSplitUnescaped::delim_split_escaped_impl</title>
<polygon fill="#ffffff" stroke="transparent" points="-4,4 -4,-35 553,-35 553,4 -4,4"/>
<!-- Node1 -->
<g id="node1" class="node">
<title>Node1</title>
<g id="a_node1"><a xlink:title="implementation of delim_split_escaped">
<polygon fill="#bfbfbf" stroke="#000000" points="390,-.5 390,-30.5 549,-30.5 549,-.5 390,-.5"/>
<text text-anchor="start" x="398" y="-18.5" font-family="Helvetica,sans-Serif" font-size="10.00" fill="#000000">csvio::util::DelimSplitUnescaped</text>
<text text-anchor="middle" x="469.5" y="-7.5" font-family="Helvetica,sans-Serif" font-size="10.00" fill="#000000">::delim_split_escaped_impl</text>
</a>
</g>
</g>
<!-- Node2 -->
<g id="node2" class="node">
<title>Node2</title>
<g id="a_node2"><a xlink:href="structcsvio_1_1util_1_1DelimSplitUnescaped.html#aa6ad7a2c3027b4492c25d58c676b9be0" target="_top" xlink:title="implementation of delim_split_unescaped">
<polygon fill="#ffffff" stroke="#000000" points="195,-.5 195,-30.5 354,-30.5 354,-.5 195,-.5"/>
<text text-anchor="start" x="203" y="-18.5" font-family="Helvetica,sans-Serif" font-size="10.00" fill="#000000">csvio::util::DelimSplitUnescaped</text>
<text text-anchor="middle" x="274.5" y="-7.5" font-family="Helvetica,sans-Serif" font-size="10.00" fill="#000000">::delim_split_unescaped_impl</text>
</a>
</g>
</g>
<!-- Node1&#45;&gt;Node2 -->
<g id="edge1" class="edge">
<title>Node1&#45;&gt;Node2</title>
<path fill="none" stroke="#191970" d="M379.883,-15.5C371.3001,-15.5 362.6353,-15.5 354.1568,-15.5"/>
<polygon fill="#191970" stroke="#191970" points="379.9048,-19.0001 389.9048,-15.5 379.9047,-12.0001 379.9048,-19.0001"/>
</g>
<!-- Node3 -->
<g id="node3" class="node">
<title>Node3</title>
<g id="a_node3"><a xlink:href="structcsvio_1_1util_1_1DelimSplitUnescaped.html#a14adb6a0e5936c2987560be07ae3b426" target="_top" xlink:title="split a csv row on a delimiter unescaping the output strings threaded">
<polygon fill="#ffffff" stroke="#000000" points="0,-.5 0,-30.5 159,-30.5 159,-.5 0,-.5"/>
<text text-anchor="start" x="8" y="-18.5" font-family="Helvetica,sans-Serif" font-size="10.00" fill="#000000">csvio::util::DelimSplitUnescaped</text>
<text text-anchor="middle" x="79.5" y="-7.5" font-family="Helvetica,sans-Serif" font-size="10.00" fill="#000000">::operator()</text>
</a>
</g>
</g>
<!-- Node2&#45;&gt;Node3 -->
<g id="edge2" class="edge">
<title>Node2&#45;&gt;Node3</title>
<path fill="none" stroke="#191970" d="M184.883,-15.5C176.3001,-15.5 167.6353,-15.5 159.1568,-15.5"/>
<polygon fill="#191970" stroke="#191970" points="184.9048,-19.0001 194.9048,-15.5 184.9047,-12.0001 184.9048,-19.0001"/>
</g>
</g>
</svg>
